/* XPM */
static char *e811e8912f9c4192c5dc9609197c75817dXxzhOY65TRqO9e[] = {
/* columns rows colors chars-per-pixel */
"64 64 255 2 ",
"   c #010301",
".  c #0B0200",
"X  c #000B01",
"o  c #00040B",
"O  c #000B0B",
"+  c #0A0B04",
"@  c #130200",
"#  c #180701",
"$  c #011300",
"%  c #031C01",
"&  c #0B1C01",
"*  c #00110D",
"=  c #071803",
"-  c #151806",
";  c #000512",
":  c #000B13",
">  c #000C1B",
",  c #011215",
"<  c #00131B",
"1  c #011A19",
"2  c #151817",
"3  c #290A00",
"4  c #281707",
"5  c #361A04",
"6  c #2B1A17",
"7  c #032401",
"8  c #082804",
"9  c #162705",
"0  c #183606",
"q  c #03281A",
"w  c #19231C",
"e  c #163913",
"r  c #233A0B",
"t  c #252419",
"y  c #2C2E11",
"u  c #000E21",
"i  c #001323",
"p  c #011C24",
"a  c #00182A",
"s  c #1D1E22",
"d  c #012223",
"f  c #022828",
"g  c #022B39",
"h  c #05373A",
"j  c #1A353A",
"k  c #122A2A",
"l  c #343A25",
"z  c #29302D",
"x  c #201C2B",
"c  c #4B290D",
"v  c #503A2A",
"b  c #1C4A0D",
"n  c #25450C",
"m  c #294816",
"M  c #38561C",
"N  c #2D5415",
"B  c #3D7B17",
"V  c #13423B",
"C  c #395725",
"Z  c #334E33",
"A  c #3D6527",
"S  c #3D7821",
"D  c #447C16",
"F  c #447D1B",
"G  c #4A7D1D",
"H  c #467719",
"J  c #4C751D",
"K  c #445A28",
"L  c #53472C",
"P  c #6F5133",
"I  c #466828",
"U  c #457D22",
"Y  c #4B7E23",
"T  c #49782A",
"R  c #527D29",
"E  c #486936",
"W  c #4D7834",
"Q  c #537D33",
"!  c #55793A",
"~  c #546F31",
"^  c #617B3D",
"/  c #684219",
"(  c #053A44",
")  c #093448",
"_  c #074348",
"`  c #174649",
"'  c #094758",
"]  c #194755",
"[  c #195459",
"{  c #055B5C",
"}  c #2C5253",
"|  c #075C69",
" . c #185C65",
".. c #115571",
"X. c #2B5B6B",
"o. c #186778",
"O. c #0E6B72",
"+. c #28646D",
"@. c #276873",
"#. c #376775",
"$. c #317371",
"%. c #2A6052",
"&. c #595A59",
"*. c #50534E",
"=. c #5A7C44",
"-. c #506B4B",
";. c #6C7150",
":. c #4B5C68",
">. c #496C72",
",. c #6E6F6C",
"<. c #6B5B4E",
"1. c #8A5C36",
"2. c #926138",
"3. c #8A6C4E",
"4. c #A6754C",
"5. c #85786E",
"6. c #825D40",
"7. c #45821C",
"8. c #4B831D",
"9. c #4C8A1D",
"0. c #488517",
"q. c #528B1E",
"w. c #52861C",
"e. c #4C921C",
"r. c #458323",
"t. c #4C8423",
"y. c #4D8A24",
"u. c #46822A",
"i. c #4C852A",
"p. c #4D8A2A",
"a. c #468825",
"s. c #528524",
"d. c #538B25",
"f. c #598C25",
"g. c #53852B",
"h. c #538B2B",
"j. c #5A8D2C",
"k. c #59862B",
"l. c #4F902B",
"z. c #4E9124",
"x. c #549124",
"c. c #5B9225",
"v. c #54912B",
"b. c #5A922C",
"n. c #5A992C",
"m. c #4E8833",
"M. c #548432",
"N. c #5A8434",
"B. c #548C32",
"V. c #5B8D32",
"C. c #5B843C",
"Z. c #5C8C3B",
"A. c #54853A",
"S. c #559231",
"D. c #5B9233",
"F. c #5C9738",
"G. c #628B3C",
"H. c #638938",
"J. c #639636",
"K. c #61952E",
"L. c #5B8644",
"P. c #638945",
"I. c #649244",
"U. c #6D934E",
"Y. c #8E8F77",
"T. c #AC8B6C",
"R. c #A98456",
"E. c #D19359",
"W. c #F59B4B",
"Q. c #EEA353",
"!. c #CC9B6E",
"~. c #CDA57A",
"^. c #E9A968",
"/. c #F0AE70",
"(. c #DD9F60",
"). c #177A87",
"_. c #127388",
"`. c #287A88",
"'. c #3B7688",
"]. c #23748E",
"[. c #447286",
"{. c #028897",
"}. c #178594",
"|. c #0B848C",
" X c #308592",
".X c #0785A7",
"XX c #1793AE",
"oX c #3290AE",
"OX c #2BA2BA",
"+X c #49859A",
"@X c #6D848B",
"#X c #4995AD",
"$X c #56A3B7",
"%X c #4CA6B9",
"&X c #639DB4",
"*X c #189BC2",
"=X c #2FA9CC",
"-X c #39B8E9",
";X c #3ABDF5",
":X c #2EBFEE",
">X c #3D93C2",
",X c #51B1D4",
"<X c #6AAAC2",
"1X c #6BB2D0",
"2X c #49B9E7",
"3X c #56BCE7",
"4X c #44BEF3",
"5X c #56BCF1",
"6X c #51A3CF",
"7X c #36C2F8",
"8X c #33C3F0",
"9X c #75C6DB",
"0X c #49C1EC",
"qX c #46C1F8",
"wX c #51C3EF",
"eX c #74CAEC",
"rX c #8C8E8B",
"tX c #A69787",
"yX c #8D9BA7",
"uX c #8EA8AE",
"iX c #B0ACA0",
"pX c #D8B18D",
"aX c #EAB88C",
"sX c #E7B68B",
"dX c #DDBAA5",
"fX c #B1C8BE",
"gX c #F8C793",
"hX c #D1C8B9",
"jX c #FCD7B0",
"kX c #FFE2B9",
"lX c #A1B8C9",
"zX c #98C6D6",
"xX c #ADC4C9",
"cX c #8ED4F0",
"vX c #AEDBF1",
"bX c #9AE5FF",
"nX c #AEECFC",
"mX c #F1DECD",
"MX c #FEE7C6",
"NX c #F9E6D7",
"BX c #FFF5D8",
"VX c #FFF3CD",
"CX c #CEDBE5",
"ZX c #C9FCFC",
"AX c #D8FEFF",
"SX c #CDE8F5",
"DX c #E8E7E8",
"FX c #FFF9EA",
"GX c #E4FFFF",
"HX c #ECFEFF",
"JX c #E2F6F7",
"KX c #FCFDFD",
"LX c #F9FBF7",
"PX c #EFEDF2",
"IX c #CED5D9",
/* pixels */
"9.e.d.n.h.p.y.y.d.y.8.9.8.9.c.f.n.f.w.w.g.h.p.a.r.p.h.j.j.K.8.y.d.8.c.h.u.u.r.q.f.c.j.h.s.f.y.y.d.0.7.a.l.l.n.e.9.q.d.d.h.d.i.F ",
"x.9.y.l.y.r.a.d.c.d.7.B 7.h.8.w.s.y.F b.s.j.p.F B t.g.s.s.j.y.s.s.d.v.r.S U z.w.q.s.h.Y s.s.f.v.7.D 0.v.p.7.a.x.0.q.d.s.g.r.U F ",
"K.8.7.r.x.v.t.d.s.s.U r.z.l.d.B r.b.j.w.8.G G t.F h.V.s.Y s.y.z.y.p.7.9.F a.F.9.0.w.k.N.V.G t.8.d.F 7.v.y.8.7.v.9.d.9.y.g.Y F 7.",
"J.f.t.r.v.d.t.G t.g.T U F.F.i.A.A.W Q T k.G N.s.t.D.J.k.t.r.z.y.r.r.F y.r.r.F.f.j.H ! W W Q g.Y s.D h.J.p.9.8.y.v.s.F F y.t.r.d.",
"c.K.s.7.r.8.d.t.H Z.T m.S.L.I.A 0 . X $ M C.t.y.9.b.v.f.U t.t.y.s.7.t.d.r.p.v.D.V.~ $ X   & E L.Z.R V.j.V.y.7.7.i.h.t.t.s.t.8.b.",
"G j.t.r.p.y.b.s.F i.T M.I.~ 0 $ # 6 6 +   K Y 7.e.x.x.v.Y h.g.h.b.U Y Y r.S.h.D.Q %   -     X 0 M Q G.M.D.s.8.i.p.B.i.U 7.8.y.b.",
"w.k.t.m.h.p.d.F U S M.P.C X . 5 R.(.pXT.. = Q c.9.9.z.a.8.h.k.M.h.J Y Y p.l.a.B.0   - tX*.. . o X n W G.B.G d.S.h.g.t.H 8.s.y.s.",
"f.w.F p.i.i.r.7.7.h.I.M   . L ~.aXjXjXP   M C.d.9.B p.8.8.g.i.Y Y J t.V.v.8.D V.C     <.mXtXt o X X 0 =.Q Y d.t.r.i.t.U 8.h.y.F ",
"h.F 9.9.m.M.h.D D D.N   . <.gXmXBXBX*.. M C.M.r.p.S.m.u.U i.t.g.t.H y.s.8.h.h.i.N.K     5.VXNXiX&.; X m L.Y y.s.i.i.t.r.s.y.G V.",
"p.y.0.z.B.m.j.s.s.J X . 3.dXNXLXPX*.X E A.i.Y t.p.b.B.g.m.D.h.c.y.8.8.D 8.h.S.B.Y C.K   - T.NXFXKXU.    N C.G v.h.b.t.r.d.8.t.D.",
"k.s.7.v.B.i.s.k.H.n . L pXMXFXKXrXo C P.g.8.s.s.s.f.d.8.t.h.9.9.l.l.S.Y G s.V.h.r.t.U.m   c pXMXLXKXrX  $ T D.c.d.d.s.h.s.F y.D.",
"D.s.8.y.s.h.w.g.P.9 @ R.gXMXLXKX*.  ! g.d.d.y.Y K.c.q.9.8.d.8.d.a.a.p.g.h.b.B.p.r.r.j.~ . 5 !.jXFXKXDXw $ ~ s.w.y.r.y.D.y.8.D.d.",
"V.h.d.x.8.f.d.g.=.9 @ T.dXVXLXKX*.  ~ k.d.y.d.f.k.k.d.f.f.j.d.c.y.v.s.x.w.f.s.h.v.l.B.Q . 5 (.aXNXKXDXs X =.J.w.d.h.y.B.s.y.b.s.",
"s.f.b.K.8.8.c.s.P.- 3 R.aXVXLXKX*.  M H.r.s.c.D R R g.V.D.D.R V.k.g.g.h.G G s.h.v.b.I.C   5 E.gXBXFXDXs o P.k.c.9.b.p.t.b.s.y.8.",
"s.y.d.v.d.8.v.t.L.8 @ T.aXkXFXKX,.  X ! G.b.D.N.! L.=.P.L.Z.! L.P.G.=.L.A.T B.k.d.k.P.9 . c (./.jXFXNX2 X ! V.w.7.d.p.p.f.w.D D ",
"b.8.0.8.j.y.8.g.A.9 @ T./.jXBXLXdXy   - =.C.n 8 7 8 7 7 7 8 7 7 & % 9 7 7 8 I P.I K 9 X @ 4.Q.Q.sXMXNXs   =.s.c.d.r.h.B.r.D G D ",
"K.q.0.7.h.B.8.7.A.7 @ 4.(./.MXFXBXiX4 + 9 - X $     X $ X * > : > ;   + $ $ X w X o     / Q.W.W.Q.gXkX9 X =.i.s.h.h.Y S a.y.F y.",
"K.K.9.7.r.p.a.a.W 0 @ / /.(.aXMXVXMXtX# .   5.rX  q [  .@.+X+X#X X&XlXxXxX,..   *.5.  # 4./.W.W.Q./.3.  $ =.U t.g.g.t.7.h.p.8.d.",
"s.S.a.a.a.a.l.u.A.b   # 2./.(./.gXjXjX6.  O CXiXX f `.}.XX-X2X4XwX5XbXAXHXHX:.  ,.hXX # E.W.W.W.^.4.@ . 0 A.U f.s.d.c.0.r.7.d.n.",
"p.p.p.m.v.p.v.u.S ! 0 . 3 2.^.^.sXaXaXT.@ + mXyXX f ).{._.*X:X;X7X0X2XbXAXHXPXz 4 T.= # E.Q./.^.4.3 . = L.m.p.d.d.d.8.B 7.p.d.s.",
"h.r.i.s.8.w.G t.8.t.C.9 X . c P 1.3.6.L . @ dXT.  f |.{.{.{.=X:X7X;X4X3XZXHXHXyX# v     P 2.1./ @ . = E M.r.r.f.0.0.B 7.r.S.d.D ",
"h.r.t.t.w.w.R G 8.w.B.A.8 + @ @ @ @ # @ . c pX3.  f `.}.}.|.=X2X2XwX0X1XvXKXHXCXs . o   @ @ @ .     E L.U 7.h.F 9.9.0.a.i.i.w.f.",
"v.a.y.d.x.d.V.R Y s.t.B.L.7   . . . . @ 3 T.~.P . 1 ( _ h ( ' X.o.X.+.[ >.[.IXDXw               $ I I.J.7.y.r.D.c.f.B r.i.r.s.b.",
"d.8.r.b.d.8.V.k.s.d.F r.I.! =         @ 3.pX1.@ , f O O O ; ; ; ; O O O     >.LXt           X % E A.i.p.h.F V.d.t.S.B.p.B.U s.c.",
"n.y.t.d.a.y.a.B.h.t.t.D.d.G.~ 9       . 5 L O f $.h : O o O O o ; ; o o X   ,.LXs   .     X 0 W M.h.v.d.d.s.t.s.t.t.p.p.p.i.S.s.",
"q.x.g.B.y.l.l.a.y.V.t.h.y.f.H.Q m $     .   f @.}.h : : : ; o o o o o o O   ,.PXx     X 9 C L.V.i.y.v.y.d.h.d.d.d.D.h.p.B.a.s.x.",
"w.c.V.H.w.s.c.7.w.n.t.a.a.a.D.G.I.T n X   O { }.|.| ( ( ' ' ] > o   : h ' ] &XJXz   y I H.H.k.h.v.8.y.8.j.V.K.d.w.x.y.i.v.y.y.y.",
"q.w.s.H.f.0.x.s.x.d.7.F a.p.B.g.h.V.C.E $ O ).|.{.{.}.}.oX<X&X< o o p '.6X1XSXJXx X P.V.G c.k.d.y.D 8.g.h.h.f.q.9.9.y.d.d.8.G D ",
"c.0.F g.f.w.s.s.f.H 7.8.a.z.r.t.i.k.Y C.9 : ].XX{.|.{.XX=XbXxXO   o g #X1XcXGXPXx   ! s.y.v.F h.r.H y.b.r.t.8.x.0.y.d.p.t.8.F F ",
"F.e.i.r.q.q.w.8.G t.s.7.x.F.8.Y M.V.d.Q = > >X-XXX{.{.OX0XbXvX1   o g 6XcXZXHXPXz X Q c.a.r.r.U i.F 8.F.h.r.F x.q.s.t.H d.t.H t.",
"n.b.p.u.z.e.9.8.G h.g.D v.J.D.g.Y 8.y.i.= > >X4X-X*X.X*X3XnXSX-   o ) &XcXAXKXPXs $ T f.d.G F p.d.y.q.n.D.h.8.a.y.h.Y U g.s.F h.",
"f.j.r.F y.a.v.a.Y s.r.t.F.V.G.Q Q m.B.L.= : oXwX-X=X.XOX3XnXIX=   o g <XzXAXKXDXs   ~ Q H.H.R t.Y 8.q.c.v.a.7.y.y.d.B.g.t.Y y.F.",
"d.x.0.e.x.a.n.7.B Y r.S.! 9 = & = % = -   i #XwX4X;XXXOX3XnXSX+   o ) &XvXHXKXPXz   $ & & m ! S G f.s.s.B.p.r.S.h.D.t.H G y.s.f.",
"B.y.0.9.8.a.r.F r.i.D.W 7   X o , : u u : a '.oXoX]._.].+XlXrX    o i [.uXlXlXiX+ X X o   X m A.V.f.s.8.i.r.i.p.t.t.7.H t.j.h.B ",
"m.r.G s.8.s.U T U d.C.m $ h  X_.].oXoXoX].' > ; u ; O X < ; o       o o O   .     o _ @._ X X C F.a.r.i.t.U p.t.i.r.r.t.r.d.d.i.",
"m.u.t.k.j.k.Z.i.t.h.C.% $  X=X.X=X0X4X-XoX[ ; X , > * o   .                       O  . X+X` X N m.a.S.J.h.t.d.p.p.p.i.r.g.t.U J.",
"h.t.i.B.D.i.p.p.y.G ~ $ f $X=X.X*X8X8X-X Xg O ,  .@.] * o .   . .     +           o [  X$XX.  m u.r.f.f.y.G d.b.y.x.g.G s.8.t.D.",
"D.Y r.h.y.p.a.h.s.G.=.$ O +X%X_.XX=X=XOX' > g | oX).h o + z 4 5 5 4 2 9 < 1         f  .X.1 X E A.h.j.f.f.8.d.d.w.d.s.f.s.y.h.f.",
"D.h.p.x.y.f.v.f.C.I l + o g %X X}.).].].u u #X,X2X_.; 2 fXmXsXE.^.!.Y.>.O.O.p     o     * X r P.C.V.J.D.V.V.f.t.s.d.w.j.f.8.h.h.",
"8.n.v.h.d.p.Z.A 7       . z $.' ( _ ( > > u >X5X2X..; &.KXBXjX/.W.^.Y.$.}.).d   o . 6 -   $ Z E A M C M I ~ I.C.g.J.t.y.j.s.h.t.",
"9.x.p.S.z.Y L.8 X       3 tX*.X O o : o   : #X3X3XO.O s IXFXjX^.W.^.Y.$.@.h X X   . 5.3.  X   + $ o         $ M P.Q m.p.l.a.r.F ",
"j.y.T T F.C.E   w O O   # 6 - .           o g ].OXo.a   z mXFXaXQ.(.Y.-.V : o     . 6 6   : j } &.&.&.&.&.*.t X 0 =.Z.B.r.7.7.B ",
"U.I $ $ r =.l   } ,     .     o X . : O   X   p _.|...: ; l hXmXgXsXiXA X X o       . . o p &XcXHXLXKXKXKXKXLXrX  $ I N.U y.7.7.",
"U.9 q ` X   * d #.> o @X,.  # L - O h ` o     p |.XX#X'.<   w L L ;.-.8 . o o   o   . O o h  X9XAXGXGXHXHXHXHXKXfX7 $ M C.y.B z.",
";.O `.1X[.a u ] '.p   hXtX@ 4.pX;.X q $.d ; : p O.|.oX%X .: O X o X $ $ X X O           , | }.2XcXbXbXbXbXbXnXnXAXSXz   M k.d.q.",
"m : '.oX) X.'.<XcX@Xj X . 6.E.c z Z _ [ ` [ ` ] | O.O.O.+.` ] ] } ] _ ` ` V ` j o       ` `.| oX0X-X5X2X2X5X3XwXeXcXvX} X I d.b.",
"l O #X].u ) <XcXvXuX:.  4 pXP # w %.$.X.#.X.+.@.@.O.o.@.X.@.+.#.+.$.#.X.X.>.#.X.*     X j ] > ..qX;X-X4XqX7X:X;X2X6XvXSXX 0 I.r.",
"t O $Xo.< ) '.' d 1 X   3 !.P @ X : , < < < p p 1 1 1 < < a p p p < i a 1 < i > X   j * ; > > @.4X;X4X;X7X7X7X7X5X,XbXSXX 0 C.i.",
"z o #XO.i ) ) o X = + . 4 !.R.3 .   X X X O o ; * * * X O O > , , > ; ; O o o ;   : $.`.p < h oX2X7X;X4X;X;X;X;X2X1XnX>.+ K k.J.",
"l $ +. X[ d -   C ! ~ K # P ~.~.3.+ r ;.X X o : [ [ } 1 X g  ... .} j O < } < ; o ;  .#X#X`.).%XcX3X2X2X-X4X-X5XeXZX@XX 0 ^ Y D.",
"C X V [ d     C I.r.g.I.K X P R.L . I G.9 o u ) ]. X[ p ; ] oXXX}.@.f ; ( '.] a o : < h #X$X].9XZXcXcX9X9XeXcXnXAX@XX % W g.j.w.",
";.7 $ X X X n Q y.x.r.D.V.I     . m H.;.& X [.<X1Xo.: o ; #.,X,X Xp o O ( <X1X[.>   X O f $.`.<XGXGXAXAXAXAXJXKX:.. $ W Z.r.d.x.",
"G.! 0 0 8 M I.y.e.x.8.h.v.M.I 0 n A.! K   ; } [.#.g O ; o } [.'.} X O X p #.>.X.,   y e X : ) :.@XyXyXyXyX@XrXz   O A L.m.l.a.z.",
"R C.P.P.I.h.v.z.e.d.s.H D f.G.G.Z.P.0 . . o ; u ; O   $   . * X     X   o ; > ; . X U.=.E = X X X . X . X * X   X A U.T S.p.9.B ",
"j.k.F y.j.d.9.a.v.g.Q Y 8.q.f.G h.C.0       k a > . $ b A b b 0 r =   o o ; < q O $ -.A.M.M.b 0 0 r r r n r 0 b T L.i.V.s.8.B 0.",
"J.8.0.0.x.q.7.y.p.U T Y c.c.8.G t.P.y       [.>.X $ E Z.u.D.M.G.P.=.&   o o k X.X X ! B.y.9.v.h.j.Q g.U.G.N.k.F.B.r.t.8.w.8.B 8.",
"J.v.9.7.w.f.8.F B S.m.S n.n.z.t.H G.0   .   j j $ =.I.M.Y Y j.j.Y T W % X   * w   X Q i.V.r.D 8.p.r.t.F.D.Y t.t.h.8.w.G s.s.G h.",
"f.f.a.D 8.s.j.s.r.a.u.r.n.v.h.i.Q P.e o     X X I I.J.j.T R s.d.t.u.W W =       . X T m.R t.y.a.a.a.B.D.S.y.F y.8.d.w.G w.R t.V.",
"s.f.i.t.j.h.H.8.F B u.l.v.v.i.m.W 0 $   X   $ E J.h.j.f.Y k.g.d.D.F r.m.E X       $ L.p.V.H.H B r.y.h.p.S.h.7.d.8.c.s.G F 8.h.B.",
"h.p.U B.h.j.g.G G Y B.p.8.y.i.N.m $ X O o X E I.s.D s.s.R V.f.d.G H U T U.m   .   X C m.G.H F u.g.h.t.i.h.r.p.d.d.y.8.D F p.h.r.",
"s.r.r.i.r.7.U Y Y k.h.t.F y.8.C.m X 1 V ` q C G.Y t.g.Y t.t.t.a.y.r.F D.Q ! - X f V q 8 N M.H r.j.d.G s.t.U a.u.a.r.r.F d.B.u.r.",
"d.8.i.i.y.d.y.Y Y g.g.g.c.h.G k.M $ 8 %.$.q 7 g.g.D.p.r.r.i.t.d.8.B t.g.G Z.C $ q  .%.8 b V.7.t.d.7.j.v.t.t.r.p.r.S.r.B B.p.S F.",
"f.y.i.B.x.x.v.8.w.8.D s.D.j.7.i.C.A b e 7 e I t.z.n.s.y.h.D.d.b.y.9.B.Y Y M.G.I N b b 0 T d.r.d.7.8.v.S.t.i.g.V.g.D.y.9.8.0.9.F.",
"q.s.T D.9.8.q.d.q.w.0.s.b.d.r.r.A.P.=.=.=.L.Q 7.e.e.9.8.Y V.i.y.z.9.h.i.i.V.h.v.m.L.L.C.k.g.h.p.7.z.y.p.i.t.g.V.t.t.8.x.9.0.c.q."
};
