/* XPM */
static char *_44e4f4a9e4d469aa1c6f64b0925f4528W6te7UnZspHk4Za[] = {
/* columns rows colors chars-per-pixel */
"64 64 209 2 ",
"   c #010000",
".  c #0A0101",
"X  c #010409",
"o  c #010A0E",
"O  c #0B0B0B",
"+  c #140802",
"@  c #000613",
"#  c #000C13",
"$  c #001619",
"%  c gray10",
"&  c #281A0D",
"*  c #021B23",
"=  c #08232B",
"-  c #102229",
";  c #052A36",
":  c #073638",
">  c #143539",
",  c #232323",
"<  c #2D2D2D",
"1  c #33302E",
"2  c #373737",
"3  c #61401E",
"4  c #56493A",
"5  c #6C4627",
"6  c #7A5634",
"7  c #073E46",
"8  c #193944",
"9  c #094449",
"0  c #054C53",
"q  c #0A4F54",
"w  c #154E5B",
"e  c #03555B",
"r  c #085359",
"t  c #2F4D56",
"y  c #015C63",
"u  c #035D67",
"i  c #1F5A6C",
"p  c #2F5969",
"a  c #006467",
"s  c #01636C",
"d  c #096473",
"f  c #016A74",
"g  c #036E7C",
"h  c #116B73",
"j  c #037479",
"k  c #02727C",
"l  c #236B78",
"z  c #555555",
"x  c #555658",
"c  c #5C5D5D",
"v  c #527B7B",
"b  c #6D6B6A",
"n  c #777777",
"m  c #87592E",
"M  c #825B37",
"N  c #9B642E",
"B  c #8F6D3F",
"V  c #9B6431",
"C  c #AD6F2F",
"Z  c #B16F30",
"A  c #AD7134",
"S  c #B47233",
"D  c #B97535",
"F  c #C47B37",
"G  c #AB7746",
"H  c #827A75",
"J  c #CA823B",
"K  c #D2853B",
"L  c #D6883C",
"P  c #E8903E",
"I  c #AF8E58",
"U  c #AE985F",
"Y  c #948F60",
"T  c #D88B41",
"R  c #CF8E55",
"E  c #E49442",
"W  c #F19642",
"Q  c #F49A45",
"!  c #FA9F46",
"~  c #F49B49",
"^  c #FB9F48",
"/  c #EA9E56",
"(  c #FBA047",
")  c #FBA04A",
"_  c #F9A656",
"`  c #CC9868",
"'  c #DCA36F",
"]  c #F8AD66",
"[  c #FBB26B",
"{  c #F9B675",
"}  c #017682",
"|  c #027985",
" . c #07768C",
".. c #037D8A",
"X. c #1D7A9A",
"o. c #246887",
"O. c #2A738E",
"+. c #35728A",
"@. c #257395",
"#. c #25769B",
"$. c #247A9B",
"%. c #267BA3",
"&. c #03828D",
"*. c #0A8389",
"=. c #148387",
"-. c #018693",
";. c #018895",
":. c #0B8994",
">. c #028B9B",
",. c #0A8BA2",
"<. c #178BA8",
"1. c #0991A5",
"2. c #0A94AB",
"3. c #1E88B0",
"4. c #1599B6",
"5. c #2483AB",
"6. c #2789B5",
"7. c #2989B5",
"8. c #2491B8",
"9. c #3398BA",
"0. c #46869A",
"q. c #4FAAB5",
"w. c #64B6BC",
"e. c #1A9EC2",
"r. c #2896C5",
"t. c #2C9BCC",
"y. c #309CCE",
"u. c #349DD2",
"i. c #18A1C4",
"p. c #1EA5CB",
"a. c #2CA1D2",
"s. c #22ABD5",
"d. c #2FA5DC",
"f. c #26AEDB",
"g. c #2DAADC",
"h. c #33A5D6",
"j. c #31A5DB",
"k. c #31A8DC",
"l. c #31AEE1",
"z. c #2CB2E2",
"x. c #2EB9EC",
"c. c #32B3E7",
"v. c #32B5EC",
"b. c #31B9EF",
"n. c #34BAF2",
"m. c #37BAF4",
"M. c #37BFFA",
"N. c #39BFFB",
"B. c #4FAFCF",
"V. c #68BEE3",
"C. c #37C0FB",
"Z. c #39C0FC",
"A. c #7AC5D3",
"S. c #42C2FA",
"D. c #4AC5F9",
"F. c #57CBFA",
"G. c #60CDFC",
"H. c #6BCEFD",
"J. c #69D1F8",
"K. c #77D2FC",
"L. c #878787",
"P. c #8F9090",
"I. c #9A9A9A",
"U. c #96A4A7",
"Y. c #A4A4A4",
"T. c #B1AEAB",
"R. c #B5B5B4",
"E. c #B9BBBB",
"W. c #D3B394",
"Q. c #EEBC8E",
"!. c #FDCA98",
"~. c #DDC8B2",
"^. c #FBD1A9",
"/. c #F8D8B9",
"(. c #91BDD1",
"). c #95CBDB",
"_. c #B4CAD2",
"`. c #8BD9FA",
"'. c #94DDFD",
"]. c #A7E1FC",
"[. c #B2E7FD",
"{. c #BEE9FB",
"}. c #C5C4C5",
"|. c #CBC9CB",
" X c #D0D2D2",
".X c #DCDCDC",
"XX c #EDD9C5",
"oX c #F9DFC6",
"OX c #FEE4CB",
"+X c #EFE4D9",
"@X c #FDEBD9",
"#X c #E4DEE1",
"$X c #C5E6F7",
"%X c #C2EBFD",
"&X c #D5E9F2",
"*X c #D8EEF9",
"=X c #E2E2E3",
"-X c #EFEFEF",
";X c #F8EEE5",
":X c #EDF1EC",
">X c #FDF3E9",
",X c #E9F5FB",
"<X c #EAF6FE",
"1X c #ECF9FF",
"2X c #F3F3F3",
"3X c #F8F7F4",
"4X c #FEF9F2",
"5X c #F3FAFC",
"6X c #FEFEFE",
/* pixels */
"-X-X6X-X-X6X-X-X6X-X-X6X2X-X6X6X-X6X6X-X6X6X-X6X6X-X-X6X-X-X6X-X-X6X-X-X6X-X-X6X6X-X6X6X-X6X6X-X6X6X-X2X6X-X-X6X-X-X6X-X-X6X-X-X",
"2X-X6X-X-X6X-X-X6X-X-X6X2X-X6X6X-X6X6X-X6X6X2X6X6X-X-X6X-X-X6X-X-X6X-X2X6X-X-X6X6X-X6X6X-X6X6X2X6X6X-X2X6X2X-X6X-X-X6X-X-X6X-X-X",
"6X6X-X6X6X-X6X6X-X6X6X-X2X6X-X-X6X2X-X6X-X-X6X-X-X6X6X-X6X6X-X6X6X-X6X6X-X6X6X-X-X6X-X-X6X-X-X6X-X-X6X6X-X6X6X-X6X6X-X6X6X-X6X6X",
"-X-X6X-X-X6X-X-X6X-X-X6X2X-X6X6X-X6X6X-X6X6X-X6X6X-X-X6X-X-X6X-X-X6X-X-X6X-X-X6X6X-X6X6X-X6X6X-X6X6X-X2X6X-X-X6X-X-X6X-X-X6X-X-X",
"2X-X6X2X-X6X-X-X6X-X-X6X2X-X6X6X        b 6X-X6X6X-X-X6X-X2X6X-X-X6X-X-X6X-X-X6X6X-X        6X-X6X6X-X2X6X2X2X6X-X-X6X2X2X6X-X-X",
"6X6X-X6X6X-X6X6X-X6X6X-X6X6X      .       -X6X-X-X6X6X-X6X6X2X6X6X2X6X6X2X6X6X-X-X    X         -X-X6X6X-X6X6X-X6X6X-X6X6X-X6X6X",
"-X-X6X-X-X6X-X-X6X-X-X6XR.    . K P / R     -X6X6X-X-X6X-X-X6X-X-X6X-X-X6X2X-X6X    @ ` 1           -X2X6X-X2X6X-X-X6X-X-X6X-X-X",
"-X-X6X-X-X6X-X-X6X-X-XL.    3 / Q.^./.H   I.-X6X6X2X-X6X-X-X6X-X-X6X-X-X6X-X-X6X2X    6 /.T.          2X6X-X-X6X-X-X6X-X-X6X-X2X",
"6X6X-X6X6X-X6X6X-X6Xz     C { OX4X-Xz   .X-X6X2X-X6X6X-X6X6X-X6X6X-X6X6X-X6X6X2X-X-X    I oX;X}.z     O -X6X6X-X6X6X-X6X6X-X6X6X",
"6X6X-X6X6X-X6X6X-X6X    S { @X6X-X,   6X-X-X6X-X-X6X6X-X6X6X-X6X6X-X6X6X-X6X6X-X-X6X=X  X R /.6X2XY.    R.6X6X-X6X6X-X6X6X2X6X6X",
"2X-X6X-X-X6X-X-X6X    6 _ OX6X6XY.  6X-X6X6X-X6X6X-X-X6X2X-X6X-X-X6X2X-X6X-X-X6X6X-X6X2   . _ @X6X2XY.    2X2X6X-X-X6X-X-X6X-X-X",
"6X6X-X6X6X-X6X6X-X    J { >X6X6X%   -X6X-X-X6X-X2X6X6X-X6X6X-X6X6X-X6X6X-X6X6X-X-X6X2X2X    ~ ^.6X6X-X    6X6X-X6X6X2X6X6X2X6X6X",
"6X6X-X6X6X-X6X6X-X    T { 4X6X6X%   -X6X-X-X6X-X-X6X6X-X6X6X-X6X6X-X6X6X-X6X6X-X-X6X-X-X    Q !.6X6X-X    6X6X-X6X6X-X6X6X-X6X6X",
"-X-X6X-X-X6X-X-X6X    T { 4X6X6X%   2 -X6X6X2X6X6X-X-X6X-X-X6X-X-X6X-X-X6X-X-X6X6X-X6X6X    Q Q.4X6X-X    -X-X6X-X-X6X-X-X6X-X2X",
"6X6X2X6X6X-X6X6X2X    L [ >X6X5Xc .   6X2X-X6X2X-X6X6X-X6X6X-X6X6X-X6X6X2X6X6X-X2X6X-X    . ~ _ /.6X-X    6X6X-X6X6X-X6X6X-X6X6X",
"6X6X-X6X6X-X6X6X-X    L _ /.4X6X~..     -X-Xn                               6X-X-X2X    . D ( ) [ @X-X    6X6X-X6X6X-X6X6X-X6X6X",
"-X-X6X-X-X6X-X-X6X    F ( [ @X6X@X' .                                         .         m Q ^ ( ) !.XX    -X2X6X-X-X6X2X-X6X-X-X",
"-X-X6X-X-X6X-X-X6X    6 Q ^ [ OX6X@X`       I.Y.    f g  .r.a.a.a.B._. X_.B.    z I.    J ! ^ ( ( _ G     -X-X6X-X-X6X-X-X6X-X-X",
"6X6X-X6X6X-X6X6X2X<     D ~ ) ] ^.@X^.G     .XR.  X -.;.>.f.C.C.N.Z.].5X6X*Xp . H ~.    P ! ^ ! ! F       6X6X-X6X6X-X6X6X-X6X6X",
"-X-X6X-X-X6X-X-X6X-X      Z Q ( ) ] [ T     .XR.  X &.;.;.4.n.C.Z.Z.D.'.1X6X$Xo   R     E ! ! Q F X     6X-X2X6X-X-X6X-X-X6X-X-X",
"-X-X6X2X-X6X-X-X6X-X-X      + C S D D m     Q.I.  X -.;.;.>.f.N.Z.N.Z.D.%X6X1XK.  5 .   m S S m   .   2X6X-X-X6X-X-X6X-X-X6X-X-X",
"6X6X-X6X6X-X6X6X-X6X6X-X                  . Q D     &.;.;.;.4.m.N.N.N.N.'.6X6X$X                    3X6X-X6X6X2X6X6X-X6X6X2X6X6X",
"6X2X2X2X6X2X2X6X2X3X6X2X3X                L Q B   o r e e e d #.#.#.#.%.0.U..X-X                  2X6X2X2X6X2X2X2X6X2X6X6X2X6X2X",
"-X-X6X-X-X6X-X-X6X-X-X6X2X2X            C ~ A .   :                         P.-X                6X6X-X2X6X2X-X6X-X-X6X-X-X6X-X-X",
"6X6X2X6X6X2X6X6X-X6X6X-X3X6X-X          + 4   $ k 0                         P.-X              6X-X-X6X6X-X6X6X-X6X6X-X6X6X-X6X6X",
"6X6X-X6X6X-X6X6X-X6X6X-X6X6X-X-X%           * &.-.9       .                 L.-X          -X2X6X-X-X6X2X2X6X6X-X6X6X-X6X6X2X6X6X",
"-X-X6X-X-X6X-X-X6X-X-X6X2X-X6X6X-X6X        k -.;.u ; 9 q i l         9 w l (.-X    2 6X-X6X6X-X6X6X-X2X6X-X-X6X-X-X6X-X2X6X-X-X",
"6X6X-X6X6X-X6X6X2X6X6X-X3X6X-X-X6X-X-X6X    k -.;.;.&.;.4.n.k.        ,.l.S.[.-X    -X-X6X-X-X6X-X-X6X6X-X6X6X-X6X6X-X6X6X-X6X6X",
"6X6X-X6X6X-X6X6X-X6X6X2X3X6X-X-X6X-X-X6X    <.1.-.;.>.4.x.G.)..       g.D.`.<X-X    -X2X6X-X-X6X-X-X6X6X-X6X6X-X6X6X-X6X6X-X6X6X",
"-X2X6X-X-X6X-X-X6X-X-X6X2X-X6X6X2X6X6X-X    d.z.4.;.;.p.Z.[.#X        v.K.1X6X-X    6X6X-X6X6X-X6X6X-X2X6X-X2X6X-X-X6X-X-X6X-X-X",
"-X2X6X-X-X6X-X-X6X-X-X6X2X-X6X6X-X6X6X-X    k.M.b.4.;.p.S.%X=X        b.`.6X6X-X    6X6X-X6X6X-X6X6X-X2X6X-X-X6X-X2X6X-X-X6X-X-X",
"6X6X-X6X6X-X6X6X-X6X6X-X6X6X-X-X6X-X-X6X    k.N.Z.f.>.p.S.%X=X        n.`.6X6X-X    -X-X6X-X-X6X-X-X6X6X-X6X6X-X6X6X-X6X6X-X6X6X",
"-X-X6X-X-X6X-X-X6X-X-X6X3X                  d.M.C.z.,.p.S.%X=X        n.'.5X6X-X          % 6X2X6X6X-X2X6X-X2X6X-X-X6X2X-X6X-X-X",
"-X-X6X-X2X6X-X-X6X-X-X6X    .               6.t.a.6.} <.h.(.Y.        7.(. X XR.            x -X6X6X-X2X6X-X2X6X-X-X6X-X-X6X-X-X",
"6X6X-X6X6X-X6X6X-X6X6XO   o <.} <.h.j.t...d   X         .                           y k e     }.-X-X6X6X-X6X6X-X6X6X-X6X6X-X6X6X",
"2X-X6X-X-X6X-X-X6X-X-X    r.s.;.p.C.M.n.1.g         .                               g >.1.w   < 6X6X-X2X6X-X2X6X-X-X6X-X-X6X-X2X",
"-X-X6X-X-X6X-X-X6X-X-X    c.s.;.i.M.M.b.2.o     k | f                               k 1.z.o.  < 6X6X2X2X6X-X-X6X-X-X6X-X-X6X-X2X",
"6X6X-X6X6X-X6X6X-X6X6X    u.f.>.1.s.s.p.h     7 2.:.X                               7 h @..   6X-X-X6X2X-X6X6X-X6X6X-X6X6X-X6X6X",
"6X6X-X6X6X-X6X6X-X6X}.    * g.2.;.;.>....   a.m.n.O.    |.+X] P W P Y *.&.|                   6X-X-X6X6X-X6X6X-X6X6X-X6X6X-X6X6X",
"2X-X6X-X-X6X2X-X            v i q 0 0       d.M.M.O.  b 5X6X^.^ ( ) U :.-.&.X         X   O 6X-X6X6X-X2X6X2X2X6X-X2X6X-X2X6X-X-X",
"6X6X-X6X6X-X6X            L M               a.N.M.O.  . .X6XOX_ ) ^ U :...>         D Z                       Y.6X6X-X6X6X-X6X6X",
"6X6X-X6X6X2X6X  :       X +                 @ X.e.-.      =X;X{ ) ) U =.r           . &     8 t c x x z , O       6X-X6X6X2X6X6X",
"-X-X      6XX   f .   . .             .         ..&.g .     .XOX[ ^ U h                     l.`.6X6X5X6X6X6X6X.X    6X2X2X6X-X-X",
"6X  - ;         k .   E.<     m .   =.j         ..1.p.3.        4 W.U                     # 4.A.5X6X6X6X6X6X6X6X-X    =X6X-X6X6X",
"6X  5.m.7.. X y | .   2X2X  F Q Z .   :.    .   } <.l.k.#.                              . j ;.B.`.'.].].[.[.{.*X,X5XO   }.-X6X6X",
".X  t.y.X O.7.w.).9.9 X   S T . > y h j a a y s g j  ...k y y y u u y y y y y q         e &.j a.Z.Z.Z.C.Z.Z.Z.D.F.J.*X    6X-X-X",
"X   j.$.  = v.).&XV.5.    E V   $ | | | } ..| | | | | | | | | | | | | ..| | | f .       9 y   #.M.Z.C.C.Z.C.C.C.M.M.`.2X    -X2X",
"    k.@.  ; ,.*           E N     .                         .                       8         X.M.Z.C.Z.C.Z.C.M.M.M.K.5X    6X6X",
"    t.$.  : 0             E K                                                       4.5.    X <.N.Z.N.Z.C.C.C.M.M.D.].%   6X-X-X",
"%   | -.f :     6X-X-X6X  V Q P D     2X        s k g     9 g k k g 9     s       . } 4.k.8.&.q.`.N.Z.Z.C.M.C.Z.H.{.E.    6X-X-X",
"6X  0 s       L.-X6X6X-X3X  N F 3   2X6X      $ 1.;.f     s 1.1.>.k :   @ 1.w         = u.f.>.A.1X'.G.G.G.G.H.].*XP.    6X-X6X6X",
"-X            -X6X-X-X6X2X=X  .     6X-X    6.c.b.O.      $.b.b.r.      $ x.x.t.        . ,.;.w.2X6X<X<X<X1X5X6XX     2X-X6X-X-X",
"-X-X      2X-X-X6X-X-X6X2X-X6X    6X6X2X    o.7.%.@       +.7.7.i         5.7.@.            q l U.R.R.R.R.R.R.      2X2X-X6X2X-X",
"6X6X-X6X6X2X6X6X-X6X6X-X6X6X-X-X6X-X                                                -X-X6X                      X 2X2X6X6X-X6X6X",
"6X6X-X6X6X-X6X6X-X6X6X2X3X6X-X-X6X-X        .         c 6XO                         -X-X6X-XX                   6X6X-X6X6X2X6X6X",
"-X-X6X2X-X6X2X-X6X-X-X6X2X-X6X6X-X6X      . r.%.    -X6X-X-X6X-X-X6X        : k .   6X6X-X6X6X-X6X6X2X2X6X-X2X6X-X-X6X-X-X6X-X-X",
"6X6X-X6X6X-X6X6X-X6X6X-X2X6X-X-X6X-X        = t   6X6X-X6X6X-X6X6X-X6X        =     -X-X6X-X-X6X-X-X6X2X-X6X6X-X6X6X-X6X6X-X6X6X",
"6X6X-X6X6X-X6X6X-X6X6X2X6X6X-X-X6X-X            -X6X6X-X6X6X-X6X6X-X6X6X            -X-X6X-X-X6X-X2X6X6X-X6X6X2X6X6X-X6X6X-X6X6X",
"2X-X6X-X-X6X-X-X6X-X-X6X2X2X6X6X-XX           6X6X-X-X6X-X2X6X2X-X6X2X-X6X          6X6X-X6X6X-X6X6X-X2X6X-X2X6X-X-X6X-X-X6X-X-X",
"6X2X2X6X2X2X6X2X2X6X2X2X2X2X2X2X<           3X3X2X2X2X2X6X2X2X3X2X2X2X6X2Xc         5X2X3X3X2X6X6X2X2X6X2X2X2X2X3X3X2X6X3X2X2X6X",
"6X6X-X6X6X-X6X6X-X6X6X-X6X6X-X-X<     e e   |.-X2X6X6X-X6X6X-X6X6X-X6X6X2X6X    - q o   }.-X-X6X-X-X6X3X-X6X6X-X6X6X2X6X6X2X6X6X",
"-X-X6X-X-X6X-X-X6X2X-X6X2X-X6X6Xn   $ } ..0   6X6X-X2X6X-X-X6X-X-X6X2X-X6X-X,   8 j j 0   6X6X-X6X6X-X2X6X-X2X6X-X-X6X-X-X6X-X-X",
"-X-X6X-X2X6X-X-X6X-X-X6X2X-X6X6X-X6X    X   -X6X6X-X-X6X-X2X6X-X-X6X-X-X6X-X2X6X:X  . X -X6X6X-X6X6X-X2X6X-X2X6X-X-X6X-X-X6X-X-X",
"6X6X-X6X6X-X6X6X-X6X6X-X3X6X2X-X6X2X-X6X-X-X6X-X-X6X6X-X6X6X-X6X6X-X6X6X-X6X6X-X-X6X-X-X6X-X-X6X-X-X6X6X-X6X6X-X6X6X-X6X6X-X6X6X"
};
