/* XPM */
static char *_04c1ff9c976403e98b1543e13c95798utHkVzX6OMNbWKWz[] = {
/* columns rows colors chars-per-pixel */
"64 64 256 2 ",
"   c #020203",
".  c #0B0202",
"X  c #010A04",
"o  c #01040B",
"O  c #010B0C",
"+  c #0C0C0C",
"@  c #0B0806",
"#  c #130200",
"$  c #1B0300",
"%  c #1C0B01",
"&  c #130C07",
"*  c #01130C",
"=  c #0B1507",
"-  c #181307",
";  c #000512",
":  c #010B13",
">  c #0B0D13",
",  c #000D1A",
"<  c #0B0A1A",
"1  c #001214",
"2  c #0C1214",
"3  c #00131C",
"4  c #01191C",
"5  c #0A1619",
"6  c #141518",
"7  c #170E19",
"8  c #250901",
"9  c #291706",
"0  c #391701",
"q  c #231816",
"w  c #0F211A",
"e  c #010E21",
"r  c #0C0F20",
"t  c #001423",
"y  c #011B23",
"u  c #00152A",
"i  c #001B2B",
"p  c #0B1723",
"a  c #161C28",
"s  c #001634",
"d  c #181D34",
"f  c #00222C",
"g  c #062427",
"h  c #15232C",
"j  c #1B242D",
"k  c #1B282A",
"l  c #052839",
"z  c #152332",
"x  c #1B2434",
"c  c #1C2A35",
"v  c #1D2B3B",
"b  c #1A2838",
"n  c #1B323A",
"m  c #06393A",
"M  c #25292B",
"N  c #222C34",
"B  c #232C3C",
"V  c #272837",
"C  c #24323D",
"Z  c #2A333C",
"A  c #293538",
"S  c #34373B",
"D  c #332D35",
"F  c #231E22",
"G  c #4B3D30",
"H  c #39483A",
"J  c #564834",
"K  c #735439",
"L  c #7F6439",
"P  c #1C3844",
"I  c #0E3343",
"U  c #242D42",
"Y  c #292E42",
"T  c #253343",
"R  c #2B3444",
"E  c #2C3A45",
"W  c #2C364A",
"Q  c #2D3B4B",
"!  c #263749",
"~  c #323B44",
"^  c #333C4B",
"/  c #3B3D4C",
"(  c #353846",
")  c #2A3B51",
"_  c #343E52",
"`  c #363B52",
"'  c #433D48",
"]  c #05454B",
"[  c #15484D",
"{  c #184B54",
"}  c #1A535A",
"|  c #074C55",
" . c #2A444B",
".. c #34424C",
"X. c #3B434C",
"o. c #39474A",
"O. c #284954",
"+. c #344353",
"@. c #3B4454",
"#. c #3C4B55",
"$. c #3C465A",
"%. c #3D4B5B",
"&. c #354758",
"*. c #245259",
"=. c #3D535B",
"-. c #27514F",
";. c #155666",
":. c #3C4D62",
">. c #374864",
",. c #255B68",
"<. c #3B5764",
"1. c #2C5E74",
"2. c #196469",
"3. c #1C6A76",
"4. c #106C7A",
"5. c #2A6369",
"6. c #256A76",
"7. c #376D72",
"8. c #41434B",
"9. c #444849",
"0. c #424653",
"q. c #424B55",
"w. c #41465B",
"e. c #434C5C",
"r. c #4A4D5C",
"t. c #4A4C53",
"y. c #43535D",
"u. c #4B535C",
"i. c #495759",
"p. c #53575A",
"a. c #4C534E",
"s. c #6F5D52",
"d. c #796450",
"f. c #434D62",
"g. c #484F65",
"h. c #445363",
"j. c #4A5463",
"k. c #4D5A64",
"l. c #4C5669",
"z. c #4D5C6B",
"x. c #455667",
"c. c #525D6B",
"v. c #555A66",
"b. c #545E72",
"n. c #4C5A70",
"m. c #4E626A",
"M. c #55626D",
"N. c #5A636D",
"B. c #566668",
"V. c #496575",
"C. c #546272",
"Z. c #5B6474",
"A. c #5B6979",
"S. c #4E7376",
"D. c #636B7A",
"F. c #65727E",
"G. c #676C6A",
"H. c #615F64",
"J. c #865C36",
"K. c #936D3C",
"L. c #92704D",
"P. c #A9794D",
"I. c #8A715A",
"U. c #7D8A6C",
"Y. c #B28B59",
"T. c #919379",
"R. c #B89169",
"E. c #B09272",
"W. c #97A37C",
"Q. c #D29556",
"!. c #F3A354",
"~. c #F2A353",
"^. c #C49B6D",
"/. c #D5A56C",
"(. c #E7A965",
"). c #ECAE73",
"_. c #EC9D52",
"`. c #1A788A",
"'. c #0F7388",
"]. c #28788A",
"[. c #277894",
"{. c #3B7995",
"}. c #367187",
"|. c #4D7689",
" X c #697785",
".X c #666E81",
"XX c #058698",
"oX c #15828F",
"OX c #278399",
"+X c #318894",
"@X c #0888A6",
"#X c #158FAC",
"$X c #3998B9",
"%X c #318FAA",
"&X c #36A4BF",
"*X c #4F8495",
"=X c #589AB4",
"-X c #4A92AF",
";X c #6B9BB0",
":X c #51A4BA",
">X c #68AABB",
",X c #7C9399",
"<X c #2E9BC3",
"1X c #1EA4C2",
"2X c #30A8CE",
"3X c #3BBDF5",
"4X c #39BAE9",
"5X c #1E9CC4",
"6X c #4EB1D2",
"7X c #6DBAD5",
"8X c #46BAE8",
"9X c #55BBE7",
"0X c #43BCF4",
"qX c #55AED6",
"wX c #37C2F9",
"eX c #39C1E7",
"rX c #4EC1EF",
"tX c #75CBE9",
"yX c #6BD2EF",
"uX c #919092",
"iX c #92A8AE",
"pX c #AEB2B1",
"aX c #A8A292",
"sX c #D3B290",
"dX c #EBBB8C",
"fX c #C2BAAF",
"gX c #BEC5BE",
"hX c #F6C898",
"jX c #FDDCB9",
"kX c #F0CEAA",
"lX c #E5D2B6",
"zX c #9FBAC7",
"xX c #B1C8D1",
"cX c #9CDCF8",
"vX c #8DCEE8",
"bX c #B1D8E9",
"nX c #94E6FF",
"mX c #A6E6FF",
"MX c #B4EEFC",
"NX c #8AC8D5",
"BX c #D7D8DB",
"VX c #D0D0CE",
"CX c #E6DCD1",
"ZX c #FDE9CA",
"AX c #F8EDD7",
"SX c #D0DDE3",
"DX c #C8FAFF",
"FX c #D9FBFE",
"GX c #CDE3EB",
"HX c #FFF8E7",
"JX c #E4FEFF",
"KX c #EBFAFC",
"LX c #F2FFFF",
"PX c #FCFCF6",
"IX c #E8E8EA",
"UX c #E0DFE4",
/* pixels */
"%.x.e.e.^ Q ..y.j.#.W w.w.f.y.y.Z X.q.#.@.x.%.=.y.#.#.R @.%.:.f.g.h.y.o.y.N #.y.<.x.n ..q.e.+.x.B o.#.%.%.%.x.:.k.%.e.c f.$.$.h.",
"h.h.q.$.` Q h.M..XN.@.$.c.c.#.F.~ j.%.l.C.%.C..Xy.y.N...c.A.$.n.:.f.%.#.#.N 0.z. X XP +.v.e.%.A.B y.e.h.z.=.z.A.c.y.N.R c.C.l.l.",
"..^ R U d b +.%.k.j.C q.$.y.e.M.T ^ %.h.%.%.f.q.q.v.v.~ w.e.g.w.f.@.v T x x E e.:.C.U _ r.f.h.z.c E e.#.%.%.%.h.y.%.b.B #.h.&.%.",
"N x B R d ! e.%.y.h.c ^ q.@.#.u.a x W @.f.%.e.e.q.u.v.N B _ $.^ B B U ! B V ..e.j.b.v D 0.' e.%.j a c #.h.%.%.#.e.y.Z.V T ` +.+.",
"N N _ ) T _ q.%.y.m.C v C ^ Z 9.X X o ; f.$.R W y.b.l.V Q @. .+.W B _ _ $.Y 0.q.%.D.: o o + N ~ j N ( x T %.W ! %.c.Z.B R +.%.^ ",
"..#.z.h.l._ C T #.h.Q @./ M + # - - % + > V R ` e.#.e.W q.z.#.y.M.^ j.c.D.R ~ B _ < > + .   + : p j Z Z v U R W @.w.e.B e.f.h.%.",
"o.$.y.%.e.N B Z R B ~ u.H.@   9 P.R.E.E.$ o D W W ) T ) #.#.i.a.N.E e.j.N.k c C , o - uXG -   o   o M ^ B c T T Q R ^ c %.e.%.f.",
"^ / %.A.e.x N k j h / p.& & J E.hXkXkXI.8 S g.g.A.n.x.T #.#.#.k.N.E 9.u.N.c x z x o . d.fXaXq . o   < k.A.W @.h.z.c.c.B ..e.%.e.",
"b z &.%.=.N S X.N x S & % I.fXZXHXCXs.& r.( R / @.w.w.x v Q +.+.Q z A y.N.c  .! E c   % T.lXCXpXp.+ o 6 @.+.B Q %.%.x.z x W Q ^ ",
"b U P &.h.N c N V M & # I.sXZXHXUXS o j.D.V x B V B V x d z z U T b Z @.A.b z b U ~ 6   8 aXZXHXCXuX> > k...b z v B B d h a h z ",
"d ` +.&.x.@.r.v.p.& # K sXjXAXHXuX& 8.0.Z.E %.C.C.z.y.C W Y U Y z C @.$..XU x.h.c.D.V M . 9 sXZXPXHXuXo > ~ @.z..Xj.C.b E E R T ",
"j ..%.x.h.v W j.r.  % R.dXZXHXHXM . t.u.N.T %.<.=.=.A.z c R x R n ! @.e.n.U U %.z.N.V p.. $ E.kXHXPXUX6   ~ %.e.f.f.A.x a T B R ",
"j ^ h.x.%.Q +.%.q.@ $ R.dXZXPXIXM X 8.y. Xb  .&.%.m.y.c x x B B b T q.e.D.U +.$.q.D.R ' & $ ^.hXHXPXCX2   N E e.%.h.A.c B x B x ",
"/ ( #.x.h...%.l.v.  8 R.dXAXPXIXM   S q.A.P n y.=.=.k.E u.A.v.j.c.k ..p.A.W $.e.c.N.C C . 8 Q.hXZXPXUX-   ~ B ^ h.f.l.T @.c.M.k.",
"/ ..#.#.#.E %.%.@.. 8 Y.hXZXPXLXG.  > 9.v.V e.0.0.0.u.Z ..t.e.q.k.o.9.o.u.N 0.q.0.B.h X . 8 Q.).jXHXCX&   Z ^ %.e.$.c.v ^ h.e...",
"( R T C ..z Q Q B . 8 R.).kXHXPXpX9   & S V / < ; > : O ; : ; ; 3 o   X   : N ~ M ..;   % L.!.!.hXAXCX&   N V ..@.@.@.b R ^ ^ N ",
"r.j.x.y.z.C #.y.q.. 8 P.(.).kXHXZXaX= X @ . 7 < o o : 1 4 u s s u e < < t 1 X X   > o . J._.~.~.(.hXlX%   f.g.c.v.u.~ @.x.x.C.%.",
"r.j.n.%.A.E i.#.z.o $ K _.).hXjXZXZXE.9 . + uXuXO 1 { 5.6.%X-X$X-X=XxXSXxX,X*   a.uX7 $ P.~._.~._./.L.#   f.q.v.q.q.T ! x.C. XZ.",
"f.$.:.h.b.B ~ e.%.R o % L.(.(.(.hXjXhXI.$ q BXpX@ O 6.oXoX2XrXeX4X9XcXFXLXBXu.O G.fX# % Q.~.~.!.Q.P.9   > &.%.R Z A h b +.:.g.g.",
"W $.:.&.$.j a N %.$.,   8 K.Q.(.(.dXhXY.8 q lXaX= 1 `.XXXX#X4XwXwXrX9XcXFXLXVXr - T.$ 8 Q._.!.Q.P.8 . @ ^ T B c V N j Q %.f.w.v.",
"C C T n +.x A S j ..^ ;   $ 0 J.P.L.P.d.# % sXE.@ * 4.XXXXXX2X3XwX3X8XtXDXJXFXiX- J + $ J.P.L.J.8 $ & R q.:.v W #.E ! %.+.#.r.N.",
"#. . .&.m.j M D M M U T < . $ 8 # $ $ $ # 0 ^.L.@ * 3.oXXXXX%X6X8X4X8XqXvXJXKXVX6 .   . % $ 8 $ . # X.c.&.x.+.#.M.u.%.) ! W 8.r.",
"#.=.+.=.V.b B ~ 8.8.V @.Y r         . # 8 Y./.d.  3 ] | ] | ;.6.}.}.}.}.|.iXBXUX=             o + 8.e.%.:.n.....q.j.+.z B B Z D ",
"#.q.#.$..XP &.%.N.v.Z ` h.h.>         $ d.R.L.= 1 b 4 * * * : : ; ; e e : p uXBX6           ; ; d ( %.%.:.b.^ ..y.N.+.d v B a a ",
"#.r.e.w.b.) &.<.:.b.B x  .#.H +         9 J X * 2.[ *   o o o o o o o     * uXBX6           < / d z U ^ Q $.N j ..y.+.P W ` C j ",
"R W 0.r.l.W >.>.x.b.B C C Q Z A 6 *   . . X g 2.`.] : ; , ; ; o o       X 1 uXSX7   o   = D A ^ x d b x c N c Z A ..%.v z T x Z ",
"U Y ( ( ^ c %.f.y.D.N x.x.A.g.D.M M 6 .   : ;.oXoX4.] ] | 1.,.1   o o [ } 7.zXGXp ; D 8.a.G.k.C.v B ^ R R N c ^ ..e.@.Q e.C.c.r.",
"z..X Xb.D.^ #.q.0.N.A ..x.:.l..Xh N S 6 o 4 '.XXXXXX'.oX%X>X;X4     1 }.:X7XGXGX, ; v.' e.y.=.m.x b C N R N N o.q.g.#.T W %.:.k.",
"j.h.l.l.c.x ` w.j.D.A R &.%.h.A.v z B x o t OX#XXX'.@X#X6XyXzXw     3 -X7XcXFXUX5 o p.V %.&.h.D.b x c x b c c ..j.v.@.R +.y.z.m.",
"&.%.%.w.b.V W f.r.v.M c :.:.h.c.! :.C.C.; 3 $X2X#XXX@X1XrXnXbX5     u =XvXMXLXIXO O u.N ` :.%.h.V ^ j.C.k.h.! ^ e.M./ $.h.%.z.x.",
"! %.+.~ j.B W &.+.m.C ..%.f.f.N.B / h..X  3 6X8X4X1X@X1X9XMXMX5   ; u ;XbXFXLXBX=   @.` e.e.f.v.c Z q.h.&.:.+.+.+.$./ Z o.#.&.<.",
"! Q n E X.N Q ) n +.c B @.( / / j Z j.uX6 t $X4XeX2X@X2X7XMXSX= o ; s =XbXKXLXIX=   / ( ( ( @.+.z B ^ ..v Q P v B W W C E R C  .",
"/ @.=.i.x.z.V.n.z.c.$.~ 8.O o       ; < ; u -X8X0X2X#X2X7XMXbX6   o u ;XbXFXLXBX6   o o o a z.C.n f.v.j.u.v.Q %.y.h.l.z.j.l.M.y.",
"` j.i.B.%.b.f.%.#.X.( V 1 X : < * y r e ; s {.$X$XOX4.].-XzXiXX     u S.iXxXVXaX+   1 :   : k. Xn $.g.e.h.M...#.y.=.k.l.j.M.N.=.",
"&._ e.y.q.w.` f.V V V ; o f ].'.OX<X$X%X`.;.t e 3 3 1 O , r o   o   o O * * O O   O | 2.} ; 3 B.P ) :.f.f.j.C A #.=.e.%.:.f.=.%.",
">.U W / ` B V V V ( a ; u |.&X@X5X8X3X8XOX;.t o O O o           .   .           X * 2.`.}.O.: M a v &.:.%.+.c a h ..e.$.f.:.%.=.",
") W +.:.$.>.^ R / 0.' ; u :X<X@X1XeXwX2XOXl ; t 2.2.-.        .       @     X     1 2.+X;X1.O M c T C T B R ~ A ..b T $.W P ^ y.",
"U +.<.n.&.l.:.+.l.u.v.e t *X:X@X@X&X2X<X1.u s | OX`.f o 2 - 8 % 8 - & = 3 3     o   m 5.5.u o ' N o.@.+.Q #.~ a A N U Y T Q #...",
"A  .%.h.q.j.x. .o.t.b.< * f -X+XoX`.[.6.e e -X6X6X[.: 2 gXCXsXQ.Q.Y.U.7.4.;.1     o o ; , o 7 V M 9.f.e.%.n.^ j q.j.$.Y ` @.0.t.",
"E C +.$.y.v.y.C X o < o X w 7.2.| ] [ t o u -X8X8X`.4 G.PXHXhX(.~.(.W.7.oX3.O     o & @   > V Z j ( q.@.$.b.W R e.v.c.` W / r.v.",
") d U U ^ ~ Z O   X     % I.p.* X O :     1 -X6X8X`.; a VXPXjX).~.(.W.7.6.m X     . d.d.X X O O @ . > o : o < u.q.q.e...! ! &.%.",
"V d U v a N F O h o X   # q 8     X o o X X l [.<X'.u , 6 VXAXdX(./.U.U.-.1 X   . . 9 q   X n -.p.p.p.t.D 6 2 6 X q.M.o.! ! O.>.",
"/ M , : o M o : O.t o =   . . &   O 3 1   X o i '.`.1.t o F fXkX/.).W.H 1 X     o   . .   1 -XNXFXIXKXPXIXIXIXpXF X 9.q.0.l.C.:.",
"S * l l p o : 3 ,., p pX9.. 8 K - * <.5.O   X : 4.#X$X{.3   * @ J W.U.=   O X   o o       g +XtXDXJXKXKXKXKXLXLXGXk   o.( w.g.x.",
"S t {.=XV.e s } 7.g w BXgX9 P.R.s.1 g 6.g * 1 y '.@X<X<X6.y O O 4 * 4 * * * : o       o f 2.`.6XnXnXnXcXmXmXmXMXDXMXb O S 9.t.0.",
"q.s %X$XI 1.}.7XNX*X .2 0 L.R.0 D -.} 3.| *.{ ;.4.'.'.`.3.} [ *.-.} { { { O.-. .O     O [ 6.4.$XrX4X9X8X9X9X9X9XtXNXbX5   X.r.e.",
"; t -X[., I >XNXbXiXC.  $ E.L.. = =.5.5.7.5.5.5.2.6.3.2.5.5.,.5.5.5.5.5.5.5.5.-.      : P [ f `.8X4XrX0X0X3XwXrX8X6XcXbXt o / r.",
"o r -X[.e l }.I 4 1 ,   8 R.L.# X 4 1 1 * 4 4 4 y 4 1 4 4 1 i 4 g 4 t i y 3 1 1 X   c 3 3 , 4 ].8X3X3X3XwXwXwXwXrXqXvXGX, ; / ` ",
"  3 +XOXs l ) ; O O o . 8 R.Y.0 #   X *   o o o 1 3 3 o X * 4 , 3 4 : O X *     o : }.[.s s g +X6X0X0X3XwXwXwX4X9X7XvXT ; t.k.m.",
"6 3 3.6.1.l ; > B.i.8.' % d.Q.^.I.@ X 9.o   o : } 5.O.: 1 n ,.3.6.*.n X 1 [ : ; o ; ,.+X=X+X].:XyXyX8X0X4XrX4X9XtXMXiXo < m.i.=.",
"t.O [ { t ; * p.i.=.N 0.X.& d.I.G & o.9.: ; e l [.].} 3 * | %X#X].,.c ; y }.{ s ; o 3 I %X:XOX7XDXcXvXtXtXtXvXmXbXiX, o ^ 9.q.#.",
"D : O 1 : o 2 o.=.=.k ..o.J - # . + M o.o , |.=X>X6.y O 4 7.6X6X+Xy o ; i =X;X|.,   o ; f 6.].>XDXKXDXDXFXDXFXGXB ; ; a Z ^ .. .",
"D / O O O S o. .y.=.Y B V S V @   S D k o , V.|.}.f O X * <.|.{.,.O o o : V.*X7.O   X X O y [ S.iXpXzXpXpXzXiXF o + u.V @.f.:.g.",
"Y @.u.o.9.Z C  .%.%.+.q.+.! w.c.c j 2     o , 3 , : X O 1 4 e u o     O o O y : O   F o.A 5   O 2 o 2 2 2 6 2 o > S e.R j.h.n.:.",
"Q >.w.v.X.k c h h n W w.g.f.g.D.z ..    o o 1 3 o o > q.X.7 ; : , o       X O 1 o : A o.q.o.< 7 o o o o o     1 ..u.%.R &.:.:.>.",
"P ) g.D...c A z b z @.e.w.w.g.D.Y ~ O     > S.m.O : S D 8.0.u.l.j.N       X k o.o o M y.e.g.' D.d ^ t.t.p.V S o.y.x.z.z ^ &.:.x.",
"d U _ f.` V Y / C h b =.#.h.y.N.W X.O     O z ..< ~ E h v Y ^ +.~ h N O X   o a   o h >.>.:.f.b.B q.e.q.i.N C T  .=.%.a z A Z C ",
"d ! W +._ B x x B z z ! ! ..y.k./ / O   X   o p X.u.E z d U x b b b E S 1 o o .   O h b ) >.g.l.Y $.q.j.N.n  .&.x.#.+.z x N k k ",
"c +.+.&.:.$.v..XZ.y.v v E E E S D 7     ; o < q.p.p.o.v W U Q T x W @.0.v.7       X h n U ! R ! B $.%.%.m.! _ l.C.j.b.z C C S E ",
"h ..%.g.+.Y / r.v.f.<.A.A.F.F.N.D   o : ; 3 #.r.y.a.y.x U B n A x ^ $.e.N.8.@   X * k m. X.XC. XV @.y.&.m.T ` f.f.g.Z.U c C N A ",
"c  .y.x._ W @.g.y.z.+.h.j.j.u.D.V : : { [ f +.t.q.i.#. .W ` .. .T U f.g.M.A   o g -.g 3 u.l.j.c.x Q %.h.A.T U f.f.w.A.b  .+. .Q ",
"N E =.h.` 0.g.e.z.y.C %.h.w.0.D.q.: 4 *.5.I e 0.q.y.#.C @.M.y.y.j.U f.v.z.E D ; P <...C p o.y.M.z C +.%.b.B U $.f.h.z.C  .z.x.%.",
"Y ^ $.+.W W $.$.#.@.C +.#.E W A.~ N O 2 1 4 ^ e.f.g.#.T %.#.@.+.e.R @.^ c.d ^ $.Q 3 p 5 o.X.! h.c ^ @.^ r.R / =.$.e.z.C @.e.e.) ",
"d U b B Z d R C n B R A z C W W x S M q M w Z W ` W T z E R c R R C c V R B b W b C c N V N T Q h n C x R x v C ..A S h C R U B "
};
