/* XPM */
static char *_a1a37dd17f54db298c4b0d81b730222BH467yCdJkOGgAuh[] = {
/* columns rows colors chars-per-pixel */
"64 64 194 2 ",
"   c #010101",
".  c #060609",
"X  c #09060A",
"o  c #0B0A0B",
"O  c #0C0C12",
"+  c #180E15",
"@  c #100F18",
"#  c #0C1117",
"$  c #121212",
"%  c #1A1417",
"&  c #12111B",
"*  c #1C1B1B",
"=  c #23151E",
"-  c #21201F",
";  c #161421",
":  c #181725",
">  c #1A1A25",
",  c #121B2C",
"<  c #1C1A2B",
"1  c #131D30",
"2  c #1E1D30",
"3  c #2F1B29",
"4  c #211F32",
"5  c #242323",
"6  c #292829",
"7  c #32352D",
"8  c #222034",
"9  c #292D36",
"0  c #252339",
"q  c #3D2335",
"w  c #3A263A",
"e  c #353434",
"r  c #303A37",
"t  c #3A3836",
"y  c #323C39",
"u  c #3C3B3B",
"i  c #42273B",
"p  c #45283C",
"a  c #462A3D",
"s  c #423F3D",
"d  c #374D22",
"f  c #38443A",
"g  c #3D5133",
"h  c #435C32",
"j  c #466529",
"k  c #49672D",
"l  c #4B692F",
"z  c #4C6A31",
"x  c #526F37",
"c  c #55713B",
"v  c #58743E",
"b  c #1B2A45",
"n  c #3B3C43",
"m  c #4A2C41",
"M  c #4B3D48",
"N  c #3B4343",
"B  c #3E4845",
"V  c #365358",
"C  c #2F4979",
"Z  c #444442",
"A  c #434B4C",
"S  c #4B494A",
"D  c #514E4B",
"F  c #54524E",
"G  c #4B4B51",
"H  c #4B5352",
"J  c #4F5855",
"K  c #4C5459",
"L  c #565453",
"P  c #595652",
"I  c #5C5955",
"U  c #555B5B",
"Y  c #5B5B5A",
"T  c #644C5C",
"R  c #5D7844",
"E  c #637C4A",
"W  c #525B61",
"Q  c #43686E",
"!  c #5D6462",
"~  c #646464",
"^  c #646B69",
"/  c #6A6A6B",
"(  c #646871",
")  c #706B73",
"_  c #6D7472",
"`  c #737475",
"'  c #767876",
"]  c #7B7A7A",
"[  c #837F7F",
"{  c #6C8455",
"}  c #72895C",
"|  c #7C8A74",
" . c #AEA50B",
".. c #DDD626",
"X. c #FAF136",
"o. c #81966E",
"O. c #859A72",
"+. c #8C9F7B",
"@. c #375688",
"#. c #3D6194",
"$. c #3F62A2",
"%. c #425F97",
"&. c #6E7A82",
"*. c #7D7A81",
"=. c #4972A5",
"-. c #466EB5",
";. c #4F7BBA",
":. c #517FCC",
">. c #847E87",
",. c #857F88",
"<. c #5E8D92",
"1. c #77858D",
"2. c #7D8C94",
"3. c #5484C6",
"4. c #58BBD2",
"5. c #5B8DEA",
"6. c #5F99F7",
"7. c #629AE8",
"8. c #639CF4",
"9. c #639BFC",
"0. c #69A6FD",
"q. c #70ADF0",
"w. c #63B9F6",
"e. c #5ECBE3",
"r. c #61D2E9",
"t. c #858585",
"y. c #86818A",
"u. c #88858B",
"i. c #8D8B8B",
"p. c #8B8D91",
"a. c #89939A",
"s. c #949292",
"d. c #A19D9D",
"f. c #94A583",
"g. c #97A987",
"h. c #9BAB8C",
"j. c #A9B79B",
"k. c #8C9CA5",
"l. c #8FA1AA",
"z. c #99A4A8",
"x. c #96A7B1",
"c. c #9AACB6",
"v. c #9CAEB9",
"b. c #9FB1BB",
"n. c #A7A4A4",
"m. c #A7ABAA",
"M. c #AAABAB",
"N. c #B0ACAC",
"B. c #ADBBA2",
"V. c #B1B7AE",
"C. c #A5B3B9",
"Z. c #B8B8B8",
"A. c #C2BEBE",
"S. c #B6C2AB",
"D. c #B8C3AD",
"F. c #BEC8B4",
"G. c #C2CCB9",
"H. c #C7D0BE",
"J. c #A6B8C4",
"K. c #BEBDC3",
"L. c #B7C8CB",
"P. c #BDCCE7",
"I. c #94E3F2",
"U. c #C4C3C3",
"Y. c #CEC6C8",
"T. c #CECBCB",
"R. c #D1CCCD",
"E. c #CDD2C9",
"W. c #D6DCCF",
"Q. c #D3D4D3",
"!. c #D8DDD4",
"~. c #DEDDDC",
"^. c #E5DFDF",
"/. c #DCE1D6",
"(. c #E1E5DC",
"). c #CCDCFC",
"_. c #D3E4F7",
"`. c #E6E1E1",
"'. c #EAE5E5",
"]. c #E5E8E5",
"[. c #EAEDE6",
"{. c #EDEAEA",
"}. c #F1EEEE",
"|. c #EEF1EC",
" X c #F0F2EE",
".X c #F5F3F3",
"XX c #F8F6F6",
"oX c #F9F6F6",
"OX c #F7F8F7",
"+X c #F8F9F7",
"@X c #FAF9F9",
"#X c #FCFCFC",
"$X c #FDFDFD",
"%X c #FEFEFE",
/* pixels */
"y y f y y y y n f y y f n f N r f y y f n f N r f N r N y n f N r f %X%X%X@X%X%X%X%X%X%X%X%X%X%X%X%X%X%X%X%X%X%X%X%X%X!.%X%X%Xt.",
"y y y y y y y y y y y y r r r r y y y y r r r r r r r r y y r r 1.{.%XoX^.^.%X%X%X%X%X%X%X%X%X%X%X%X%X%X%X%X%X%X%X%X%X%X%X%X%X#X",
"y y y y y y r y y y y r r r r f y y y y r y r f r n r f y y y r E.%X%X{.^.^.%X%X%X%X%X%X@X{.}.{.^.%X%X%X%X%X%X%X%XoX%X'.{.}.{.}.",
"y y y y y y y y y y y y f n r r y y H B r y n r f r r r y y y r %X%X|.`.^.`.%X%X%X%X}.`.^.^.^.^.^.^.%X%X%X}.%X^.{.}.%X%XoX%X%X%X",
"r y y y y y y y y y y y r N r N _ m.m.t.` _ U A N r r y y r y r %X%X`.^.^.^.%X%X%X%X`.^.^.^.^.^.^.^.`.%X`.oX%X%X%X%X%X%X%X@X%X@X",
"r y y y y y y y y y y r r r B c..X%X%X%X%X%XoX!.V.Q f y y y y r %X%X^.^.^.^.%X%X.X^.^.^.^.^.^.^.^.^.^.`.{.%X%XOX5 5 k.u P P P P ",
"y y y y y y y y r y y y y r '  X%X%X%X%X%X%X%X.X|.m.K r y y y f @X.X^.^.`..X{.`.^.^.^.^.^.^.^.^.^.^.^.{.%X%X5 c.v.b.  P P P Z %X",
"r y y y r y y y y y y y r z.OX%X%X@X{.].'.{.'.{.%X{.p.f y y y H #X#X^.`.^.`.{.oXoX}.`.`.^.^.^.^.^.^.^.{.%X%Xx.n v.6 5 = ~ N u %X",
"r r y y y y y y y y r y _ %X%X%X@X`.`.'.#X%X@X%X%X%Xm.r y y H V.%X%X{.'.oX^.`.^.^.^.^.^.`.^.{.'.^.`.{.%X%XX c.c.b.^ %X%Xv.%X%X%X",
"y y y y y r y y y y y r F.oX.X%X{.^.`..X%X%X%X%X%X%XM.y y y z.OX%X%X%X'.{.^.^.^.^.^.^.^.{.%X%X@X}.%X%X%X] u *.G i.%X%X%Xi.%X%X%X",
"r y y y y y y y y y y ^ %X`.oX.X^.^.{.%X%X%X%X%X%X%XU.^ A r ].%X%X%X%X`.}.^.^.^.^.^.@X@X%X%X%X%X%X%X%X%XS *.$ >.%X%X%X%X%X%X%X%X",
"y y r y y y y r r y U ].{.{.%X'.^.^.@X%X%X%X%X%X%X%X%X].R.U.`.%X%X%X`.`.oX^.^.^.^.{.%X%X%X%X%X%X%X%X%X' M ,.*.o %X%X%X%X%X%X%X%X",
"r y y y y y y y y r Q.%X{.{.@X^.^.^.%X%X%X%X%X%X%X%X%X%X%X`.Q.%X%X%X`.^.^.^.^.^.}.%X%X%X%X%X%X%X%X%X.Xy.,.. >.%X%X%X%X%X%X%X%X%X",
"r y y y y y y y y H ].%X`.}.}.^.^.{.%X%X%X%X%X%X%X  %X%X%X.Xp..X%X%X{.^.^.^.^.}.%X%XZ.Y %X%X%X%X%X%X/ u 6 ` o %X%X%X%X%X%X%X%X%X",
"r r y y y y y y y ! oX%X^.'.{.^.^..X%X%X%X%X%X%X%X  %X%X%X%XY.U.%X%X%X`.`.(.}.%X%X  Q.%X%X%X%X%X%X%XI I S >.%X%X%X%X%X%X%X%X%X%X",
"y y y y y y y y N p.oXoX^.^.^.^.`..X%X%X%X%X%X%X%X  o %X%X%X~.U.U.%X%X%X}.o %X%X    %X%X%X%X%X%X%XX P F 7 %X%X%X%X%X%X%X%X%X%X%X",
"r y r y y y y y H E.%X{.(.^.^.(.'.}.%X%X%X%X%X%X%X  8.%X%X%X%X%X%X%X%X%X. .X~.    %X%X%X%X%X%X%X.   %X%X%X%X%X%X%X%X%X%X%X%X%X%X",
"y y y y y y r y ' /.%X{.^.^.^.}.{.^.#X%X%X%X%X%X%X* 7.  / %X%X%X%X%X%X/         ] %X%X%X%X%X].* @X%X%X%X%X%X%X%X%X%X%X%X%X%X%X%X",
"r y f g g h k k O.].%X.X^.^.^..X'.^.}.#X%X%X%X%X%X* o     %X%X%X%X%X            %X%X%X%X%XL %X%X%X%X%X%X%X%X%X%X%X%X%X%X%X%X%X%X",
"g h h l l l l l O.{.%X.X^.^.^..X'.^.'.#X%X%X`.%X%X* 8 9.    %X%X%XM.    I.    %X%X%X%X  * %X%X%X%X%X%X%X%X%X%X%X%X%X%X%X%X%X%X%X",
"l l l z l l l l g.%X@X}.^.`.^.oX'.^.}.}.%X%X    %X%X4 r.&   %X  o     Q     %X%X%Xo   o < 3 %X%X%X%X%X%X%X%X%X%X%X%X%X%X%X%X%X%X",
"l l l l l l l l G.#X'..X^.^.^..X'.`.4 4 4 #XX     @X8 8.8   @X            {.@X@X  8 8 8 . %X%X%X%X%X%X%X%X%X%X%X%X%X%X%X%X%X%X%X",
"k l l l l l l l G.%X{.`.^.`.^.}.{.^.a 4 8 4     P P . 0.8         q.      / ` ] @ 4 o     %X%X%X%X%X%X%X%X%X%X%X%X%X%X%X%X%X%X%X",
"l l l l l l l l G.%X%X'.^.%X^.{.}.^.`.a 8 4 u.P   P   r.8       .         X l.y.8 m < 4 m 4 8 %X%X%X%X%X%X%X~.%X%X%X%X%X%X%X%X%X",
"k l l l l l z k D.%X%X@X'.^.{.^.^.%X4       ,.n     F 8 #.      I.    ;   o $       o     * I     %X%X      %X%X%X%X  P I %X%X%X",
"l l l l l l l k g.}.%X%X%X(.^.^.`.4 8 4         C.S   8               O   x.$     4           I P P P P P       I P P % @X      ",
"l l l l l l l l v g.|.%X#X#X{./.p o o 4   * c.  . 6   0 8           .     x.# 8 q   8 w o L 4 K.T.$ $ $ $ P P P P P P P $ $ $ $ ",
"k z l l z l l l z v g.F.E.}.%XoX  `.Y 0   c.          8 ..4    .X.      8.^ o 8 8 8       3 %X%X%X%X%X%X%X%X%X%X%X.X'.`.^.^.^.^.",
"l l l l l l l z l l z x x g.|.%X%X%X& 8   )     &.    O : :             . / t + 8         8 Y %X%X%X%X%X%X%X#X.X`.^.^.^.^.^.^.^.",
"l l l l l z l l l l l l l z } @X%X%X: 4   Y             4 4       <     e.  I P O   < 8   O a %X%X%X%X.X}.}.`.^.^.^.{.`.{.}.}.'.",
"k l l l l l l l l l z l l l l l B.        D Z     #.%.. . 4 o   ; .   V     6 e e     O ;   O U.%X.X`.`.^.^.^.^.^.@X%X%X%X%X%X%X",
"l l l l l l z l l l l l l l z l @ p       $ P /   $ 0 6.    4     > 9.      4 P   X 4 a   4     {.^.^.^.^.^.^.`.@X%X%X%X%X%X%X%X",
"l l l l l z l l l l l l l l l a < a     4   >.^.t..   4 :.      4 ,       4 %.  ' %Xw   w   8 . / ^.^.^.^.^.^.    [ (.^.^.^.^.^.",
"l l l l l l l l l l l l l l k 8 : 4   8 8 7 ^.^.%X%X%X    I.b   8 ;.      2     ' %X%Xa   O   4 . ^.U.'.^.^.=   I     M.`.^.^.^.",
"l l l z l l l l l l l z l l d 4   :   : S %X^.^.(.{.@X%X      O 8       o e.  r.L.%X%X%X: =   o     X n.o I s t           Z.Z.d.",
"l l l l l l l z c z v E R c   8 :   8 . `.`..X^.%X^.{.%X%X  0       4 0 8.  4.  .X'.'.^.^.+ 8       . I 6 F X .   .   .         ",
"l l l l l l z o.S.G.F.H.H.h.  8 :   d j `.^.{.`.`.%X^.%X%X'.#   9.8.5.7.#   4.  Y.^.^.^.Y.X m   .   . P   * %X}.{.`.^.`.^.*     ",
"k l l l l E G..X%X%X.X%X%X        z l j %X.X^.oX^.^.^.oXoX'.n     ;.  <.r.. v.v.,.. .   P Z..   4       @ ^.{.{..X.X%X%X%X.X.X^.",
"l l z o.+.H.%X%X%X{.`.{.%X  .   7 z l O.%X%X^..X^.^.^.%X'.T.J.    =.1     x.c.J.s.L D   6 (.^.^.8       @ %XM %X%X%X%X%X%X%X%X%X",
"k R D.|.%X%X%X%X'.^.^.t.8 < 4   Y k c B.%X@X^.^.%X^.^.{.^.).9 I       v.~ c.v.  4   A.^.^.^.^.{.        & @Xi %X%X%X.X`.`.%X%X%X",
"l j.%X%X%X%X%X@X^.^.^.t.4 4   . Y +Xz #X%X%X(.^.%X^.^.^.i.v.c.  o o o Z ,.>.. 0 $ 9 2.  ~.%X%X^.'.8   .   `.q %X%X%X^.R.* }.%X%X",
"l @X%X%X%X%X%X`.^.^.^.] a 4   4 %X/.g.OX%XoX^.'.%X`.^.^.p.  1.        6 / 0   J.y.  _.      ^..X^.8   8     i %X%Xs.    (.      ",
"k |.%X%X'.%X@X`.^.T.^.  4 0     %XF.[.%X%XoX^.^.`.`.    A   5 >.    / /   c.l.x.v.>.v.).            < 8     i                   ",
"k |.%X%X^.%X@X^.^.    8 4   0 %X!.H.%X%X}.^.^.^.  P.  ` / / J /   P /   _ / $ c.w.8 4   {.'.              8 i o %X%X.X    .XoX%X",
"k (.%X.X^.%X{.^.^.X   4 0 < . %X(.%X%X}.^.^.}.@ 0   . / F         I         y.0.w.  8 8   `.Z.      %X    4 8 %X%X%X^.^.^.^.^.oX",
"k /.%X%X^.^.^.^.^.X 4 4   A.%X%X%X%X{.^.^.. 4 @ 5.e.9.. A b.9 / I Z       ~ y.. @.e.1 0   . `.%X.X.X%X X  8 8 %X#X%X.X^.^.^.^.%X",
"R W.#X%X^.^.`.`.o T.4     `..X%X%XoX^.^.  4   9.e.0.    ( b.7     I   e   / /   C   6.        %X%X^.^.@X    8 #X  %X}.^.^.^.^.^.",
"E E.#X%X^.`.{.^.  T.8   ^.(.{.%X%X`.^.  a.    I.0.    a.U P >   $ 5 P 6   P Y   O 3.1 ( 6 A 2.Z.^.^.^.`.    8   . %X'.^.^.^.^.^.",
"x S.oX%X^.'.{.^.m   8   `.^.^..X%X^.^.c.  a.r.Q       P t     I       i.  I I       P   ,.&.4 C.^.^.^.^.    4 a %X%X^.^.^.^.^.^.",
"z f. X%X^.^.{.^.%X4   }.^.^.^..X@X^.D   p.$ /         5 e Y * n.^.^.^.^.'.F o   k.b.. L 6 % 4 8 ^.^.^.^./   2 % %X%X^.^.^.^.^.^.",
"l { /.%X{.^.}.^.^.    }.^.^.^..X@X^.    ( P b.K     / ^ P @X^.^.^.^.^.^.^.^.D   /   ` . . O 8 4   ^.^.^.)   2 '.%X%X(.^.^.^.^.^.",
"k k g.OXoX^.}.^.o     >.^.^.^..X%XZ 4   > c.c.]     I * d.%X^.^.^.^.^.^.^.^.s.s o I o -.9.-.  4 < ^.^.^./   : ^.#X%X^.^.^.^.^.^.",
"l l c D.oX'.^.^.      @ ^.^.^.^.'.        5 >.u I   o ^.^..X'.`.^.^.^.^.^.^.^.  I   4   0.9.  2 8 ^.`.. =   0 '.}.%X^.^.^.^.^.^.",
"l l l E j.oX(..X4 * .X  '.^.^.^.s.K K U     / Z   ] ^.^.^.{.%X{.^.^.^.^.^.^.^.^.'   4   u ) ,.W K ^.I       4 @ '..X^.^.^.^.^.^.",
"k l l l } %X'.    * ^.] oX^.^.^.d.    c.^     [ ^.^.^.^.^.^.@X%X^.^.^.^.^.^.^.^.^.^.  8   S     x.^.Y.  ] }.4     #X^.^.^.^.^.^.",
"l l l l S.%X'.      ^..X%X}.^.^.    &   ~ t %X}.^.^.^.^.^.^.}.%X}.^.^.^.^.^.^.^..X{.^.^.s <       ^.Y.  ^.'.< o 4 ~ ^.^.^.^.^.^.",
"l l l l {.%X^.  a Y.  `.%X%X.X. :   8   . `.%X'.^.`.^.^.^.^.{.%XoX^.^.^.`.^.^.^.`..X%X^.  w       ^.Y.. ^.`.  2     ^.^.^.^.^.^.",
"l l l | %X%XY . T 6 e i.%X%X%X  & 4     ^.(.%X^.^.^.^.^.^.^.'.%X%X{.^.^.^.^.^.^.^.`.@X%X  + 4   4 X ^.  ^.(.. 4 . <   ^.^.^.^.^.",
"l l l /.%X.X^.a ^.  {.'.%X%X          ^.^.^.%X^.^.^.^.^.^.^.{.%X%X'.^.^.^.^.^.^.^.^.'.%X^.  8     4 ^.^.^.^.* 0   (   N.^.^.^.^.",
"l l l .X%X^.^.e ~.^.^.'.%XX q         ^.^.^.{.^.^.^.^.^.^.^.{.%X%X}.^.^.^.^.^.^.^.^.`..X%Xn.  .   4 '.^.^.^.. M . *.  N.^.^.^.^.",
"l l B.#X@X^.^.^.{.^.^..X  .     : 0 O ^.^.^.^.^.^.^.^.^.^.^.{.%X%X.X^.^.^.^.^.^.^.^.^.}.%X.X  O       '.^.{.< `.4 i.^.n.^.^.^.^.",
"l O.#X#X'.^.'.^.^.^.^..X. 4     O 8 O ^.`.^.^.^.^.^.^.^.^.^.}.%X%XoX^.^.`.^.^.^.^.^.^.^.%X%X4       4   ^.^.`.  {.^.^.^.^.^.^.^.",
"k /.%X{.(.^.'.^.^.^.^.oX  .     : 0 n.^.^.^.^.^.^.^.^.^.^.^.%X%X%X.X^.`.^.^.^.^.^.`.^.^.`.M.4 <     8 . ^.^.^.o ^.^.^.^.^.^.^.~.",
"h..X%X(.^.`.%X^.^.^.^.oX. .     :   ^.^.^.^.^.^.^.^.^.`.^.^.%X%X%X{.^.^.^.^.^.^.^.^.^.^.^.d.a :   8 8 8 %X^.^.^.^.^.^.^.^.^.^.^."
};
