/* XPM */
static char *_109511e115c4227c84f68abdd348425ryzpgiz68iAkpOai[] = {
/* columns rows colors chars-per-pixel */
"64 64 132 2 ",
"   c #0B1725",
".  c #0D1927",
"X  c #0E1A29",
"o  c #121E2C",
"O  c #15212E",
"+  c #162231",
"@  c #1A2634",
"#  c #1D2936",
"$  c #1E2A39",
"%  c #222E3C",
"&  c #25313E",
"*  c #263241",
"=  c #2A3644",
"-  c #2D3946",
";  c #2E3A49",
":  c #313D4C",
">  c #35414E",
",  c #364251",
"<  c #3A4654",
"1  c #3C4856",
"2  c #3B4658",
"3  c #3E4A59",
"4  c #424E5C",
"5  c #46525E",
"6  c #44505E",
"7  c #44505E",
"8  c #444F61",
"9  c #445060",
"0  c #455161",
"q  c #465260",
"w  c #475361",
"e  c #465262",
"r  c #475363",
"t  c #465261",
"y  c #485460",
"u  c #495561",
"i  c #485462",
"p  c #495563",
"a  c #4B5763",
"s  c #485464",
"d  c #495565",
"f  c #4A5664",
"g  c #4B5765",
"h  c #4A5666",
"j  c #4B5767",
"k  c #4A5664",
"l  c #4C5864",
"z  c #4D5965",
"x  c #4C5866",
"c  c #4D5967",
"v  c #4C5866",
"b  c #4B5668",
"n  c #4C5769",
"m  c #4C5868",
"M  c #4D5969",
"N  c #4E5A68",
"B  c #4F5B69",
"V  c #4E596B",
"C  c #4E5A6A",
"Z  c #4F5B6B",
"A  c #4E5A68",
"S  c #515D69",
"D  c #505C6A",
"F  c #515D6B",
"G  c #525E6A",
"H  c #505C6C",
"J  c #515D6D",
"K  c #525E6C",
"L  c #535F6D",
"P  c #525E6E",
"I  c #535F6F",
"U  c #515D6B",
"Y  c #55616D",
"T  c #54606E",
"R  c #55616F",
"E  c #55616F",
"W  c #546070",
"Q  c #556171",
"!  c #566270",
"~  c #576371",
"^  c #566272",
"/  c #576373",
"(  c #566271",
")  c #586470",
"_  c #596571",
"`  c #586472",
"'  c #596573",
"]  c #5A6672",
"[  c #586375",
"{  c #586474",
"}  c #596575",
"|  c #5A6674",
" . c #5B6775",
".. c #5A6676",
"X. c #5B6777",
"o. c #596573",
"O. c #5C6876",
"+. c #5D6977",
"@. c #5D6977",
"#. c #5C6878",
"$. c #5D6979",
"%. c #5E6A78",
"&. c #5F6B79",
"*. c #5E6A7A",
"=. c #5F6B7B",
"-. c #5E6A78",
";. c #606C7A",
":. c #616D7B",
">. c #616D7D",
",. c #626E7C",
"<. c #636F7D",
"1. c #626E7E",
"2. c #616D7B",
"3. c #65717F",
"4. c #65717F",
"5. c #657181",
"6. c #677381",
"7. c #677381",
"8. c #687482",
"9. c #697583",
"0. c #6A7684",
"q. c #6B7785",
"w. c #6C7886",
"e. c #6C7888",
"r. c #6D7989",
"t. c #6E7A8A",
"y. c #6E7A88",
"u. c #717D8D",
"i. c #707C8A",
"p. c #74808E",
"a. c #75818F",
"s. c #74808E",
/* pixels */
"= < 4 1 4 6 3 - 3 < 4 4 j 4 & 7 3 > > 3 3 > 3 3 3 3 w 3 > < > 3 3 3 x % 3 A > > 8 8 ; ; r 8 2 9 4 2 : 2 3 7 7 w < ; 3 2 9 9 9 > ",
"> Y ] S ,.:.W 3 *.W / j B , > ) a.3 z h +.3 3 ) _ +.:._ 3 L ) K ) Y 3 > u s.L , W W b 8 V J J s.} C , 5.g z F z ; m { I J s.I I ",
"@ > 4 < 6 1 r : 2 8 < , & O O < G - < < z , - 3 1 3 3 3 < > w 3 1 - # o - z 3 = 8 8 b % 8 8 2 2 3 9 = d 7 < < % + : , < 0 2 9 3 ",
"o % 1 6 1 < W - % , % $ + % % 4 u - % 3 3 $ + , 3 3 3 ) < + > = & o + $ 3 3 3 # 8 2 = o % b 8 2 4 m $ & > % + O + o ; d 9 9 3 Z ",
"+ & & < > 4 ] - > < > # > > > < G > % = > & # % , , > L 3 = 3 3 * = 3 = 3 3 w # * ; = * * : : : m Z & 1 < > # w * @ * 2 ; ; P C ",
"@ & @ @ % & 1 ; S S ] 4 ] Y - & 3 - 3 * > > & $ + % % 3 > 3 _ Y 3 z &.> = 1 3 1 : : 8 + * o % % , , , ` F K 1 ,.8 + ; X $ * > , ",
"O > > & > > > ; 1 1 5 > < Y O % > # 3 3 G = @ 1 > = > 3 & > 3 3 3 > z * # & % , 2 r 8 @ , 2 * , > ; ; 1 3 6 ; w 2 $ ; > = 2 2 ; ",
"@ 5 ;.< 5 ] ;.& 1 4 _ > 4 _ + # . - 3 1 A > < %.u > ! &.3 > 3 Y e > +.* # O O 1 8 r 8 % W 5., n =.J = 3 g ` - F 8 * 5.I > m 5.h ",
"= 3 3 > % ; 2 @ $ , < # ; j $ : = o 3 1 e > 3 3 3 # = < = @ * 3 # = u * > > o > 3 3 h > 2 8 * * > > + * > > + 9 2 > 2 e * = : : ",
"& 1 o.3 * : : @ @ O + # = 0 @ O % + > < A < , z K @ > < % X # + $ $ 3 =   % # # 3 u 3 3 2 5.; ; > * + + + $ @ , 8 , 8 J * , 2 = ",
"> < n 3 n 5.} = = ; $ * > 5 - u L * O # - % < z x 3 s.+.< * > % % > 3 3 < _ , o @ ; % , 2 J : 5.s.d $ ; ; + : 3 2 > e W 2 I 5.n ",
"& 4 B , , 3 V % @ = $ * 6 l % < G > w z G > 3 3 3 * 3 e > X # * o 3 z = > N 3 3 I M 2 > b b * r 3 3 # + & & = s 2 > 8 e ; 8 8 e ",
"# 4 z > - 3 / - $ & = # 4 G = > A 3 A x O., > z Y * 3 z r % & - % > L > > u 3 3 I J m % r / = : 4 K $ * ; $ * M 2 ; r V = 2 s n ",
"O > Y > = 3 e - W | +.- 1 z - a G > > 3 3 > % e 3 & 3 3 , , *...3 = Y > , u 3 > 2 9 r % 2 P * , g < : -...M * H 2 $ 8 I $ : s 2 ",
"& > 5 < , b b ; < 3 u : 4 7 & 1 3 > > 3 1 > > 3 z & 3 L , > 9 2 3 > 3 > 3 w , = 0 , 2 = 2 m = 3 p 3 & 7 2 s 2 2 2 = 2 V ; 3 P 0 ",
"+ % % % $ ; : + - $ = & O % % & & = % O = % # # % + > > $ $ & $ = @ & @ # & = % $ @ = $ $ * + ; - ; @ = # * @ $ % % @ % @ = ; = ",
"& 5 < 7 a r 1 ; 9 m = 2 8 e ; 2 8 2 r h r ; < 3 9 9 r j % 3 P ; > u u - < 3 3 6 6 g < ; 6 3 3 6 p : < p < & w 4 < > 4 3 3 4 l 1 ",
"< ] Y Y u c < ; #.s.3 V m [ 2 m J J #.#./ e Q ^ Z J d 9 ; J s.Q 3 M M F u ] F J s.( z u | F Y F w = < s.s.< F G ! <  .S +.S w > ",
"& 4 5 < < * @ # < Z % , 8 Z : ; 2 8 2 2 8 > < 9 9 2 - # O , 0 , - u u 1 % < 6 < < , 3 ; u 3 < ; & X % 1 g % 3 3 g ; 4 3 1 > % @ ",
"O & > % @ o @ = 9 Z = = 2 2 $ O < e 2 2 [ > # ; % + + # $ 9 h 2 # < 3 = X - u < , F 6 + ; - $ @ + $ 3 7 l @ 3 3 ; @ = ; # @ + @ ",
"# 4 < < $ 3 < , , s - % = : * * $ > > < Q , > 2 3 > > 3 > < 0 2 $ = = = # & - > > F t * 3 3 ; - 1 ; < 4 l # = & - * 3 , < * 3 , ",
"> Y 5 ] 3 X.n = > 9 > > = 8 * & $ + % * > ; h P ! 3 3 +.- > 2 2 , , > 3 # & O % % - > 3 Y ( z 3 6.4 & ; 4 > < - w 3 S S K 3 ! S ",
"& 4 < 5 > < 6 O $ & = 9 2 W * & < * > > 1 * < 2 A < > I % + % * 3 3 6 3 @ 3 ; = 3 3 - - 3 3 y - y , + % % > y 4 g ; , 7 y ; 4 y ",
"@ 4 5 ) ; 5 T O $ . % r 3 Z - 3 3.3 1 H 5.> > 3 / 3 > { = + O o 3 < F 3 = &.( > z 3.t * u w F = ! 3 o @ O ; 4 3 K & 7 7 ` ; w S ",
". % - > # > 5 # > & O 4 8 b : 2 3 3 $ > 2 % + - , % & C * - - + > 3 S 3 > y 6 % & > - X = > = # 6 , * ; # % y 3 z + % ; , + , w ",
"O @ O O @ > 4 O O & # & 2 n 2 , ) f $ > 2 $ o @ # + & 9 $ @ * @ & > 3 3 < 3 ] = ; 1 > X # # O # 3 > X # & # ; 7 7 # # O @ # , 7 ",
"# = - % - 1 5 & S Y # O * * : 2 3 z 3 2.5.> * > & % , r 2 3 I , X * = & < 3 Y > :.@.g % - = % > 3 4 , ` w + # & - # ; * % ; 1 3 ",
"o # % # = 5 5 & < z > Y I J : 8 3 3 > 3 d ; + @ % % 1 r = , I , 3 L L > < u 6 - 1 6 7 O & % @ > u < * y l ; K G 7 + % % @ - 7 w ",
"# - : - # 5 5 % 3 z 2 b d 5.* : ! m % 2 Q 2 % - > @ > W = ; P s 6 A ] 3 & u Y * 3 6 6 O > ; & & Y 3 = 3  ., ! l ! % = > = % y 7 ",
"- S ] ] : 5 Y < 5 T - , 2 r : = f 0 % < h , , 5.X.2 > { , 3 V , - 3 3 3 % 1 A $ < 7 y > O.%.u = z > < u g & 3 < y ; G +.K ; z 7 ",
"# < 4 u : < 1 & 3 d * 2 2 , 2 ; 3 3 > r m , > 8 9 3 > 9 ; 2 d 2 - 3 > 1 > 1 w > 7 6 3 & 3 < t , w > , w 3 ; 3 > 4 - 3 < w > 3 3 ",
"O - @ & % # % O * $ * * @ * @ * # % # > * $ * $ $ & @ $ + $ % % * # $ % @ # % + = = = # ; @ = + + # @ # * & # @ & + = + ; @ @ * ",
"- 3 F 3 ; z 3 u g g 6 ; g 3 t z g x = u F > 3 u w > 1 u 3 u F z > < 3 g t x A > 3 F 3 - w x 1 > t 6 t A z 3 > z 3 t z F , > g 3 ",
"> F u @.< g F z ] %.Y 3 ( L J 6 u > * F s.3 3 z Y x 3 L M @.@.J u x ] g J w < & , s.] , ) A z 6 M ) 3 s.Y F 3 ] M M 6 y - 3 ) F ",
"+ 3 3 z % - u 3 3 < 3 > < t 3 3 % # # > F > > 3 t , * 3 3 3 1 3 < - u , 3 > $ O > w 3 & 3 3 w # 3 3 < 3 6 3 > 3 6 3 , # @ = x 3 ",
"+ > 3 > @ $ > 3 3 3 ( = % = @ @ @ + % 3 z - % 3 3 $ X > a 3 3 F 3 O > % @ X $ + 6 3 3 O 3 3 - O = 3 3 , 3 J O - & @ @ O @ # , > ",
"% # * ; = & & 3 - < Y , , u 3 = 3 < > 3 z > % = > & = * - - , Y 3 > 6 6 > - w > 1 3 z $ - * = # % = 3 = z z ; 3 w < * x > % $ > ",
"> 3 ; 3 & @ O O % ; > ; g u @.< J Y > % < < 3 = 3 - @ # O & % ; - 3 F ) x 3 O.> & , 3 < > > u + % @ o & = > < Y M F , @.w , 1 3 ",
"* z 3 F & > 3 = > < , * 3 3 Y , < w O @ = & 3 3 z > % 3 > = 1 w > > 3 3 3 ; F - X = # > w t u # 3 < * < 3 > - 3 3 z > 3 t > z 6 ",
"- 3 3 F = 6 :.3 3 M s.& < 3 Y > , &.$ $ X % 3 3 A , > :.F > ( ] 3 % 3 F x - O.- @ + O < < t u % L @.< y @.] # 6 t Y = M u > g z ",
"$ u 3 u , 1 3 , @ - > # O - < O - x # > = X 3 3 g < , 3 6 # = > & + & - - # x = = > O - 6 6 3 > 3 6 * $ - > X % ; ; O 3 3 - 6 u ",
"O > 3 u > < Y t - 3 < @ @ + @ % * 6 % O & # % , w < , z Y % < 3 - O # # + # 3 > X # # # < 3 x > 3 ( > , < > # @ O + & , < @ 3 3 ",
"X @ # = - 3 M 1 3 <.O.- ; > % % 3 6 > 6 &.- X = * & , w J , O.3.3 & > - % , 3 > 3 @.6 X # & & > 3 u < ] :.F % ; > # - 3 3 O & % ",
"> ( Y L - 3 6 3 > 3 z % O @ # % 3 y % > z < z Y O., < 1 w > 3 3 3 X # @ @ < z > % x 3 , @.&.3 > 3 A > > 3 z O # # @ & t 3 3 ] u ",
"> z u Y = 3 L < > < Y > = > < # 3 F - < A , A t L > > u z % 3 F 3 % , > & - Y > > u z 3 F 6 z % 3 <.; > t M = - > > % g 3 3 ) x ",
"@ 3 3 3 = - z < % 3 z = 3 &._ > 1 6 > 3 ] > > 3 u > $ 3 A # 3 3 3 > @._ 6 - F > 3 w 3 % 3 3 Y # 3 z % - t 6 - ] | u = z t = 3 6 ",
"% < > < > > 3 3 3 6 y = 3 < 3 3 < 6 > > 3 , - , > > > 3 u = M M , = 3 1 y > u = > 6 3 = 3 > < - < 6 3 < t g & 3 , u > 3 < = t t ",
"% % @ = X % $ @ @ & > @ % # * @ O $ O % & & = + = @ # O & @ % ; % # * @ * X % @ $ % % & % % $ # # % X & - % @ = + = O # $ % $ % ",
"> t x t Y Y 6 > x 3 N F z x > z ) - 6 w M > 3 A g z J L , 3 w g z z J - t { 3 , P h , 2 n s e P F 3 , x u w F L > 3 x u x F F 1 ",
", u J t O.F F 3 ] x z 3 3 - ; Y s.1 g 6 ] 3 x z x @.) F 3 z | z g 6 , % 3 s.C 3 h { s 2 H H n 5.F u 6 Y u F x 3 > 3 z _ x 3.A u ",
"@ > 3 3 < 3 6 > 3 3 3 3 - + O < x $ , 3 x * - 3 1 3 , g 1 = 3 1 , = % # , g , * 8 9 2 $ 0 2 3 2 3 u ; 3 3 3 - $ + % 3 < 3 3 3 3 ",
"X % 3 6 3 3 ] % # = # X O @ = t F - = 1 > @ O > 3 < 3 L > # < % # X + @ 3 t 3 # 2 2 * + % 9 9 8 u F X = = @ X % X $ - 3 3 < M z ",
"# * # > = 6 N - 3 t u * g , < , z > $ % = > $ % 1 = > L 1 > 3 u > < g ; 2 s 9 $ * ; ; * * ; ; = M M - 6 z < - M - $ % - , > u w ",
"+ * @ X & * > > F u J > ( w = * 3 > 3 > 3 > $ $ X % - > * z A F < u ` > & > 2 1 , : 2 o * + $ % > * 3 F x A < ] 3 O * X % # > - ",
"X 3 3 > < 3 1 = 3 3 g > 3 z o # % $ 6 3 A & - w > > 1 3 - > 3 w 3 > g % @ % $ 2 9 h 9 * 2 2 ; 4 w > > 3 < x = J < % 3 3 - 6 3 > ",
"& y :.> 3 ) %.& 3 3 O.> 3 ( @ % @ $ 3 3 Y > < | x > A <.> * u F 3 ; %.* $ + O 2 2 h 8 * 5.P , d ] A $ 3 F Y * F < > ) x > x &.x ",
"= 3 3 > # = > O @ = > @ > 6 % > - X 3 3 a < 3 3 3 $ # > % o & > % % g & * ; @ > 8 8 9 , 2 9 ; @ - - X % > = + 3 > , 3 y # $ - = ",
", 3 ) < > t < # # @ + # > 3 + O * O = < u > < L z & 6 6 % # O O # & g = O * # @ ; 9 2 2 m H ; 2 w < O O O # - , w < w L - 3 3 > ",
"- 3 u 3 w | ] = - - % = 1 6 > z %.& X # ; = 1 u A 3 ] O.< & > - % > 6 > 3 %., o $ ; % : 4 W 2 } @.u % , > + > < < , 3 z 3 O.] A ",
"> 3 g > 1 3 M @ O $ # & 3 6 % < z > O.@.) ; 1 3 3 - 3 a > X @ @ @ < z % ; z 6 7 5.Q 9 , 2 h = 2 3 3 X # $ @ - A < , u w > 6 3 3 ",
"# < ] > = 3 z > > > > @ w M - 3 L , w 3 L > > A A $ 3 z < ; , 1 * = Y > > z u , j C 9 % d } % 3 u A & > > > $ F < % u Y # < A y ",
"@ , z > ; 3 g = x Y O.> u u = 6 F ; 1 3 z , * 6 x # 3 x > < =.` 1 > Y ; 3 g 1 ; 0 2 9 $ 9 M % > t 1 > @.) A - z < * 3 F % , w 3 ",
"* < , , , 6 z & , > 3 - , 3 > 3 u * ; > > > > 3 , > 6 F ; * u , 3 > 3 % 6 3 > = 2 ; 2 ; > e , 3 u 3 = 3 > 3 > < > > , 3 > 3 6 3 ",
"# @ * $ # > - # - $ * & # # # $ $ & - O - @ % # % # - - & & # & * + & @ $ % = * $ % % $ % % O ; ; % @ - & * O & % # # = + - > % "
};
