/* XPM */
static char *fb41766a111a4fb09b6403b7afe3810fSp14lmp3k4BdMOrn[] = {
/* columns rows colors chars-per-pixel */
"64 64 140 2 ",
"   c #3D7615",
".  c #3F7915",
"X  c #3E7618",
"o  c #3E791A",
"O  c #427B16",
"+  c #447D1C",
"@  c #487F1B",
"#  c #467E21",
"$  c #487F21",
"%  c #478015",
"&  c #47801D",
"*  c #4A831E",
"=  c #4F891E",
"-  c #518B1F",
";  c #478021",
":  c #4C8423",
">  c #4F8924",
",  c #4E8628",
"<  c #4F8829",
"1  c #508724",
"2  c #528B25",
"3  c #508729",
"4  c #538C2B",
"5  c #538D29",
"6  c #558D28",
"7  c #548C29",
"8  c #548E28",
"9  c #558F28",
"0  c #558F29",
"q  c #568E29",
"w  c #558D2A",
"e  c #548E2A",
"r  c #558F2B",
"t  c #578F2A",
"y  c #568E2B",
"u  c #538A2D",
"i  c #528B2D",
"p  c #548B2D",
"a  c #538C2D",
"s  c #548D2C",
"d  c #558D2C",
"f  c #578F2C",
"g  c #568E2D",
"h  c #548D2E",
"j  c #558E2F",
"k  c #548C2A",
"l  c #588E2D",
"z  c #559026",
"x  c #559026",
"c  c #589126",
"v  c #599226",
"b  c #569029",
"n  c #579228",
"m  c #56902A",
"M  c #57912A",
"N  c #57912B",
"B  c #56902C",
"V  c #57912D",
"C  c #54902E",
"Z  c #56922E",
"A  c #57902C",
"S  c #589128",
"D  c #589329",
"F  c #58912A",
"G  c #58902B",
"H  c #59922B",
"J  c #5A9529",
"K  c #5A952B",
"L  c #59912C",
"P  c #58902D",
"I  c #58922C",
"U  c #59932C",
"Y  c #59932D",
"T  c #5A922D",
"R  c #59912E",
"E  c #59932F",
"W  c #5A922F",
"Q  c #5A942D",
"!  c #5A942E",
"~  c #5B952E",
"^  c #5B952F",
"/  c #5D962D",
"(  c #5C942F",
")  c #5C962F",
"_  c #5D962F",
"`  c #5A932D",
"'  c #5F992E",
"]  c #558E30",
"[  c #568F30",
"{  c #568E30",
"}  c #588F31",
"|  c #588F31",
" . c #579031",
".. c #569031",
"X. c #589130",
"o. c #599130",
"O. c #5B9330",
"+. c #599032",
"@. c #589132",
"#. c #5A9430",
"$. c #5B9531",
"%. c #5B9433",
"&. c #5C9630",
"*. c #5C9632",
"=. c #5F9732",
"-. c #599234",
";. c #5A9334",
":. c #5A9335",
">. c #5E9635",
",. c #5C9432",
"<. c #5E9831",
"1. c #5F9831",
"2. c #5E9832",
"3. c #5E9834",
"4. c #5F9935",
"5. c #5F9833",
"6. c #5E9738",
"7. c #5F9839",
"8. c #609B2F",
"9. c #619A2F",
"0. c #609B31",
"q. c #609932",
"w. c #639C31",
"e. c #609A34",
"r. c #619B35",
"t. c #629A35",
"y. c #619B37",
"u. c #629A37",
"i. c #639C35",
"p. c #629C36",
"a. c #649D36",
"s. c #629B35",
"d. c #609739",
"f. c #649C39",
"g. c #66A137",
"h. c #66A03A",
"j. c #67A13B",
"k. c #6AA53B",
"l. c #69A23B",
"z. c #6DA741",
/* pixels */
"* / &.Y O z ) & x n : : ..* &.Y v O &.y 1 - q.+ 3 1 1 / Y 2 * q.2 = - / O p 3 = 9.J 1 * 2.= 1 c B * n * b &.E & > 2.& 6 6 6 * B ",
"* x B r.8 * E > = Y : # : * 2.y 8.1 1 2 * 2 y 1 $ 2 = 2.e u.+ 6 7 = 6 y $ : * 2 H 6 J : 6 y = 1 n + * : n x <.b : E > > 2 6 * * ",
"J * * > 8 % > > Y : : O & n + * 2 8 ; n c S * $ X * 6 & > n > * : y H : O O 6 2 = = l ; * y y H * X O E = O > e & > b B 2 ; X + ",
"<.. * * &.B : 3 1 ; # O 8 Y * & * B e & > ; ; ; O n J * O 3 x 6 $ 3 * + $ O i.* * + l 7 y O 1 ; ; + & h.* * & Y > > ; > * : X > ",
"k.n e + 8 8 ; + + < ] O / r.8 : : b 8 + + # ] < + u./ H + ; 2 6 # ; # ] 3 & h.6 f + 1 7 f + # # ..* h 4.8 b . b 2 e # o : -.+ < ",
"> E ; + * * Y < o :.# : r.= 4.+ + * > b , : , : > Y 6 H * ; : 1 e ; : u * * &.Y | O ; * 1 f # u < X &.B #.> . : * y < # u : ; o.",
"& &.; h > * &.; # # + 2 H 1 o.; h > > &.# # O : y H : Y + | : 6 &.# # o : E e < 3 $ l : y Y o $ + ; n > &.: : ] : y < + # O 2 u.",
"b ..o ..z 8 e + # o o.Y & 3 ] $ &.< 8 > o + ; &.> & H : < ] 3 6 * X # , &.: * :.$ 2 / * Y + X # 8 %.: : e ; < ..= H + o $ Y l O ",
"3 $ + 3 $ ; + ; # ] ] : O 6 + $ 1 + $ O $ $ >.> : + < + , : $ @ ; + : 7.* : O 3 + ; < ; # ; ; : &.: ; ; u X f # * # , ; , h ; & ",
"o.+ 1 1 p p ] $ ; ; : ; f.6 , $ = 3 | p O $ 3 + 3 u.: 3 $ p : ,.: X < : & y d.: ; < 3 < :.: X 2 : ; >.o.+ : + e < u ; o C , + r.",
"3 : : ,.7 1 o.: < : ; + >.2 < $ q.6 p o.3 2 @ : 1 &.1 : $ d.1 l E & B O : 2 4.* : : u.; l o.+ l O $ o.Y : : 2 >.< &.3 * 7 O & &.",
"n 1 O ,.1 : * l e : : B : Y ; + ( * : @ l = + : H : q.O 1 | = @ > 8 e * : 2 8 8 + * u.+ : 2 6 1 @ 7 2 y 6 O y 6 : * 3 Y : + H 6 ",
"q.= * 1 1 H = 2 8 > * 7.1 n > : x * q.* H 6 l : q.: ( * : 6 * ( . n > e : &.8 n : 2 1 1 H O ( = 3 y H y 1 > * = 6 * : Y 6 & q.7 ",
": K 6 q.& 6 &.@ 2 2.; : 2 * / Y H @ ,.2 * : Y $ 2 6 @ q./ Y * i.> > 2 Y : > > > e.o.l * q.* 2 6 y * y * 6 / J 6 1 q.1 = l 2 : : ",
"@ K 1 h.* & / * = H h X : * y 1 q.= 1 H - 6 y : O 8 * / / Y & : n = : u ; + > > o.7 ( O 2 S * 6 e * * + x 8 2.> O / : : e b * # ",
"9.& * * Y * * 6 / O : + ; Y * = 1 6 & 2 1 H $ # O : Y + % 2 8 : > H y * $ + < b @ : 6 : 1 * q.1 ; O + Y > & = 6 = > > &.* & + o ",
"9.& * + 4.> * > : ; : O n J > X = n Y + : ; < # O 2.n + % 8 x z # < + < ; & r.= : O H 2 H + < $ ; + = i.* * O Y > 8 : ; : ; ; > ",
"g./ > + > E & # # : %.O &.h.> < + l H * ; O ] u O h.&.&.& & > z # o , ] : + g.Y :.O 2 6 8 + X < >.; = l.B B & 2 8 = + ; < :.+ > ",
"= B < + & : B > # ..+ ; 2.* 4.# + * : 3 < # 3 # > Y > B . : * > ..; # < + h B n p O : O = l ; < ; . 2.> &.< X : * > &.# < & * 2.",
": o.: < b : 4.: + + ; B n > &.+ Y 2 l Y + O + > e < &.e + E > E Y + + . f B > e u : ,.: o.y X + + b Y * o.< ; &.* &.: X # : > E ",
"< ..o -.> > > o + # 7.< . B ; $ &.: 3 < X + > >.> + B : : f : > * O + e ..; + B # < | ; p + + # &.&.. > B + h h : e X o : &.e . ",
"> ; ; , + * * * ; h h ; * 2 + , : + * + ; : o.; > : ; + : : : * ; + ; u.+ > * 8 o ; : O : ; + 3 %.+ * > < X > & * : : + < < : : ",
"&.: : < e z B * * ; ; > r.&.+ : 7 7 f 2 ; ; 3 * e y.h : : < : >.u O < ; + y y.: p < p p u.: X : ; + 2.4.X h > 8 < ..+ * ; : & r.",
": > & 6.> : &.; e < + * / : 3 # q.2 e Y ; o.+ ; & 7.> # + z.* y ] ; o.* * e Y : ; ; f.@ f 1 = B # ; b C < + e Y ; 4.> ; 4.. & Y ",
"Y : ; y = * * o.2 * * q.= J * + ,.O 1 : ' : ; * Y 1 Y * * y : * : Y = O Y ( : l @ : f : : 1 6 1 @ / 2 6 6 % 1 > & > 8 f ; & i.= ",
"Y y : 3 1 H 7 @ 6 Y @ l 6 8 2 2 1 2 ( * B > e : q.1 2 1 : e : q.& e y H @ &.7 y 1 1 2 : q.* c 2 1 : Y 6 * 2 2 > b E * x y 1 1 6 ",
"& ( Y &.= > &.: 1 &.: ; > = Y n q.$ l c : > n , 2 * 1 2.H Y & Y y * 1 o.+ e : * / / 6 & ( * - 2 &.+ 2 * 8 r.Y > : 4.: 2 8 e * e ",
"- H 1 &.2 + o.: c 2 < ; : : / > / * = c ; E E o . : > H e ' * > 8 1 n 2 * . 2 y 6 H K @ = 6 1 2 : * * > x 1 b n * > > 2 = > ; X ",
"9.O + = H = 3 > / + # + < e * + 1 c * ; n B ; & . B e & O b > > * B h * ;   &.> O @ ,.1 * 7 7 3 ; + O Y = & * b : * 1 H * & X # ",
"w.@ 3 * y 6 : : * * < + e 4.* + 1 v e * 1 + # > + 2.&.: . > e n + : + ; * * r.* , O 7 d 7 + : : : + ; z.& > . ) 1 6 * : * >   , ",
"g.Y e # > x * + X { ] + Y q.&., + > H ; + ; %., & 2.B &.* > > e * X ; ..* > h.' ,.+ 1 1 l O $ ; ..* 1 a.z E % > 2 6 + X < &.& e ",
"O u.+ + & * &.e ; , o * ' > >.+ * ; : ' < ; : # > ' > J . & : > 6.: , ; + 8 c 2 2 O = O 6 l ; ; * * Y 2 E > X > * 1 :.; < + + r.",
": o.: 3 Y : r.O + + > #.8 3 :.$ >.: f >.  o o > p p p p ; &.1 l < o X * f h < e p $ >.: q.: X + + l p : | : p ,.: ,.# X X ; C b ",
"h < + &.: : * & o < ] >   u ; ; l * : ; ; & C ..1 O 7 $ 1 l : 1 : ; # B < : X B # < 2 : * : + # o.l @ $ u # 7 : : 1 # + , 6.> . ",
"h * . ; * ; ; + ; ] > > > f + ; : * 3 + * + :.: : 1 7 O ; ; + : ; ; : ..; e > 8 + ; : : : @ + < Y ; 3 3 : $ @ : : # $ O > B : 8 ",
"u : 3 h %.f >.: , < + : h.3 < ; l 3 e ..# , < + 1 f.7 3 1 &.: q.< # < ; + n 4.* , 7 l : ,.1 + ] : + >.u.: : < ,.p ] p # < + + f.",
"3 ; & &.3 : 2 3 ; < + > Y > 2 + a.: 1 n > e ; ; = l * @ * e.; 2 h > h * * > Y > $ p ,.: 2 l ; > X : 1 Y : O y y : ] f : > & * Y ",
"u.: + l @ 6 : l 3 2 * &.: Y * ; y * y O H 1 : : q.= &.@ @ Y : 1 * E > * > E > 8 @ @ 7 : 1 * / = : l l 6 1 : 7 2 : : ; e 8 & Y 8 ",
"y 2 6 y 1 H 6 * l 2 * &.1 H > 2 2 = 2.* 6 1 Y : ,.@ &.7 > 3 = ) & b = > : 4.> n S * S * q.+ Y y y : q.= 1 y 1 > o.Y = y 6 * y y ",
"O / H 9.* 1 Y = 1 J 1 + = * r.8 4.& > 2.& = ( & @ 7 O e.&.n % n b & > ) & ; * > 9.H 6 @ q.S & 8 Y + 1 @ S / ' 1 @ e.= * n 6 @ * ",
"x 6 & E > * 2 > Y : , # * > Y , &.> & n * Y : : + > > > 3 4.& = z > C : ; * : 8 e > Y * * z > B > * & e e > b b ; 6 > 8 2 : + o ",
"' % : * n * > e n + $ X > x o + * e : = y e ; + . x n + * < 8 > & &.h ; +   E = X & n > z * B : + . . 4.* o * n * 1 > Y O : + # ",
"g.* : * ) ) : * & : ] X ) g.* : & 2.n O : X : h . 2.Y > * : n z + : + , : * h.6 e & > n z   : # ] # * l.> > * e z > & : + < + > ",
"Y 2.> + & > ; ; + ] u + E n ) > & = 2 : : ; h < : r.Y &.+ : > z < o : -.+ > 2.Y B X > > > < * , ] + n J B B + ; = > * # ] < + C ",
"+ ..; + > > 4.h # ; ; 3 Y : >.+ = + 3 >.; , ; # > Y > B . : O 1 6.# : : # B n e < + > : e 2.X : o ; 2.8 B : ; < & #.< o : # : 4.",
"> >.; ] n < e X o + < Y y > | + Y 3 f ] X O + ..8 8 n e < >.y l < + X + ..e > 2 < : h > Y :   ; , ] > > ;.; < %.= ;.: o o < n > ",
"> > o h + > ; < # < n * O : ; ; f : : # ; : < ..* X 3 + ; u 3 $ # # ; ..B + + h # < h ; : ; ; ; Y 2 O * < # < > : > + & , %.< O ",
"..+ , ; : > + ; + f > > h h # : $ $ < + ; o ..& B : Y # ; ; : : : + ; o.+ h e < # # ; h ; ; ; : z & B < , $ ; & , ; ; o h 2 ; o.",
"f + < | Y l ,.+ 3 < + O l.> * , l q l q.O y ; # : f.: 7 : d.q O.f O o.+ O y a.= 3 3 q.= u.2 O f X : Y u.; f : &.7 q.: : < O + i.",
"> 2 + %.- + 1 l * 3 + 8 8 8 ; + q.= 1 1 e 2 # > 2 2 f + : ,.+ 1 7 2 2 @ : 2 1 1 : $ ,.: & 7 1 6 + : 2 6 : + Y y + 6 8 : e * 1 l ",
"q.2 + 1 1 1 * 1 x > : >.* 2.* : 6 @ 6 @ l 2 > ; q.= ,.+ : Y @ l @ Y : 1 2 ,.6 6 @ * 2 7 1 * K = : y H l > * 8 = 6 @ 1 / : * e.1 ",
"6 1 ,.p = l ( : - Y * ..b : b h S @ q.2 : 1 &.* Y 1 6 Y 1 l * q.& y 2 l * l 1 1 6 ( : 1 f.@ 6 1 f : 2 8 8 B > > l ,.& 2 8 2 2 f ",
"% q.6 i.* * / : = E > ; > & ) 8 q.* 2 H & 1 Y : + : * q.n Y * 7 6 = 6 l + = * 1 K l H O ,.2 * 6 ..+ * % n E n z + 2.= 2 8 8 * ; ",
"6 6 + 6 H * 1 : J * h X & C > * / : + l 2 l : @ O 1 > > > / = : 6 2 y : @ + 2 6 = 6 ,.@ : Y 6 6 : * & 6 > * 8 x * : 8 B * * ; X ",
"K O 1 + ( 1 * | b & + X > n > O = y > ; 2 y ; + O B n + O 6 > 2 $ | : $ @ + l = + @ y 6 : : ] : X + O r.* & * n > > : : < ;   : ",
"k.1 = @ 6 l 1 O o < h + <.4.= : & / o.+ # + < u + f.o.8 * 1 6 / + $ + u 3 @ l.6 l O 6 2 f O + ; -.; > r.8 > O n z > + ; # ..& > ",
"7 e.1 $ * * l $ & %.: + i.2 q.@ @ + l 2 + * p $ & 2.B &.+ * : 8 3 O : 3 ; > u.y #.+ ; * > > + , h . 8 ) 7., * : > > > + -.<   &.",
"O %.+ + l * ,.p + # ; : ,.1 o.; : 1 * &.: * ; # n B e ..X > : 2 &.; ; + * Y > 8 < # e * e &.+ # + > r.& %.< + > & n b   # o C 7.",
"l | $ d.l 2 |   o + ] ] 1 3 3 + Y 6 ..]   o # u.8 * 3 e > &.y y :   + $ o.< * &.< * o.: Y + O # : -.* : h < < %.> #.& ; X h B & ",
": : O 3 + 1 $ : ; ] ] ;   2 < ; 6 * # + $ ; ..: ; O 3 + : : ; : ; : # 6.< * X > X u 1 : ; ; # , 6.> & : < X < : ; ; + + u ..: & ",
"l : $ $ : : : $ + 3 3 1 H 6 + ; = @ f u + $ p * : Y p O : : : 3 ; + * h * h 4.> O ; : : : < # ; < + %.C ; ; : : < < ; + < < + 2.",
"l $ : d.Y l e.$ > 3 + O a.6 : < a.1 e ..+ ] + $ 2 i.p : 3 u.p ,.Y o #.. # > 4.: l ; f.3 >.< * f o ; n &.; e h &.h 4.: > : : * 4.",
"1 7 # d : = + o.> : @ 1 H y ; + Y 1 * 2 3 y : $ 6 6 3 ; # o.* : 8 > e : & B > 8 + , o.: $ 7 : y + 8 > 2 8 . e e + : 8 > < X e b ",
"f.@ $ d 1 f * y x : * k.& / ; $ n * ) O Y > : 1 q.1 &.@ * f 2 n & Y : : B ' > z + p 1 3 6 : H > ; B n B : ; > 8 B * = E > > 2.> "
};
