/* XPM */
static char *_300c7acaef14f9dbaf89d4c3a9b7c60Aj3HJZjxjNwMsjqk[] = {
/* columns rows colors chars-per-pixel */
"64 64 251 2 ",
"   c #0A0B04",
".  c #180502",
"X  c #171500",
"o  c #080D17",
"O  c #0B1117",
"+  c #12151B",
"@  c #18161A",
"#  c #280303",
"$  c #380304",
"%  c #261400",
"&  c #370811",
"*  c #351519",
"=  c #2A150F",
"-  c #292605",
";  c #382704",
":  c #28271A",
">  c #383503",
",  c #0F1B2A",
"<  c #0C1826",
"1  c #131B23",
"2  c #121E2C",
"3  c #171922",
"4  c #141F32",
"5  c #251C28",
"6  c #2B192E",
"7  c #14212E",
"8  c #1B232C",
"9  c #1C2327",
"0  c #162331",
"q  c #1A2534",
"w  c #1D2936",
"e  c #1E2A39",
"r  c #182639",
"t  c #1D323B",
"y  c #0F212D",
"u  c #25282B",
"i  c #34252A",
"p  c #232B34",
"a  c #222D3C",
"s  c #272936",
"d  c #2E3236",
"f  c #25313E",
"g  c #2A333C",
"h  c #29393E",
"j  c #343739",
"k  c #36312F",
"l  c #480502",
"z  c #590503",
"x  c #531316",
"c  c #6A0305",
"v  c #7B0502",
"b  c #6E1415",
"n  c #553900",
"m  c #493A0F",
"M  c #4A1B23",
"N  c #6B1A27",
"B  c #462329",
"V  c #443929",
"C  c #4E3333",
"Z  c #732324",
"A  c #692717",
"S  c #39423D",
"D  c #584D08",
"F  c #6B5002",
"G  c #726806",
"H  c #4E4A35",
"J  c #635739",
"K  c #6C5B2A",
"L  c #796D36",
"P  c #1E2D42",
"I  c #1E3B43",
"U  c #272D42",
"Y  c #263242",
"T  c #2A3544",
"R  c #263842",
"E  c #2C3946",
"W  c #2C3649",
"Q  c #2E3A49",
"!  c #27344B",
"~  c #343C45",
"^  c #323D4C",
"/  c #3A3C4C",
"(  c #363746",
")  c #353E51",
"_  c #3B3D52",
"`  c #2F3D51",
"'  c #46394A",
"]  c #643F47",
"[  c #34414E",
"{  c #39444A",
"}  c #364251",
"|  c #3A4654",
" . c #3C4956",
".. c #3C465A",
"X. c #3E4A59",
"o. c #364856",
"O. c #3E515B",
"+. c #2D444E",
"@. c #3E4D62",
"#. c #3F5263",
"$. c #45464A",
"%. c #564848",
"&. c #585447",
"*. c #434B55",
"=. c #424D5C",
"-. c #4A4C5B",
";. c #464655",
":. c #544856",
">. c #44515E",
",. c #4B525D",
"<. c #49565A",
"1. c #555758",
"2. c #485045",
"3. c #665A4D",
"4. c #736A50",
"5. c #444E61",
"6. c #494B63",
"7. c #465261",
"8. c #4A5564",
"9. c #4D5966",
"0. c #4B546B",
"q. c #4E5A6A",
"w. c #455369",
"e. c #525B65",
"r. c #525D6C",
"t. c #575766",
"y. c #545E72",
"u. c #5C5D72",
"i. c #50556A",
"p. c #69586A",
"a. c #4A616C",
"s. c #54616E",
"d. c #5A636D",
"f. c #52696F",
"g. c #566272",
"h. c #5A6574",
"j. c #5C6975",
"k. c #5E6A79",
"l. c #5C667A",
"z. c #4F6570",
"x. c #64696A",
"c. c #616D7C",
"v. c #666C75",
"b. c #76777A",
"n. c #6B6F78",
"m. c #911612",
"M. c #AA1B19",
"N. c #B3120B",
"B. c #9B3E00",
"V. c #B9260E",
"C. c #A91C26",
"Z. c #93272A",
"A. c #B42324",
"S. c #CF1514",
"D. c #C41E20",
"F. c #905419",
"G. c #8A6F0D",
"H. c #8B7328",
"J. c #B26A27",
"K. c #B1611A",
"L. c #E15C22",
"P. c #857551",
"I. c #847B72",
"U. c #968911",
"Y. c #AF9C14",
"T. c #B8A50E",
"R. c #968A2E",
"E. c #B5AA2B",
"W. c #D6BB06",
"Q. c #EEB513",
"!. c #CEBC3D",
"~. c #EBBC2E",
"^. c #D8963F",
"/. c #F3D614",
"(. c #F9E419",
"). c #D5C628",
"_. c #F4DB27",
"`. c #E9D72D",
"'. c #F7E52A",
"]. c #F5E839",
"[. c #98914C",
"{. c #918770",
"}. c #A4966A",
"|. c #A89977",
" X c #B8AA77",
".X c #B9AD75",
"XX c #AAA154",
"oX c #F1A649",
"OX c #C9B777",
"+X c #CBB76F",
"@X c #DAA84D",
"#X c #D7C756",
"$X c #D7CC4A",
"%X c #E7D847",
"&X c #ECD453",
"*X c #FCE647",
"=X c #F9E653",
"-X c #D4C474",
";X c #EDE06C",
":X c #687484",
">X c #747A86",
",X c #7B848F",
"<X c #8C8C8C",
"1X c #868686",
"2X c #96938E",
"3X c #858793",
"4X c #949494",
"5X c #9B9C9B",
"6X c #989998",
"7X c #8E918F",
"8X c #B6AC86",
"9X c #9A9BA1",
"0X c #A29FA6",
"qX c #9EA1A5",
"wX c #A4A4A3",
"eX c #ADADAC",
"rX c #A6A8A6",
"tX c #B1B2AE",
"yX c #ADADB2",
"uX c #B4B4B3",
"iX c #B9BAB6",
"pX c #B6B9BC",
"aX c #BBBBBB",
"sX c #B5B7B8",
"dX c #B1B0B1",
"fX c #A09C95",
"gX c #CABA88",
"hX c #CEBB8B",
"jX c #C0BEBF",
"kX c #BCC0B8",
"lX c #D6C896",
"zX c #EAD693",
"xX c #F6E299",
"cX c #F8EB85",
"vX c #C1C1BC",
"bX c #D6C8A5",
"nX c #EEDAAA",
"mX c #FAE7A9",
"MX c #F9EAB4",
"NX c #FFFBBD",
"BX c #F6EBA9",
"VX c #BABCC1",
"CX c #C5BFC1",
"ZX c #BFC1C0",
"AX c #C3C4C4",
"SX c #C8C7CA",
"DX c #CDCFD1",
"FX c #FFF9CA",
"GX c #DFDEE2",
"HX c #F9FAFD",
"JX c #EAEDED",
/* pixels */
"=.^ Q 7.} >.X.>.7.=.f >.=.7.e X.>.O.[ g  . .X.X.>.7.5.} Y 5.| =.=.7. .7.Y X.7.7.Y } 5.X.o.! } o.@.X.w.=.7.| W 5.| =.>.>.=.=.f X.",
"g.q...k.0.g.q.q.>. .f q.:X>X[ 9.q.q.c.[ s.9.d.q.:Xl.y.y...:X0.e.8.r.9.| f 8.:X>XQ q.q.y.l.o.f.8.g.q.k.:Xq.r.} k.q.r.9.9.q.>.Q s.",
"5.=.T 8.8.X. .^ Y q 7 [ >.s.e | X.X.9.T [  .X.X.| ..5.@.Q X.8.=.,.E g w 1 [ X.y.Y X.X. .s.Y E X.=.X.| =.7.7.Q  .>.=.>.[ f q w / ",
"r.=.r Y ) e f 0 w 7 T >. .q.e T X.7.[ 7 7 { >.O.w.X.q.w.0 T E E p 1 9 8 p >.X.g.f e =.=.} 0 0 +.X.7.5.} 9.9.0 T [ Y a 7 0 q 7 7 ",
"g.7.U | | X.T f X.^ E X. .r.f a Q a Q a E w T | w =.e.0.Y | *.~ 7 7 y o p { *.r.f f g T / w a a ^ =.f | g.q.T ^ |  .^ f  .} 0 T ",
"..} } g.r.g.>.X.j.g.g T [ 8.^  .Q ^ 9.0 f f p p g T  .~ { r.e.d + 4XpX6Xg O g ,.~ *.T g 9.Y p a 2 q Y Q } } ^ r.r.s.8.} g.k.e f ",
"| T Q @.X.8.X.[  .r.0 a Y f Y =.| =.d.p d p 7 9 T  .*.T ( ~ o { rXkXsXuXpX9Xu d g $.,.| *.7 g { } U Q ^ X.Q Q =.| >.9.Q  .s.e a ",
"c.=.T 7...g.8.E 8.h.2 a 0 2 T =.*.,.,.+ p q u y u ;.1./ O 9 3XpXkXyXrX5XVXVX>X  d *.j 9 8 1 *.d.l.} >.r.k.8.a =.=.q.r.Q X.j.f  .",
"..Q 4 Y [ =.f 0 >.>.w [ ^ w w *.-.;.p 3 $.qXsXpXt.@ @ o 1.sXsXaXtX7XsXuXiXiXyXd @ d + x.SX:X3 -.>.^ p Q ^ | 2 a E | ^ 2  .9.T | ",
"| Y , e 4 q 0 f ^ 8.0 2 f w 0 T g 3 1XSXAX5XeXsXjX5X1Xb.6XaXsXdX7XrXaXuXuXuXSXx.  d yXVXVX3Xs *.j.| e | | T 7 q 7 0 e a Q =.} X.",
"l.X.e Q Y T a ^ ^ 9.Q  .q.8.7 q ( x.0XsXdXuXeXsXuXuX1Xb.rXpXaXfX6XSXuXiXaXuXiXvX$.3XVXsXVXAX1.8 j.~ q.c.h.s.0 E E a 0 ^ } 7.| X.",
"8.7.4 a e Y 0 } 8.=.f [ 9.e.^ 8 JXHX4X5XAXsX{.yXiXvX1X7XaXuXuX6XwXuXuXrXaXuXrXiXwXyXsXpXdXSXt.u d.Q | >.>.7.0 w a T w ^ =.0.W X.",
"0.8.e T T Q e T >.r.w  .X.g.} o 3XHXGX2XtXkXfXtXuXtX1X<XjXiXeX2XvXuX6X5XjXrX<XeXeXiXaXuXiXaXeXd *.~ Q  .7.9.w E f Q a a 8.g.U o.",
"8. .! g.g.h.X.Y 9.8.[  .7.e.T 2 s AXHXGXwXvXtXrXaXaX2X1XiXaX5X<XaXtX<XjXsXdXeX5XeXiXdXiXaXsXyX<Xq T a =.>.>.E 8.k.g.8.T 7.q.e T ",
"y.o.T 8...>.,.[ =.| T =.X.q.a *.{ u DXJX<XuXtX<XsXsXeX4XpXyX1X5XaX5X6XiXuXwXdXtXiXiXuXvXeXrXwX0Xg T | X.7.9.q =.X...0.Q X.7.T | ",
"Q T 0 E e Y T 0 0 ^ 2 Y a E a a p + $.GXiXiXtX5XuXaXyX<XaXiX<XvXSX5XSXuX4X0X6X6XaXtXvXrXeX5XDXb.1 w f E Q T 0 Q f e Q 0 P Y 0 T ",
"8.Y  .8.8.Q ^ >.=.>.f =.| X.>.=.8.t.O SXJXwXiXiXiXkXtX4XyX5XfXfX$.H &.x.wXpX4XeXiXuXrX4XuXvX,Xu  .>.=.7.9.E ^ 7.7.{ E >. .7.T [ ",
"7.a X.j.,X .=.g.9.c.| =.r.d.9.k.:Xi.( n.GX2XtXiXrXwXiXrX5X4XS H &.4.3.k &.4X4XkXtXaXyXyXaX1.9 9.e.g.>.q.=.f X.g.,X0.[ s.r.h.>.>.",
"0 0 [ | r.E Q X.| 9.^ ^ | >.|  ...*.-.s SXb.rXvX6XfXCXfX7X&.H {.MXFXFX8XH V 2XkXkXeX9XyX1.o ^ 5. .| | T e 7 Y  .8.| a =. .9.X.^ ",
"e 7 | =.s.E q =.=.=.0 2 E X.>.=.=.8.s.8 ( n.wXaXfX<XiXeX&.4.nXFXBXNXNXMXMXK 3.kXeX2XVXp.d g e ^ T a w 2 0 w [ =.q.X.w [  .| f 0 ",
"| T =.^ r.^ f f T E f a R f X.f +.O.v.2 4 3X>XVXeX1XrXCXk 2XmXOXxXBXmXmXMX XH SXdX<XuXd i.T |  .=. .w | =.T X. .8.| 0 Y T Q T T ",
"j.[ T ^ 7.Q | [ f 9.Q w T , w f h { [ E / ' 9X9XCX<XfXfX4.hXOX+X+XmXxXmXxXzX3.{.0XyX>X3 ^ / -.s.9.h.[ h.h.| Y f >. . .| Y *.>.| ",
"r.f 2 Y f f X.=. .s.T w | } T T +.{ Q ^ 6 W >X3XaX0X1XH 4.lXOX+X-X-XxXmXcXMX4.3.6XuX:.3 ,.g | =.| q.E | 8.} 7 a T w [ 7.| q.X.^ ",
"j.T w 0 7 0 =. .| h.^ ^ s.c.| | z.k.s.a _ U _ :X0XCXdXH J lXOX+X+XOXxXxXxXMXP.3.vX4Xu 1.v.s [ =.8.h.^ | j.~ 7 e 2 7  .=. .s.} f ",
"9.T T Q T 0 ^ =.X.r.[ [  .>.| e E Q [ q p o ' x.9XqXAX4.J 4. XOXhXhXzXxXzXMX}.H kXv.+ S $.0 2 T ^ } 7 Q 9.^ a [ T 7 Q >.=.9.^ 2 ",
"8.E 2 w Y 7 f | | 8.|  . .h.=.a ` X.~ 9 s 8 < p n.5XaXfXV J K OXK x hXmXxXMX4.k rXu h <.( a a 4 7 q e f >.^ 0 7 a 0 e ^ | 9.| 2 ",
"9.^ [ r.h.E , e E E w =.X.r. .=.:Xj.h.f g ( 1 $.j <X<X5X&.P.{.gX}.L ; P.MXgXH 1X<X1 v.h.l.U U Q T e T } >.X.^ 9.j.^ 1 a f T e q ",
"q.E f >.s.^ >.r.8.s.T =. .9. .^ | | d.q q p 9 p wXHXDXeXk I.bXgXOXFXI.# gXlX- tX~ g *.X.y.U r a Y w p >.8.^ a =.r.=.| r.9.g.Q q ",
"h.T [ | 9. .=.r.8.j.Q Y  .h.=.w 7.8.q.U T T ~ 9 x.JXHXHXVXk m hX.XlXmX XnX}.H x.9 f >.@.c.a W T Q T w | g.[ ^ | 9.=. .r.7.j. .w ",
"9.[ } >.j.E ~ =. .9.^ f =.r.^ e X.X.7.Q 0.h.d.g.1 f.SXHXtXk - gX.XOXnXFXnXV {.&.u w X.@.5.E 5.c.s.h.T | r.[ | =.g.| f 8. .7.=.[ ",
"7.T | =.7.^ T =.T =.} E | 7.| Q w.w.q.e / 0.) q.S 1 p 4X%.H 3.|..XzXMXzXC 3.<Xd *.f w.w.y.g h <.[ 8.E  .=.[ E =.=.| T  .^ | [ a ",
"T 7 w f a Y T w q E w a w w f w Q Y Q 0 E Y 0 E t y :   - ; L hX X.Xl ; P.P.1.@ f t E ! T 7 h g q T f 7 f w 0 f a T a f 7 T e e ",
"=.8.8.9.9.>.| ^ 9. .8.>.8.8.=.T t.,.9.! @.7.<.O.R <.- [.XXG G .XNX.XXX X}.{.: <.<.h O.q.a.t *.,.=.>.Y >.>.=.8.8.0.7. .Q q.X.8.7.",
"r.9.8.c.s.r.8.=.j.9.r.8.8.8.~ Y -.:X:X) a.w.<.j. .2.- $X#X$X%X;X-XH.P.8XL -X4.: $.s #.:Xc.+.0.e.9.c./ 9.r.g.7.k.k.r.0.X.j.g.q.q.",
" .>.| =.=.>.| ^ =.8.| | T a 0 q _ 8.e.e ..5.7.t.u X Y.*X#X$X`.].].$X[.[.-X;XL X u 4 ^ =.a.p {  .=.r.e ^ X.>.7.X.X.=.8.Y ..=.o...",
"^ =.>. .| s.>.2 a ^ a a 0 0 e a w...g.2 W -.' B . % T.].G X W.(.(.`.;XcX$X$XG.- u s 6.-.f.w f >.| [ q , T X.X.X.X.9.0.0 Y ) T 0 ",
"p Q } T  .h.=.f >. .=.Q Q 7.| ^ ....w.R g k l l x F.].`.D G ).).(._.%X;XE.D #XD : / -._ i.W U Y T T f E Y Q } Y } r.q.E | X.X.| ",
"e 2 q f f [ ^ | s.9.g.=.=.h.8.f ! ) 7.+.*.& m.M.m.K.=XU.  X U.T.W.W._.].$Xn &XF H ( a | 0.Q X.` E s.0 e Y , U e T | ! [ q.y.q.r.",
" . .T  .=. .T ^  .| 8.=.^ 7.e.7 0 R t Q 6 x S.S.N.N.^.F.- S   G *X(.(.'.$XF &XK.# 3 r P e Y 7.o.=.q.Y T X.| W } | 5.[ T 5.X.w.q.",
"g.h.E 7.r.c. .a >.=.s.>.T 8.r.0 f 0 , T C c S.S.S.m.b x S <.k D )./././.!.n ^.F.% 3 P r y f ..5.5.g.a @.g.k.Q 5.s.l.0.e =.| g.r.",
"=.>.f a T ^ E < f R ^ Y 0 >.7.w T ) a p ;.B v A.C.z * :.U a k . n F Q.Q.G.# l A # : Y Q d 8 ;.6.X.y.E X.X.7.Q q T Q ) , e E } Q ",
"=.h.Q T =.=.E 7 q 7 q q e [ 7.0 a q Y y d C x b x $ ' :X[ ( : D H.K.Q.Q.U.$ l z * = 9 f g 3 W _ 5.5.Q X.X.l.} Q X.X.} , e 0 4 r ",
">.r.[ s.c.s.=.e Q [ T q  .} 8.^ ;.u.z.0 8 d C o i t.O.f.o.2.> #X*X_./._.#X$ c Z Z $ :.a.e.p 8 p T T T 7.X.h.} w.:Xg.0.e [ Q T e ",
"=.9.f  .| 8.>., e q f 0 [ =.9.p Q 0.w.I s.e.0.y.f o.O.a.E : F `.(./._.`.$Xn z Z.m.$ ( w.s.R a.s.r.r.Y X...g.) | X.@.9.2 0 e Y 2 ",
"=.j.a ^  .r.=.w / Q } f Y q.q.a  .o.a.o.9.8.q.s.a  .>.j.d   E.'._._.G T.=XT.$ Z Z # $.X.y.+.<.a.7.h.Y ..#.g.Q T =.7.r.f ^ Q } T ",
"=.g.w E >.8.| ^ s.g.g.=.E 8.=.^ O.q.z.e } =.X.8.e ^ o.1.: D ).(._.G.  U.].T.# x x i 2.<.g.P } X.=.q.e T X.h.T Y =.7.=.Y r.h.s.s.",
"[ 8.E =.>.8.| a >.[ =.>.E =.X.Y X.} 6.U ' 6.! 5.Q } h x.X R.]._.$X% > ;X'.T.D : @ u <.{ w.T +.X.T @.^ | } 0.E } 5.9.=.a =. .| >.",
"0 Y 7 T T E f 7 E a a w w w e 0 P Y T a W r e Q y Y w : > E.'.].R.% > Y.`.`.H.X { 7 w w ! e W r e E 0 e 0 T 0 U Q T T 7 T a w E ",
"r.} | r.7.8.8.q.r.=.T 9.s.9.T 7.0.0.>.~ >.8.9.8.q.q.g.u F =X_.T.> 3.> D ].].G.. h O.<.<.>.! w.w.0.7.q.q.q.X.^ q.X.0.w.y.9.8.Q 7.",
"r.7.=.g.8.q.8.w.| ^ f 9.:Xc.^ q.0.i.s.[ z.8.r.6.k.l.w.- F *X=XG - 9.S > ~.;XJ.# u f.O.9.j.} 0.w.q.0.k.c.0.r.| l.y.r.8.X.7.Q Q r.",
"8...T X.7...| T f w 0 / >.8.0  .| =.9.e ! @...=...-./ # B.oX@Xn S h h X B.L.J.l @ | 5.X.9.t ^ 5.=.=.| X.5.=.! } X.X...} a 0 q Q ",
"g.X.4 T Q Y 0 7 0 7 E >.7.q.e T -.*.T 2 r Q @.5.@.6.%.l N.L.F.. u y w . m.V.m.N u e =.| { 7 2 Y =. .=. .r.7.4 E Q U 0 0 0 a 7 7 ",
"g.8.T 0.=.8.E ^ 9. .[ | | q.f T p Y / a / a ^ } U ;.] c N.N.l %.j ~ r.* m.V.c B ( Y f u { u T Y T  .e | s.q.Q ..7.7.| T 9. .e Q ",
"` E } q.q.g.=.=.s.q.f T [ >.Q =.+.^ r.0 r p 2 a ! i x m.D.M.& p.1.| v.:.c A.b M '  .+.S 9.q f w 7 q f T T ^ Q y.q.g.w.} j.s.0 e ",
"7.Q [  .X.9.X.^ 7.q.7 0 a a T >.X.8.0.w / 6.*.d | ] c A.M.v B t.6._ =.p.l m.c $ k >.*.O.g.r W 5.X.T |  .8.^ Q =.| 8.7.^ | s.w E ",
"k...a 7.| j. .T 9.s.7 f q < T =.X.=.s.w 7.r.t.~ -.C m.N.v x :.u.6.U i.p.l Z.Z.c & %.*.*.l.P 5.y.h.^ X.q.k.w.q X.=.q.8.T 7.h.a =.",
"^ f 2 a R [ f 0 =.>.q T [ q q X.=.7.9.T @.o.9.d 6 l N.A.z & ' ( p w ;.:.$ b M.A.b M ' 6.0.) | =.8.T e f [ T < w Y } f 0 | 8.T =.",
"=.Q 2 w w q 0 Y [ >.q w f f 0 T | =.=.^ X.w.h./ i x C.C.l @ 5 s w p W t.5 $ c M.N # ' 0.6.` 5.X.c.Q ^ =.=.[ 7 e 0 q 0 f ^ =.[ =.",
"s.>.a Q E f e } } 8.T 5.g.r.e r U W T g @.@.g._ 6 M Z.b * g / g a ..;.i.j $.B . . 6 U Q ! U @.@.r.} 9.j.j.8.e Q | Y q | | 8.| X.",
"q.| , q w Y q [ 9.8.a } 5.8.Q l.g.g.1.g 7.o.q.Q ;.* # # 5 e 7 R 4 Q 6.0.q S  .{ g u.v.e.y.W 5.o.q.Q [ | 7.>.7 q 0 a 7 ^ >.9.T | ",
"r.=.f [ [ | a Y 9.7.a =.0.g.Q 0.w.0.r.u *.=.y.P _ ' ;.$.e ) o.+.t T 0.0.! o.<.h.+.X.8.,.g.r ..5.c.U Q >.8.>.f ~ ^  .E f 8.r.a | ",
">.| ^ s.h.g.| / 9.8.W w.>.7.f X.w...e.p j -.l.U ` 5.,.| ` y.q.f.<.Y 0.0.E O.=.g.P o.=.*.a.Y Y ..g.Y T X.=. .E e.j.d.>.T =.q.e Q ",
"r.[ f  .|  .| E X.| P X.X.7.T } } W O.h { [ 0.! X.O.,.$.s ;.o.X. .f ;.=.a ' 6.=.P o.@.e O.f _ _ 8.[ } >.9.>.p  .[ { =.^ } =.Y } ",
"^ a e Q w a Y e e T 0 Y e E e W e a h y h 7 ! r Y T ( d s ( P t R p q U s U U U ! ! r Y Q 7 ( r T q f Q E f 7 Q a f f w e Y q T "
};
