/* XPM */
static char *c6971734b3ae4d50bd58dcf9983d69caO7HkfSZX0CwtAoPq[] = {
/* columns rows colors chars-per-pixel */
"64 64 167 2 ",
"   c black",
".  c #000001",
"X  c #020202",
"o  c gray1",
"O  c #040100",
"+  c #070300",
"@  c gray2",
"#  c #070707",
"$  c #0B0000",
"%  c #0F0000",
"&  c #0B0700",
"*  c gray4",
"=  c #0B0B0B",
"-  c #110000",
";  c #150000",
":  c #1C0000",
">  c #100A00",
",  c #140C00",
"<  c #121211",
"1  c #131313",
"2  c gray10",
"3  c gray12",
"4  c #210000",
"5  c #2D2D2D",
"6  c gray21",
"7  c gray22",
"8  c #490506",
"9  c #570706",
"0  c #5A0706",
"q  c #781212",
"w  c #74391B",
"e  c #483C29",
"r  c #4C4413",
"t  c #4E4314",
"y  c #5E5418",
"u  c #665814",
"i  c #4B412E",
"p  c gray26",
"a  c gray27",
"s  c #505050",
"d  c #585858",
"f  c #5B5B5B",
"g  c #625D43",
"h  c #72664C",
"j  c #6B695C",
"k  c #756A50",
"l  c gray45",
"z  c #767676",
"x  c gray48",
"c  c #7C7C7C",
"v  c #7D7D7C",
"b  c #7E7E7E",
"n  c gray50",
"m  c #8E0A0A",
"M  c #9F0605",
"N  c #901313",
"B  c #AA0000",
"V  c #AF0000",
"C  c #AD0B0B",
"Z  c #A80D0D",
"A  c #A90D0D",
"S  c #B20000",
"D  c #BD0606",
"F  c #B41400",
"G  c #B11800",
"H  c #B41718",
"J  c #C60303",
"K  c #CB0101",
"L  c #CB0202",
"P  c #D20000",
"I  c #DA1C00",
"U  c #D40F10",
"Y  c #E20201",
"T  c #ED0807",
"R  c #E90908",
"E  c #F50302",
"W  c #FA0303",
"Q  c #FE0000",
"!  c #C72000",
"~  c #D12400",
"^  c #D42700",
"/  c #9B4A22",
"(  c #9B4A23",
")  c #896858",
"_  c #807456",
"`  c #807557",
"'  c #807C73",
"]  c #AD9F28",
"[  c #CFBA00",
"{  c #CEBA03",
"}  c #CFBA03",
"|  c #D0BC00",
" . c #D3BD00",
".. c #CBB813",
"X. c #C8B71B",
"o. c #C7B81A",
"O. c #D3B510",
"+. c #FEB302",
"@. c #C2B225",
"#. c #C8B620",
"$. c #D6C001",
"%. c #DCC80D",
"&. c #E0C905",
"*. c #E5CF15",
"=. c #FDE403",
"-. c #FEE304",
";. c #FDE405",
":. c #FCE308",
">. c #F9E218",
",. c #ADA44F",
"<. c #888669",
"1. c #9A8F72",
"2. c #A99B78",
"3. c #B9A46B",
"4. c #B9A46C",
"5. c #C6AF75",
"6. c #CBB676",
"7. c #CCB577",
"8. c #CCB677",
"9. c #CEB874",
"0. c #C6B27E",
"q. c #CBB678",
"w. c #C9B67D",
"e. c #818181",
"r. c #868686",
"t. c #8B8B8B",
"y. c #8D8D8D",
"u. c #929292",
"i. c gray59",
"p. c gray62",
"a. c #BEBA99",
"s. c #A2A2A2",
"d. c gray64",
"f. c gray65",
"g. c gray66",
"h. c #A9A9A9",
"j. c #AFAFAF",
"k. c gray69",
"l. c #B2B2B2",
"z. c gray70",
"x. c #B4B4B4",
"c. c #B7B7B7",
"v. c gray72",
"b. c #B9B9B9",
"n. c #C0B186",
"m. c #C8B580",
"M. c #D3C297",
"N. c #EBD28C",
"B. c #F6DC95",
"V. c #FEE395",
"C. c #FBE199",
"Z. c #F6E3AE",
"A. c LightGray",
"S. c gray84",
"D. c #FAF2CD",
"F. c gray90",
"G. c gray92",
"H. c gray93",
"J. c #F3E6E6",
"K. c #F1F1F1",
"L. c gray95",
"P. c #F6F6F5",
"I. c #F5F6F6",
"U. c #F6F6F6",
"Y. c #F7F6F6",
"T. c #FBFBFB",
"R. c #FEFEFE",
/* pixels */
"U.U.U.U.U.U.U.U.U.U.U.U.U.U.U.U.U.U.U.U.U.U.U.U.U.U.U.U.U.U.U.U.U.U.U.U.U.U.U.U.U.U.U.U.U.U.U.U.U.U.U.U.U.U.U.U.U.U.U.U.U.U.U.U.",
"U.U.U.U.U.U.U.U.U.U.U.U.U.U.U.U.U.U.U.U.U.U.U.U.U.U.U.U.U.U.U.U.U.U.U.U.U.U.U.U.U.U.U.U.U.U.U.U.U.U.U.U.U.U.U.U.U.U.U.U.U.U.U.U.",
"U.U.U.U.U.U.U.U.U.U.U.U.U.U.U.U.U.U.U.U.U.U.U.U.U.U.U.U.U.U.U.U.U.U.U.U.U.U.U.U.U.U.U.U.U.U.U.U.U.U.U.U.U.U.U.U.U.U.U.U.U.U.U.U.",
"U.U.U.U.U.U.U.U.U.U.U.U.U.U.U.U.U.U.U.U.U.U.U.U.U.U.U.U.U.U.U.U.U.U.U.U.U.U.U.U.U.U.U.U.U.U.U.U.U.U.U.U.U.U.U.U.U.U.U.U.U.U.U.U.",
"U.U.U.U.U.U.U.U.U.U.U.U.U.U.U.U.U.U.U.U.U.U.U.U.U.U.U.U.U.U.U.U.U.      U.U.U.U.U.U.U.U.U.U.U.U.U.U.U.U.U.U.U.U.U.U.U.U.U.U.U.U.",
"U.U.U.U.U.U.U.U.U.U.U.U.U.U.U.U.U.U.U.U.U.U.U.U.U.U.U.U.U.U.U.U.  v.c.d.    U.U.U.U.U.U.U.U.U.U.U.U.U.U.U.U.U.U.U.U.U.U.U.U.U.U.",
"U.U.U.U.U.U.U.U.U.U.U.U.U.U.U.U.U.U.U.U.U.U.U.U.U.U.U.U.U.U.    c.c.c.c.c.c.  U.U.U.U.U.U.U.U.U.U.U.U.U.U.U.U.U.U.U.U.U.U.U.U.U.",
"U.U.U.U.U.U.U.U.U.U.U.U.U.U.U.U.U.U.U.U.U.      @ U.U.U.d   c c.c.c.c.u.c.c.c.K.U.U.U.      U.U.U.U.U.U.U.U.U.U.U.U.U.U.U.U.U.U.",
"U.U.U.U.U.U.U.U.U.U.U.U.U.U.U.U.Y.Y.      x.c.c.x       s c.c.c.c.c c.c.c.c.c.  U.U.  c c.c.H.U.U.U.U.U.U.U.U.U.U.U.U.U.U.U.U.U.",
"U.U.U.U.U.U.U.U.U.U.U.U.U.U.U.U.Y.H.v.v.c.e.c.c.c.c c c d.c.c.c.c c.c.c.c.c.c.@ U.  e.v.c.c.H.U.U.U.U.U.U.U.U.U.U.U.U.U.U.U.U.U.",
"U.U.U.U.U.U.U.U.U.U.U.U.U.U.U.U.    c.c.c.c.c.c.c.c.c c d.c.c.c.c.c.c.c.c.c.c.c.  x c.c.c.c.@ U.U.U.U.U.U.U.U.U.U.U.U.U.U.U.U.U.",
"U.U.U.U.U.U.U.U.U.U.U.U.U.U.U.  R.R.c c.c.c.c c.c.c.c c c.c.c.c.c.c.c.c.c.c.c.c.c c.c.c.c.c.* U.U.U.U.U.U.U.U.U.U.U.U.U.U.U.U.U.",
"U.U.U.U.U.U.U.U.U.U.U.U.U.U.U.  c.R.c.c c.c.n c.c.c.c c c.c.c.c c.c.v.u.c.c.c c.v.c.c.c.c.c.c   U.U.U.U.U.U.U.U.U.U.U.U.U.U.U.U.",
"U.U.U.U.U.U.U.U.U.U.U.U.U.U.U.    R.R.c.c.c.c.c.c.c.c c c.c.c.c c.c.x c.c.c.c c c.c.c.c.c.c.v.c   U.U.U.U.U.U.U.U.U.U.U.U.U.U.U.",
"U.U.U.U.U.U.U.U.U.U.U.U.U.U.U.U.U.* R.R.x c.c.x c.c.c.c c.c.e.' c.c.c c.c.c.c.c.c.c.c.c.c.c.c v.  U.U.U.U.U.U.U.U.U.U.U.U.U.U.U.",
"U.U.U.U.U.U.U.U.U.U.U.U.U.U.U.U.U.H.l.R.e.c.c.n c.c.c.c v.v.c v.c.c c.c.c.c c.c.c.c.c.c.c.c v.l.@ U.U.U.U.U.U.U.U.U.U.U.U.U.U.U.",
"U.U.U.U.U.U.U.U.U.U.U.U.U.U.U.U.U.U.  T.R.c.c.c.c.c.c.c c.c.' v.j.z l.p.' c.l.c.c.c.v.c c.c.l.= U.U.U.U.U.U.U.U.U.U.U.U.U.U.U.U.",
"U.U.U.U.U.U.U.U.U.U.U.U.U.U.U.U.U.U.p r.R.f.c.c.c.c.c.c.d.x f t.e e e e r.h.c c.c.c.c.c.c.r.p U.U.U.U.U.U.U.U.U.U.U.U.U.U.U.U.U.",
"U.U.U.U.U.U.U.U.U.U.U.U.U.U.U.U.U.U.U.  S.e.c.c.c.c.c.c.t.6 h ` C.D.D.0.k 6 x c.c.c.i.i.s t.K.U.U.U.U.U.U.U.U.U.U.U.U.U.U.U.U.U.",
"U.U.U.U.U.U.U.U.U.U.U.U.U.U.U.U.U.U.U.A.2 c.r.c.c.r.c.c.7 M.B.V.V.R.R.C.B.2.1 c.v.e.j.1 A.U.U.U.U.U.U.U.U.U.U.U.U.U.U.U.U.U.U.U.",
"U.U.U.U.U.U.U.U.U.U.U.U.U.U.U.U.U.U.U.U.  U.c c.c.c c.c.p V.9.9.C.Z.Z.V.B.V.  c.c.c c.  U.U.U.U.U.U.U.U.U.U.U.U.U.U.U.U.U.U.U.U.",
"U.U.U.U.U.U.U.U.U.U.U.U.U.U.U.U.U.U.U.U.K.G.c.c c.c c v.1.8.q.6.8.V.V.V.V.V.n.c.c c.h.K.U.U.U.U.U.U.U.U.U.U.U.U.U.U.U.U.U.U.U.U.",
"U.U.U.U.U.U.U.U.U.U.U.U.U.U.U.U.U.U.U.U.U.h.R.c c.c.c c _ 6.6.q.8.8.V.C.V.V.w.l.c c.l U.U.U.U.U.U.U.U.U.U.U.U.U.U.U.U.U.U.U.U.U.",
"U.U.U.U.U.U.U.U.U.U.U.U.U.U.U.U.U.U.U.U.U.1 R.R.c c.c.c _ 6.q.6.6.8.V.V.V.V.Z.l.c.c.1 U.U.U.U.U.U.U.U.U.U.U.U.U.U.U.U.U.U.U.U.U.",
"U.U.U.U.U.U.U.U.U.U.U.U.U.U.U.U.U.U.U.U.U.1 c.R.c.c.c.c.k   8.q.6.6.8.V.V.B.Z.' v.c 1 U.U.U.U.U.U.U.U.U.U.U.U.U.U.U.U.U.U.U.U.U.",
"U.U.U.U.U.U.U.U.U.U.U.U.U.U.U.U.U.U.U.U.U.U.  R.R.x c.v.5 q.  6.O   4.V.V.V.8.x v.  U.U.U.U.U.U.U.U.U.U.U.U.U.U.U.U.U.U.U.U.U.U.",
"U.U.U.U.U.U.U.U.U.U.U.U.U.U.U.U.U.U.U.U.U.U.  c.R.c.c c p 6.4.q.q.3.  i V.V.  c.c   U.U.U.U.U.U.U.U.U.U.U.U.U.U.U.U.U.U.U.U.U.U.",
"U.U.U.U.U.U.U.U.U.U.U.U.U.U.U.U.U.U.U.U.U.U.U.  v.R.R.c.5 q.6.6.3.R.R.  V.V.  c.  U.U.U.U.U.U.U.U.U.U.U.U.U.U.U.U.U.U.U.U.U.U.U.",
"U.U.U.U.U.U.U.U.U.U.U.U.U.U.U.U.U.U.U.U.U.U.U.U.@ R.R.R.A.    6.8.8.V.V.B.8.  @ U.U.U.U.U.U.U.U.U.U.U.U.U.U.U.U.U.U.U.U.U.U.U.U.",
"U.U.U.U.U.U.U.U.U.U.U.U.U.U.U.U.U.U.U.U.U.U.U.U.K.c c.R.R.R.  6.q.8.C.V.C.O c @ U.U.U.U.U.U.U.U.U.U.U.U.U.U.U.U.U.U.U.U.U.U.U.U.",
"U.U.U.U.U.U.U.U.U.U.U.U.U.U.U.U.U.U.U.U.U.U.U.U.U.    i.R.w ( ' 3.V.V.N.  ( c.K.U.U.U.U.U.U.U.U.U.U.U.U.U.U.U.U.U.U.U.U.U.U.U.U.",
"U.U.U.U.U.U.U.U.U.U.U.U.U.U.U.U.U.U.U.U.U.U.U.U.U.U.U.  d.R.w R.m.4.    c.w c.K.U.U.U.U.U.U.U.U.U.U.U.U.U.U.U.U.U.U.U.U.U.U.U.U.",
"U.U.U.U.U.U.U.U.U.U.U.U.U.U.U.U.U.U.U.U.U.U.U.U.I.Y.  | ,.R.R.c R.6.6.q.x c.  U.U.U.U.U.U.U.U.U.U.U.U.U.U.U.U.U.U.U.U.U.U.U.U.U.",
"U.U.U.U.U.U.U.U.U.U.U.U.U.U.U.U.U.U.U.U.U.U.U.U.I.Y.  { %.{ ;.;.a.R.R.5.w ;...K.U.U.U.U.U.U.U.U.U.U.U.U.U.U.U.U.U.U.U.U.U.U.U.U.",
"U.U.U.U.U.U.U.U.U.U.U.U.U.U.U.U.U.U.U.U.U.U.U.U.Y.  { -.=.=.-.;.-.-.c.) c.;...K.U.U.U.U.U.U.U.U.U.U.U.U.U.U.U.U.U.U.U.U.U.U.U.U.",
"U.U.U.U.U.U.U.U.U.U.U.U.U.U.U.U.U.U.U.U.U.U.U.U.    | =.y   { -.-.-.;.F.=.;...K.U.U.U.U.U.U.U.U.U.U.U.U.U.U.U.U.U.U.U.U.U.U.U.U.",
"U.U.U.U.U.U.U.U.U.U.U.U.U.U.U.U.U.U.U.U.U.U.    U ..;.;.r | { { ;.=.=.F.{   :.& U.U.U.U.U.U.U.U.U.U.U.U.U.U.U.U.U.U.U.U.U.U.U.U.",
"U.U.U.U.U.U.U.U.U.U.U.U.U.U.U.U.U.U.U.U.U.1 Q B U >.;.{     { | { { ;.;.{   :.& U.U.U.U.U.U.U.U.U.U.U.U.U.U.U.U.U.U.U.U.U.U.U.U.",
"U.U.U.U.U.U.U.U.U.U.U.U.U.U.U.U.U.U.U.U.U.H Q Q B L ;.{ p.I.  & ;.=.;.=.;.  :.F   U.U.U.U.U.U.U.U.U.U.U.U.U.U.U.U.U.U.U.U.U.U.U.",
"U.U.U.U.U.U.U.U.U.U.U.U.U.U.U.U.U.U.U.U.U.N Q Q Q S L   U.U.U.O =.;.=.=.=.  :.F   U.U.U.U.U.U.U.U.U.U.U.U.U.U.U.U.U.U.U.U.U.U.U.",
"U.U.U.U.U.U.U.U.U.U.U.U.U.U.U.U.U.U.U.U.U.1 L Q E B   I.I.I.U.$ w w +.+.w   - L   U.U.U.U.U.U.U.U.U.U.U.U.U.U.U.U.U.U.U.U.U.U.U.",
"U.U.U.U.U.U.U.U.U.U.U.U.U.U.U.U.U.U.U.U.U.U.  L Z o I.I.I.I.U.O w w +.+.w   U.m   U.U.U.U.U.U.U.U.U.U.U.U.U.U.U.U.U.U.U.U.U.U.U.",
"U.U.U.U.U.U.U.U.U.U.U.U.U.U.U.U.U.U.U.U.U.U.U.  # U.I.I.I.I.o { ;.=.=.&.{   U.C L   U.U.U.U.U.U.U.U.U.U.U.U.U.U.U.U.U.U.U.U.U.U.",
"U.U.U.U.U.U.U.U.U.U.U.U.U.U.U.U.U.U.U.U.U.U.U.U.I.I.I.I.I.I.& { =.;.:.&.|   - W L   U.U.U.U.U.U.U.U.U.U.U.U.U.U.U.U.U.U.U.U.U.U.",
"U.U.U.U.U.U.U.U.U.U.U.U.U.U.U.U.U.U.U.U.U.U.U.U.I.I.I.I.U.# $.=.;.:.X.%.;.{ - S L   U.U.U.U.U.U.U.U.U.U.U.U.U.U.U.U.U.U.U.U.U.U.",
"U.U.U.U.U.U.U.U.U.U.U.U.U.U.U.U.U.U.U.U.U.U.U.U.I.I.I.I.K.* | =.:.@.  u -.|   q A @ U.U.U.U.U.U.U.U.U.U.U.U.U.U.U.U.U.U.U.U.U.U.",
"U.U.U.U.U.U.U.U.U.U.U.U.U.U.U.U.U.U.U.U.U.U.U.U.I.I.U.U.d $.=.=.|     &.:.{ > = * U.U.U.U.U.U.U.U.U.U.U.U.U.U.U.U.U.U.U.U.U.U.U.",
"U.U.U.U.U.U.U.U.U.U.U.U.U.U.U.U.U.U.U.U.U.U.U.U.U.U.U.U.g $.=.=.] 3 3 #.;.$...K.U.U.U.U.U.U.U.U.U.U.U.U.U.U.U.U.U.U.U.U.U.U.U.U.",
"U.U.U.U.U.U.U.U.U.U.U.U.U.U.U.U.U.U.U.U.U.U.U.U.U.U.U.U./ =.=.*.j U.U.t =.;...y.U.U.U.U.U.U.U.U.U.U.U.U.U.U.U.U.U.U.U.U.U.U.U.U.",
"U.U.U.U.U.U.U.U.U.U.U.U.U.U.U.U.U.U.U.U.U.U.U.U.U.U.U.a _ ;.=.o.U.U.U.<.;.-.O.- U.U.U.U.U.U.U.U.U.U.U.U.U.U.U.U.U.U.U.U.U.U.U.U.",
"U.U.U.U.U.U.U.U.U.U.U.U.U.U.U.U.U.U.U.U.U.U.U.U.U.U.U.  !  .| , U.U.U.p.^ ^ ~ 4 U.U.U.U.U.U.U.U.U.U.U.U.U.U.U.U.U.U.U.U.U.U.U.U.",
"U.U.U.U.U.U.U.U.U.U.U.U.U.U.U.U.U.U.U.U.U.U.U.U.U.U.U.  Q I G   U.U.U.p.Q Q L J.U.U.U.U.U.U.U.U.U.U.U.U.U.U.U.U.U.U.U.U.U.U.U.U.",
"U.U.U.U.U.U.U.U.U.U.U.U.U.U.U.U.U.U.U.U.U.U.U.U.U.U.U.  Q P : K.U.U.U.p.Q Q D K.U.U.U.U.U.U.U.U.U.U.U.U.U.U.U.U.U.U.U.U.U.U.U.U.",
"U.U.U.U.U.U.U.U.U.U.U.U.U.U.U.U.U.U.U.U.U.U.U.U.U.U.  R Q L   U.U.U.U.U.; Q D K.U.U.U.U.U.U.U.U.U.U.U.U.U.U.U.U.U.U.U.U.U.U.U.U.",
"U.U.U.U.U.U.U.U.U.U.U.U.U.U.U.U.U.U.U.U.U.U.U.U.U.U.  Q Y $ U.U.U.U.U.U.  Q D   U.U.U.U.U.U.U.U.U.U.U.U.U.U.U.U.U.U.U.U.U.U.U.U.",
"U.U.U.U.U.U.U.U.U.U.U.U.U.U.U.U.U.U.U.U.U.U.U.U.U.  W Q 0 U.U.U.U.U.U.U.  Q W J   U.U.U.U.U.U.U.U.U.U.U.U.U.U.U.U.U.U.U.U.U.U.U.",
"U.U.U.U.U.U.U.U.U.U.U.U.U.U.U.U.U.U.U.U.U.U.U.U.U.  Q Q 9 U.U.U.U.U.U.U.  B V Q L   U.U.U.U.U.U.U.U.U.U.U.U.U.U.U.U.U.U.U.U.U.U.",
"U.U.U.U.U.U.U.U.U.U.U.U.U.U.U.U.U.U.U.U.U.U.U.U.K.T Q L 8 U.U.U.U.U.U.U.U.  % B B   U.U.U.U.U.U.U.U.U.U.U.U.U.U.U.U.U.U.U.U.U.U.",
"U.U.U.U.U.U.U.U.U.U.U.U.U.U.U.U.U.U.U.U.U.U.U.U.K.M B B p.U.U.U.U.U.U.U.U.U.U.    U.U.U.U.U.U.U.U.U.U.U.U.U.U.U.U.U.U.U.U.U.U.U.",
"U.U.U.U.U.U.U.U.U.U.U.U.U.U.U.U.U.U.U.U.U.U.U.U.U.      U.U.U.U.U.U.U.U.U.U.U.U.U.U.U.U.U.U.U.U.U.U.U.U.U.U.U.U.U.U.U.U.U.U.U.U.",
"U.U.U.U.U.U.U.U.U.U.U.U.U.U.U.U.U.U.U.U.U.U.U.U.U.U.U.U.U.U.U.U.U.U.U.U.U.U.U.U.U.U.U.U.U.U.U.U.U.U.U.U.U.U.U.U.U.U.U.U.U.U.U.U.",
"U.U.U.U.U.U.U.U.U.U.U.U.U.U.U.U.U.U.U.U.U.U.U.U.U.U.U.U.U.U.U.U.U.U.U.U.U.U.U.U.U.U.U.U.U.U.U.U.U.U.U.U.U.U.U.U.U.U.U.U.U.U.U.U.",
"U.U.U.U.U.U.U.U.U.U.U.U.U.U.U.U.U.U.U.U.U.U.U.U.U.U.U.U.U.U.U.U.U.U.U.U.U.U.U.U.U.U.U.U.U.U.U.U.U.U.U.U.U.U.U.U.U.U.U.U.U.U.U.U.",
"U.U.U.U.U.U.U.U.U.U.U.U.U.U.U.U.U.U.U.U.U.U.U.U.U.U.U.U.U.U.U.U.U.U.U.U.U.U.U.U.U.U.U.U.U.U.U.U.U.U.U.U.U.U.U.U.U.U.U.U.U.U.U.U."
};
