/* XPM */
static char *a4704103fbd745f486568e48600b1ea1iafIemojaQa3Ftvl[] = {
/* columns rows colors chars-per-pixel */
"64 64 251 2 ",
"   c #170D00",
".  c #191702",
"X  c #0C1400",
"o  c #290800",
"O  c #380400",
"+  c #281600",
"@  c #351500",
"#  c #172804",
"$  c #122E07",
"%  c #2A2702",
"&  c #372801",
"*  c #283302",
"=  c #363700",
"-  c #2D2A16",
";  c #2D3829",
":  c #490300",
">  c #531500",
",  c #6B1903",
"<  c #6E150E",
"1  c #432600",
"2  c #4D310B",
"3  c #753900",
"4  c #692611",
"5  c #782D25",
"6  c #314A11",
"7  c #3D7614",
"8  c #3E7915",
"9  c #3E7B1B",
"0  c #3C751A",
"q  c #356A11",
"w  c #345121",
"e  c #5D4405",
"r  c #4E510C",
"t  c #744B01",
"y  c #427B16",
"u  c #43751C",
"i  c #447D1B",
"p  c #4A7D1D",
"a  c #4B7617",
"s  c #53791C",
"d  c #4D6B14",
"f  c #706406",
"g  c #5B543D",
"h  c #514D30",
"j  c #75572E",
"k  c #596A29",
"l  c #457D22",
"z  c #4B7D22",
"x  c #4D7C2B",
"c  c #477526",
"v  c #557324",
"b  c #527D24",
"n  c #56792A",
"m  c #4D6A33",
"M  c #537D33",
"N  c #567837",
"B  c #517133",
"V  c #667A2A",
"C  c #727836",
"Z  c #6D6E2F",
"A  c #555242",
"S  c #5A7946",
"D  c #556F42",
"F  c #657C55",
"G  c #726E4D",
"H  c #747869",
"J  c #7C7A76",
"K  c #6C786A",
"L  c #645F4C",
"P  c #881403",
"I  c #901507",
"U  c #A81905",
"Y  c #AE1508",
"T  c #912F12",
"R  c #B82505",
"E  c #B02C0F",
"W  c #96342A",
"Q  c #D0140F",
"!  c #C4220E",
"~  c #E10A05",
"^  c #8C4E02",
"/  c #B34C00",
"(  c #8A592D",
")  c #946734",
"_  c #83744E",
"`  c #827A68",
"'  c #9A7F61",
"]  c #3F821A",
"[  c #448116",
"{  c #46811C",
"}  c #4A831E",
"|  c #4C8A1D",
" . c #48871A",
".. c #538B1D",
"X. c #54861B",
"o. c #55911F",
"O. c #468222",
"+. c #4C8523",
"@. c #4E8924",
"#. c #4D852A",
"$. c #4E8A2A",
"%. c #478529",
"&. c #538424",
"*. c #528B25",
"=. c #598C25",
"-. c #52852B",
";. c #5A852D",
":. c #538C2A",
">. c #5A8C2C",
",. c #598327",
"<. c #4F9128",
"1. c #5A9325",
"2. c #56912C",
"3. c #5A932D",
"4. c #589528",
"5. c #548333",
"6. c #5A8535",
"7. c #558C32",
"8. c #5B8D32",
"9. c #5B8D3C",
"0. c #5A833B",
"q. c #569132",
"w. c #5B9432",
"e. c #5E9933",
"r. c #5E943A",
"t. c #66832A",
"y. c #62952D",
"u. c #618A34",
"i. c #65883B",
"p. c #629B36",
"a. c #62933B",
"s. c #639C3A",
"d. c #649435",
"f. c #7C882C",
"g. c #68A23D",
"h. c #5E8542",
"j. c #648747",
"k. c #6B8B58",
"l. c #74955A",
"z. c #6F934D",
"x. c #7A847A",
"c. c #758E66",
"v. c #8F9115",
"b. c #BAA60B",
"n. c #B5A71C",
"m. c #879030",
"M. c #AD9A2C",
"N. c #B1A92E",
"B. c #C9B30E",
"V. c #ECAF16",
"C. c #C6B42A",
"Z. c #CDAA33",
"A. c #E4A02F",
"S. c #F7DB19",
"D. c #ECCF0F",
"F. c #FDE61C",
"G. c #D6CA36",
"H. c #EAD727",
"J. c #F7DB28",
"K. c #F3DC34",
"L. c #ECD234",
"P. c #F9E329",
"I. c #F2E236",
"U. c #D2C41D",
"Y. c #968A52",
"T. c #98A64F",
"R. c #B7B14F",
"E. c #9A8C68",
"W. c #85867C",
"Q. c #859979",
"!. c #8E956F",
"~. c #B19E73",
"^. c #A8976D",
"/. c #8EA972",
"(. c #B6A777",
"). c #ADA073",
"_. c #A29449",
"`. c #CBBB49",
"'. c #F4AA49",
"]. c #D4B979",
"[. c #C7AC75",
"{. c #E19E50",
"}. c #B9CC7B",
"|. c #D7CB4A",
" X c #EEDA4E",
".X c #F4E350",
"XX c #D3C570",
"oX c #F5ED73",
"OX c #E4D965",
"+X c #7E7D81",
"@X c #7F8783",
"#X c #888887",
"$X c #8B928B",
"%X c #939888",
"&X c #8F8F93",
"*X c #A99D8E",
"=X c #8CA684",
"-X c #97A789",
";X c #9EA698",
":X c #98B48A",
">X c #B6AC86",
",X c #A4A999",
"<X c #A4B897",
"1X c #B8B498",
"2X c #ADB28C",
"3X c #AAABA7",
"4X c #B2AEA9",
"5X c #AAB8A7",
"6X c #B2B2AD",
"7X c #B4BBAA",
"8X c #ADAEB4",
"9X c #AEB2B2",
"0X c #AFB8B2",
"qX c #B3B3B3",
"wX c #B9B5B4",
"eX c #B5BAB4",
"rX c #BBBAB4",
"tX c #B5B5BB",
"yX c #BBBBBC",
"uX c #B7BAB8",
"iX c #B8AFB2",
"pX c #AC9FA6",
"aX c #C8B484",
"sX c #D4BE8A",
"dX c #D3BC82",
"fX c #CABC96",
"gX c #C4BFB9",
"hX c #AEC494",
"jX c #AEC5A6",
"kX c #B8C2B6",
"lX c #BAD3B5",
"zX c #9EC18B",
"xX c #DCC993",
"cX c #E8D598",
"vX c #F2DE9B",
"bX c #F9E59A",
"nX c #FFF997",
"mX c #C9CAB3",
"MX c #E7D6A8",
"NX c #E9D9B5",
"BX c #EED7A6",
"VX c #C7E0B4",
"CX c #F8E5A7",
"ZX c #F8E9B2",
"AX c #BDBBC1",
"SX c #B9B7C2",
"DX c #FFFAC8",
"FX c #ECE7CA",
"GX c #DFE5E1",
"HX c #FAFAFA",
"JX c #EAF2E4",
/* pixels */
"| 1.e.:.y 2.3.@.*.2.*.{ 4.| >.3.=.i w.=.&...y.p &.*.*.3.q.*.+.y.&.X.=.p.i -.*.&.4.y.| +.r.#.*.2.:.#.$.| @.e.4. .@.e.{ :.:.:.{ >.",
"| *.4.p.*.@.4.&.| 3.} { @.{ 3.2.p.*.&.*.} =.=.*.z @.*.4.q.w.} *.=.=...2.z z #.:.1.4.1.@.:.7.&.*.:.{  .+.*.1.e.1.} 2.$.@.*.2.| i ",
"3.| { *.*.{ @.+.2.@.{ i i *.| { | <.O.7.>.>.z l 0  ... .+.2.} | | | 2.O.9 l *.*. .X.=.} z :.1.=. .9 { 2.+.p | <.{ +.2.:.*.{ y y ",
"y.y i { 3.3.@.+.*.{ i i :.3.@.{ | 2.$.%.+.O.#.l 9 2.2.[ [ @.>.<.[ | @.O.O.O.w.@. .y =.=.*.a *.} O.8 O.e.| | i 3.=.@.O.@.i p y @.",
"g.3.:.i @.2.{ i O.+.:.i 3.s.*.@.O.<.q.O.l ] q.$.O.e.e.<.] O.:.:.] %.9 <.$.{ p.<...[ | :.>.i +.z 2.{ =.e.*.*.y :.:.:.l i +.2.i *.",
"@.3.} i { +.q.$.i :.O.+.p.#.w.{ { O.$.2.O.O.$.+.%.e.<.3.i +.+.*.$.%.h.h.c #.e.1.1.y { @.:.7.l #.$.i 3.:.3.@.i +.+.:.$.l :.+.{ 3.",
"} 2.+.*.:.+.q.+.i i i #.2.$.2.+.:.@.*.4.} [ y } <.=.@.*.O.:.#.8.j.j./.l.j.j.;.=.&.O.:.#.7.q.9 l i O.4.*.w.@.@.7.#.7.:.i i i *.p.",
"2.:.{ :.:.*.$.l i l q.8.O.-.*.O.3.*.*.*.y y O.e.=.y 3.-.5.h.N j.c.<X5X=XhXl.N i.B 0.9.#.7.O.i i *.w.{ @.*.+.+.:.$.7.i 9 l 3.:.y ",
"*.{ i @.O.+.i O.l 7.7.+.i $.l O.#.O.&.u x M h.h.5.c x M D h./.<X<X#X5XkX0X<XQ.S S S S 5.-.z i O.>.@.p *.{ p :.O.l +.#.i $.q.{ { ",
":.i *.+.*.-.:.O.O.+.+.+.s.:.O.{ -.-.;.6.N k.zX<Xc.c.S k.=X5X5X0X$X3X9XSXyXwX,X- 5X$ F zXh.5.u :.-.O.w.2.@.O.l =.#.$.O.l :.+.{ p.",
"=.@.+.3.=.#.w.&.*.+.z z w.*.&.+.w.8.;.j.:X5X5XjXjX<Xx.x.3XkXeXeX3XuXAXtX8XyXeX;X; K 5XjX:Xj.w N l z q.>.@.+.*.w.*.8.:.+.*.i { 3.",
":.@.i q.*.*.O.>.:.+.+.:.-.>.@.i 2.&.b x <XjXx.0XkXkX@X@X8X0XrX6XwXeXtXyXSXtXqXeXJ 5XkX3XmX<X# m 5.:.:.>.+.p :.:.+.#.*.:.+.{ 2.=.",
"3.@.@.@.*.>.{ :.*.@.p p.*.>.*.@.*.| y.t.k.<XW.qXrX6XJ +XqXqX6X#XqXuX9X&XwX6X#X9XtX0XtXyX9X9XH $ c #.9.:.=.+.O.&.=.@.} 2.:.{ 3.2.",
"X.3.=.3.{ =.3.{ &.e.{ @.@.} >.4.4.[ X.u.S 5XuXqXrX6X&X+XtXyX4Xx.wX9X#X6XuX6X` W.9XtXtXtXtXAXqXF $ l 7.O.3.3.1.*.*.3.@.*.2.@.@.} ",
"[ y.&.p.&.} e.p @.3.&.y +.| :.*.4.| =.a.Q.5XqX#X4XrX3X#XqXqX#X+XeX8Xx.uXuXqXiXiXrXuXuXyXtX0X$X:X$ c c +.=.:.3.@.y 3.@.*.*.*.} { ",
"3.} { | 3.{ { =.3.y &.y } >.} | @.&.i 5.Q.kXqX#X6XrX3X#XtXtX+X8XqX#X6XwXqX&XuXuX6XrX9XeX0Xx.:Xj.c 0 +.7.*.} | =.| *.@.3.} { i y ",
"p.[ { y p.*.{ @.} } } y 3.4.@.y @.+.q S :XjXwXwXiXiXtX#X8XqX` 4X*XH ;X%X#X8XiXiXuXuX9X#X<Xc.h.M #.O.+.s.{ @.y 2.@.:.@.+.{ O.{ +.",
"g.3.@.y @.4.p y i @.3.y e.p.1.@.@.:.j.j.hX;XrXwXiXtXtXqX3XH L ` A A h g ` *X#XSX9XkX5X<Xj.x c x q.O.$.e.w.:.{ @.>.O.z i :.:.i -.",
"| 4.*.i { +.2.@.z @.{ { e.:.2.} i +.5.$ F Q.6XyXSXSXSXtXW.h G E.NXFXFX>X_ A ` iXAX5X%XF M >.&.+.{ i e.:.3.:.8 @.} @.2.{ +.O.{ s.",
"+.3.O.&.:.+.e.+.i i O.q.2.*.w.i &.>.9.j.w =X$XqXSX#XSX3Xh 1XMXMXCXDXDXNXNX' - iXqX$X-X* 8.=.y i y :.w.@.2.@.{ 3.@.w.#.8 i { :.7.",
"*.:.i q.@.*.#.i l l w.:.i :.+.z q.O.q.5.$ lX$X0XSX#XSX3Xg MXdXdXBXCXCXCXCXxX- pXtX&XQ.# M l 9 l q.e.7 @.2.y :.:.@.*.y i +.3.:.0 ",
"*.p O.$.l +.z O.+.*.:.+.l *.i +.p #.#.x S jX5X@X8X#X+X3XE.aXsX[.dXvXCXbXbXBX*XiX#X3X-Xm 5.z c $.q.{ { :.{ i *.{ { @.i } +.7.O.@.",
"w.O.+.@.:.:.7.{ i #.i *.s.2.{ | :.:.%.5.k.=XJX$XtX8X#X` ' (.aXdX[.].bXbXbXbXfXfXW.rXH S 9.+.{ O.} y p.e.{ +.*.:.:.:.{ i +.{ { s.",
"+.@.{ e.:.#.w.+.7.+.+.O.w.*.@.{ w.*.<.9.x w JXJX#XwX4Xc._ (.aX].].].vXvXbXCXBX>X7X<X- B r.@. .1.i } :.:.*.{ :.3.O.p.} @.w.y i e.",
"3.@.{ =.@.p @.2.*.+.{ p.@.2.| y :.{ @.-.0.6 :XuXqXwXrX1XL @ (.aX[.[.sXvXvXbXNXE.3Xc.# B -.@.o. .{ 4.*.*.4.i *.@.@.{ :.3.O.{ e.@.",
"3.*.| @.*.3.@.{ :.2.} *.2.*.*.*.@.*.:.z 8.m $ JXHX#X4X,Xh E.& ~.& @ ^.BXCXCX>XW.;X$ k.j.r.+.....| @.3.:.} @.*.*.2.>.{ :.:.=.*.:.",
"} 2.2.e.| *.:.@.@.3.*.{ | } 2.1.3.| =.e.&.v # 3XHXSX;XH h 7X^.>X~.E.2 h vXxX- pXK - /.6.9.#.| o.4.i @.| @.p.2.@.@.e.O.*.@.:.{ :.",
"*.=.@.3.*.{ 2.@.:.@.| { } @.3.*.=.@.@.*.{ 8.S # ;XHXHX4Xg %X>XaXaXDXFX@ cXxX+ &X; lXz.z l 7.=...X.{ } @.*.*.*.3.{ *.*.*.@.@.{ i ",
"3. .i | 2.@.:.@.3.i i { @.=.+.{ =.*.| @.<.=.N D - GXHXHXmX- o (.aXsXCXMXZX(.. . VXj.i.>.#.7.| ..} y y 4.*.} } 2.@.} @.2.+.{ y i ",
"e.} *.{ *.*.+.+.i @.{ i :.e.} { &.q.@.[ *.O.u j.5Xx.3XHXHXmX@ ~.].dXBXZXxX- A ; VXa.p *.2.i } &.@.y | g.} } [ 2.*.:.{ +.+.@.8 @.",
"s.3.:.i #.:.+.i i q.*.l 3.e.w.#.i :.:.O.] ] r.9.c.# - ;XJX` g ' (.cXBXfX& g mXVXz.s *.:.$.] O.} >.i +.p.:.3.{ | *.2.i 7 @.3.{ *.",
"} e.i O.+.+.q.:.z +.i +.w.:.e.{ +.z *.q.%.O.+.c j.zX1X- >XNX( MXxX~.& 1 E.G *X<Xu.a {  .$.q.l #.p | w.:.3.@.y +.+.*.2.+.@.i i s.",
"#.q.+.=.q.+.a.i i i #.q.#.:.q.i *.*.8.7.9 9 l 5.j./.= _.R.nXnXR.ZXfX>X(.Y.^.r hXj.+.3. .2.<.u u i 3.:.+.w.z *.q.+.w.i i 0 O.>.:.",
":.+.i q.:.+.+.O.i #.q.#.y *.O. .3.p &.z l ] :.#.i.i.= Z.|.G.OXOXXXZXZX).Z XXR.}.x %.$.<.[ [ p x w.>.p z =.i :.+.+.-.O.i +.w.*.i ",
":.{ 0 { l +.O.i l *.*.+.*.:.i +. .+.-.b z } 2.7.m # n.K.G.G.I.I.K..X].Y.`.OXR.T.,.x b +. .[ z #.w.i @.*.O.{ +.+.+.z { i *.q.+.$.",
"@.*.@.:.q.q.w.+.O.$.i #.s.:.+.O.<.@.=.>.a &.v d   + B.P.f 1 b.D.F.P.OXoX.X|.C.f.v #.a.b 1.*.i 7.#.l e.a.-.+.#.w.:.:.:.i #.i l s.",
"@.{ { 3.2.+.@.@.O.*.i @.2.@.@.[ e.<.*.*.3.v & O t A.H.H.e M.B.D.S.S.I.oXN.r G.# d 8.u.-.*.:.%.$.9 &.+.3.@.i =.:.@.:.:.@.*.p @.:.",
"e.@.{ =.} :.+.2.=.@.O.w.+.1.} | <.{ *.p :.C 3 I R '..Xn.% & M.b.B.D.P.K.N.6 `.& q 5.-.+.*. .w.+.@.:.3.:.&.+.:.*.@.+.+.:.@.O.3.*.",
"1.:.@.2.} 3.@.+.:.@.} 3.*.2.*.*.@.$.r.&.V ) E ~ Y Y '.N.T.F # % S.S.S.P.L.2 '.t . v 6.$.w.[ y...*.} e.*.*.:.*.@.3.2.@.3.*. .2.:.",
"i w.4.3.@.} w.@.*.3.*.} } } p.*.w.{ -.a.n ( ! ~ ~ Y 3 & f.j.m % G.F.S.J.|.1 {.t   i.;.+.w.$.[ =.>.y &.{ =.q.w.:.{ e.+.@.7.*.{ +.",
"1.@.+.4.&.@.*.@.3.@.} } { | 4.*.2.@.} >.b Z U Q Q P @ v ;.9.N . e ^ V.V.t o : 4 X N u.p *.*.=.=.@.{ { :.:.+.3.:.+.:.@.:.*.@.i y ",
"3.i | { 3.{ *.*.2.i { 7 *.=.y { | <.=.y a.Z : P , : Z x i ;.M # e ^ V.V.t o ) 5   N >.*.*.} :.+.i y i e.} i +.3.+.@.*.q.i { i i ",
"s.| { { w.3.+.{ { +.*.7 e.p.| { ] e...{ O.x k + + C 6.@.*.d # M.L.H.P.U.R.@ ) W 4 o v 2.<.9 { } :.i +.s.*.@.{ :.:.} { *.i *.i @.",
"e.e.| i O.@.+.{ i 7.*.i w.2.e.@.}  .=.| { O.0.x x a.p.2.} d * n.P.F.J.H.N.1 : W 5 o v @. .<.{ +.*.i 2.3.2.2.i { *.@.{ { :.@.y :.",
"i >.O.i +.*.e.:.i O.{ :.w.+.w.i #.i =.3.$.%.+.O.6.8.:.8.u # n.P.J.J.B.Z. Xn.O < 5 O k -.=.y.i c i O.e.2.q.+.p @.p w.-.i +.i +.s.",
"*.w.+.:.>.:.#.i 0 i *.w.:.*.q.l 7.=.:.*.l 0 8 2.*.-.-.i.k * B.S.H.b.& f L.A.O 2 2 o n :.1.| u l +.q.%.$.q.p *.7.+.q.O.i 8 @.:.-.",
"+.@.i *.l $.+.#.O.:.q.#.i +.+.+.-.-.%.{ z &.2.<.O.i *.} f.N.H.P.n.% X R.K.b.& % % k -.:.+.O.O.%.q.:.9  .+.O.$.&.+.+.i i #.w.*.i ",
":.i +.O.+.#.O.i l 2.+.+.7.:.i +.+.+.+.p z O.$.%.$.=.*.y f.G.P.I.M.= 6 N.I.U.M.u.v x *.O.#.c O.+.:.O.:.$.@.O.O.O.$.+.O.i *.+.+.q.",
":.O.&.3.3.:.w.{ &.@.i { s.:.+.+.w.-.y.w.i -.%.O.O.p.*.X.v.P.P.L.f.v V f J.K.`.f.n :.>.*.s.-.[ <.{ +.q.w.+.*.+.w.:.e.#.O.=.u i r.",
"*.*.y q.@.p &.q.+.@.+.*.@.3.{ i 3.} X.X.:.$.c :.<.*.u.t.)  XK.n.t.;.t.v.L.L.M.% a +.e.&.z :.+.@.{ +.:.:.&.{ >.:.i :.*.*.*.+.+.q.",
"a.*.i &.:.*.@.&.=.=.+.e.@.3.+.} =.X... .2.2.+.+.1.&.S + ^ A.Z.= s 1.+.m./ / ^ 1 d *.+.*.b b 7.$.@.:.:.q.@.{ *.| =.} @.e.O.O.e.*.",
":.*.3.:.+.>.3.+.+.q.O.:.2.@.*.2... .4.<.} @.w.{ =.i.k o E R 3 . a 4.$._.R ! T j t.e.@.*.a.&.$.<.*.@.*.:.@.3.*.@.2.3.{ *.4.@.*.:.",
"{ p.*.p.+.@.e.} @.e.@.{ @.+.3.:.e.[ *.q.O.+.3.+.y ,.Z : Y U @ k ;.$.6.Y.E Q T ) f.u.4.y 2.:.O.<.2.i } { :.4.4.2.{ 3.| *.>.:.} } ",
">.:.p *.3.{ +.+.>.@.+.y i :.*.@.3.| { :.:.:.&.a y V ) W E P + n 8.+.;.C < Y W ( C ,.:.}  .<.+.2.@.} [ :.*.| *.=.} @.*.4.} { { y ",
"e.i &.i d.*.O.>.:.y { i @.w.{ i O.2.+.+.:.7.+.s s C T E I : Z 6.#.7.;.k : Y E : r x =.2.o.| @.@.8 i i p.{ { { 2.*.*.{ @.+.+.7 } ",
"s.*.@.i *.:.&.y i +.:.i e.e.@.} [ w.q.{ 9 l &.;.v 2 E ! < ( t.>.c z a V O T W I @ d 8.+.*.y i p 3.i @.p.:.*.y >.*.| { { } 2.i | ",
">.3.*.p { @.*.+.i w.{ { w.2.w.{ { { =.=.] O.&.n k > Y E > Z t.=.-.+.+.v + , P W 4 + v O.@.@.z -.:.0 :.w.e.+.i +.*.@.*.l 7.*.7 q.",
"{ w.i O.>.-.q.=.i y { @.w.@.2.} { *.} 3.%.] b s C ( E I 1 S b &.>.p O.z k o : < < + a @.$.2.b v l :.s.+.q.:.i *.i 3.*.9 i i -.s.",
"8.:.i w.:.=.:.7 i i :.>.-.*.*.i 8.-.w.7.] 8 i d.C 2 , , C i.:.3.*.8 [ -.i.N g . X m >.*.3.z u i #.8.$.i q.+.*.q.+.w.O.i O.$.7.O.",
"@.@.l +.+.+.+.&.p :.>.O.7 #.+.+.7.l l l O.@.>.,.V =   + V b $.O.] [ i w.-.M b n c #.@.+.z +.l +.w.#.l +.#.i $.+.p +.l i :.8.+.O.",
":.+.O.@.+.&.+.O.i :.#.*.q.:.i +.+.+.7.7.p z -.@.-.u.N v b *.+.%. .] +.@.z =.y.s i +.@.[ -.-.7 &.*.i w.7.{ +.+.+.*.@.O.{ #.*.l r.",
":.z z w.q.:.w.O.+.*.i i s.:.O.$.p.@.7.7.c 7.p O.*.e.7.#.>.3.@.q.q.O.:.9 i =.y...*.@.:.2.w.&.} 4.i l e.q.+.@.:.w.:.w.@.+.+.l O.e.",
"#.=.p :.*.O.+.w.#.+.O.+.q.:.+.y 1.| { @.:.:.$.{ <.<.#.z X.>.{ *.@.+.7.$.+.$.=.*.p +.r.+.l 2.@.+.[ $.+.:.@.] @.<.[ +.@.<.+.9 :.2.",
"s.+.i q.#.:.z =.>.O.+.s.&.q.+.{ o. .4.] r.$.O.<.4.| 3.a s >.=...,.w.$.] q.q.$.:.p ;.+.:.$.%.$.$.O.2.2.2.+. .@.<.2.+.@.2.@.+.e.@."
};
