/* XPM */
static char *ae1fb64e1bf74454ac37e5a60ea7e3afe55zRiO71ZaXauTH[] = {
/* columns rows colors chars-per-pixel */
"64 64 255 2 ",
"   c #040200",
".  c #0A0500",
"X  c #040901",
"o  c #0C0B01",
"O  c #080A0B",
"+  c #120D01",
"@  c #110B05",
"#  c #021300",
"$  c #0D1201",
"%  c #031C00",
"&  c #0A1C01",
"*  c #141300",
"=  c #1A1501",
"-  c #151B00",
";  c #1C1B01",
":  c #17160A",
">  c #211C00",
",  c #211F08",
"<  c #0D2500",
"1  c #092701",
"2  c #122400",
"3  c #1D2301",
"4  c #132C00",
"5  c #182908",
"6  c #133200",
"7  c #1B3400",
"8  c #1B3706",
"9  c #192813",
"0  c #1F381A",
"q  c #242401",
"w  c #2A2601",
"e  c #242A01",
"r  c #2C2B00",
"t  c #23250A",
"y  c #253403",
"u  c #363A09",
"i  c #303112",
"p  c #3A3B25",
"a  c #283A24",
"s  c #403F2B",
"d  c #423F38",
"f  c #274406",
"g  c #39461A",
"h  c #344A14",
"j  c #3A760E",
"k  c #3D7514",
"l  c #3E7915",
"z  c #3E7619",
"x  c #3A7817",
"c  c #3B6C13",
"v  c #3C4A24",
"b  c #3D4639",
"n  c #3E533A",
"m  c #395428",
"M  c #396C22",
"N  c #174700",
"B  c #4A4A09",
"V  c #4B4916",
"C  c #534E18",
"Z  c #585419",
"A  c #51550D",
"S  c #615C11",
"D  c #4A6A1A",
"F  c #417515",
"G  c #427B15",
"H  c #437C1B",
"J  c #4A7D1C",
"K  c #45761B",
"L  c #56781C",
"P  c #454727",
"I  c #46582B",
"U  c #44493B",
"Y  c #46573A",
"T  c #5B5A3C",
"R  c #545425",
"E  c #615C2C",
"W  c #486B27",
"Q  c #457D21",
"!  c #4B7D22",
"~  c #4B7627",
"^  c #527C25",
"/  c #547D2D",
"(  c #56742A",
")  c #4B6837",
"_  c #58673A",
"`  c #4C7731",
"'  c #547B33",
"]  c #567735",
"[  c #546E2B",
"{  c #69692C",
"}  c #67683A",
"|  c #736D36",
" . c #667738",
".. c #7A753C",
"X. c #7C7B3C",
"o. c #797736",
"O. c #73752D",
"+. c #696314",
"@. c #3E4840",
"#. c #484C45",
"$. c #4B5745",
"%. c #545C47",
"&. c #625E4A",
"*. c #566849",
"=. c #5B7746",
"-. c #576C52",
";. c #6C6C44",
":. c #6C6B4C",
">. c #656546",
",. c #677645",
"<. c #7D7B42",
"1. c #7B7B4C",
"2. c #757648",
"3. c #696957",
"4. c #697354",
"5. c #787755",
"6. c #716D50",
"7. c #7B7865",
"8. c #817D3B",
"9. c #817C36",
"0. c #837C43",
"q. c #847E4D",
"w. c #807B56",
"e. c #3E8017",
"r. c #46811C",
"t. c #4A831D",
"y. c #4B8A1E",
"u. c #468216",
"i. c #51861E",
"p. c #41800E",
"a. c #468222",
"s. c #4C8423",
"d. c #4E8923",
"f. c #4F8528",
"g. c #4D892A",
"h. c #478826",
"j. c #518624",
"k. c #528B25",
"l. c #53842A",
"z. c #548C2B",
"x. c #5A8D2D",
"c. c #5A882B",
"v. c #55912B",
"b. c #5A932D",
"n. c #589427",
"m. c #558C32",
"M. c #5B8D33",
"N. c #5B8536",
"B. c #5C9433",
"V. c #5E9934",
"C. c #5D9538",
"Z. c #599536",
"A. c #4A892A",
"S. c #629A2D",
"D. c #658837",
"F. c #7A883A",
"G. c #629B35",
"H. c #62953A",
"J. c #639B3A",
"K. c #659638",
"L. c #60882D",
"P. c #6AA33D",
"I. c #67A139",
"U. c #70A53B",
"Y. c #5DA134",
"T. c #678745",
"R. c #7B854A",
"E. c #689843",
"W. c #7C8654",
"Q. c #719152",
"!. c #69A342",
"~. c #74A745",
"^. c #5D8144",
"/. c #84813B",
"(. c #86823B",
"). c #848142",
"_. c #85844A",
"`. c #9B964D",
"'. c #868858",
"]. c #8B9658",
"[. c #989A59",
"{. c #899748",
"}. c #A29E5A",
"|. c #A39F4D",
" X c #9AA45C",
".X c #97A253",
"XX c #ACAA4E",
"oX c #ADAC5C",
"OX c #A6A657",
"+X c #B2AD54",
"@X c #B2AD5B",
"#X c #B4B155",
"$X c #B4B35E",
"%X c #B9B45B",
"&X c #ADB15A",
"*X c #898967",
"=X c #948D67",
"-X c #8D9467",
";X c #94946B",
":X c #9C9B6B",
">X c #979766",
",X c #939374",
"<X c #9C9B73",
"1X c #999A7A",
"2X c #898873",
"3X c #A29D67",
"4X c #A89E7B",
"5X c #9BA567",
"6X c #9BA473",
"7X c #A3A463",
"8X c #ACAC64",
"9X c #A4A46B",
"0X c #ACAB6B",
"qX c #A7A766",
"wX c #B2AC65",
"eX c #ADB266",
"rX c #B3B364",
"tX c #B6B569",
"yX c #A7A575",
"uX c #B7B575",
"iX c #ADAD73",
"pX c #C0B96B",
"aX c #9EB894",
"sX c #9AB48C",
"dX c #A6B799",
"fX c #AAB08C",
"gX c #AABCA4",
"hX c #B3BDA5",
"jX c #9F9B80",
"kX c #ACC89A",
"lX c #B5C699",
"zX c #ABCB8E",
"xX c #ADC4A4",
"cX c #B3C3A4",
"vX c #B4CBA4",
"bX c #B3C4AB",
"nX c #B5CBAB",
"mX c #BACCAC",
"MX c #BAC8A7",
"NX c #BBD3AC",
"BX c #B9D4AC",
"VX c #BBCDB3",
"CX c #B5C8B2",
"ZX c #BCD3B4",
"AX c #BEDAB3",
"SX c #BBD4B6",
"DX c #BFE0B5",
"FX c #C0D5AE",
"GX c #C2D4B3",
"HX c #C3DAB4",
"JX c #C3D5BA",
"KX c #C4DABA",
"LX c #C9DAB9",
"PX c #C0CEB1",
"IX c #C6D9C1",
/* pixels */
"u.n.V.z.r.n.b.t.z.b.t.k.k.t.b.b.b.~ ,.& # 2 ,.W =.l.j.S.S.t.r.J.f.g.s.Y.e.y.y.y.V.Z.s.J P.u.n.i.n.H V.r.v.G.v.t.g.G.r.k.v.z.t.b.",
"u.G.y.P.s.u.V.t.r.b.s.u.d.r.b.k.I.z.~ y -X-Xy < 1 7 ^ L.l.J.K M.C.H Z.d.u.y.y.y.B.C.K.G x.k.G z.b.r.r.s.v.d.G.n.G G.d.t.v.z.r.H ",
"V.u.u.j.k.r.g.s.!.H g.k y.b.y.t.y.i.u.F.eXtXOXOXOX[.B - 4 T.] ` ~ K.D.^ j.j v.y.a.Q c.i.i.i.G.z.t.z G v.d.t.d.k.u.d.t.I.s.t.z z ",
"b.G s.r.V.k.s.z.t.r.G k b.v.H u.u.S.i.{.eXOXOXtXpX0XV >X-Xh 3 < 7 / [ [ D J J.g.Q G b.n.i.J j.a.s.z s.!.H t.G G.k.j.g.j.u.r.H d.",
"P.V.s.H v.B.H G H s.J.H m.P.b.t.G z.4 5X'.3 = =XjX;XR >X0X[.OX X.X4 3 - e ^ ~.^ H.J s.x.z.z z A.Z.r.a.!.b.j.k b.Z.d.k u.H J.a.r.",
"t.G.s.G t.r.v.m.H B.H z !.g.V.H s.K < *Xr } o + . > :Xq * ; >X0X7X9X9X7X XqX].f / F J t.j.Z.z g.z.H v.Z.V.v.z H H v.v.z C.a.l J.",
"H J.z z.Z.H !.H z r.z Z.J.z J.H z.l._ 3 } W.X   . ; -X1.%.  o * w :X9XqXeX Xy R.c W B.u.Z.z.a.Q z s.J.s.z.s.g.b.H J.z.z G Q g.J.",
"v.z.H V.s.z.z.l r.z J.g.z J.s.Q J.N.T.2 1.;.X   o '.e >.;     O 2X> * q [.qXy qX Xf D.g.B.t.c Q z.C.K g.Z.H v.v.d.V.k H K z.V.z ",
"s.Q G z.J a.k s.H Z.z.s.z g.G ! l.h  XR.;.=     3 ].q _ o     @ ;X> } @ = 0X0X0X0X]./ ~ G r.r.s.J.Q Q G g.j j.u.G H a.H z.J.Q H ",
"V.a.z.t.s.s.Z.Q H z.H s.J.Z.Q f.W 6 ].'.6.. . + >XqX<.1.      > 3Xq.T . + 3XpXwXwXA 4 ` H.t.G j.g.K J.J.t.g.d.g.v.v.r.H s.a.s.E.",
"s.a.H V.V.z.G.G z.k.r.u.J.f.f.Q Q.4 $ 5.5.. . + 0XeXF.| +   + <XuX0.Y @ + 4XiXwX@XoX5X` E.z.K n.k H z.V.H t.b.B.H P.t.d.v.z H V.",
"b.z.k V.t.H t.V.g.t.H B.s.B.a.a.H.D # 5.:.. . ; 5XOX0.; .   = 9X7Xq.Y   . > w.r `.tX5X7 6 x.L.j.r.m.g.z.z.k v.z.d.k b.g.s.r.z.z.",
"J.s.u.d.k.V.r.y.v.z.u.P.g.z.s.a.M.N.2 T > . + 1XyXr ;.@     * -Xq } =   * $ * . = qXtX XF.D H.j.j.z.Z.z.z.k.t.d.b.d.r.b.s.s.Z.z.",
"t.z.b.V.t.z.V.t.d.b.t.t.z.t.G.H.M.{.5Xq . . @ yX1X> 3.=     ; >Xe T . @ ;X<XX   + [.rX@X X7 ^ M.v.H b.t.z.G.b.d.t.I.t.z.B.v.G z.",
"t.b.z.I.t.u.V.G k.b.d.G t.t.z.j.f 5XwX3X=X> q ]., >.3..   = [.0X} > . + iXyX&     r OXtX&XK.^ M.Z.u.s.t.z.k.G.z.G v.s.d.n.r.z.H ",
"b.t.G k.b.u.d.k.V.u.t.z t.b.s.~ w '.w =XfX=X:X6X- * = @ . w.0X0Xw.@ . @ -X:X$   . >.iX}.qX Xy J ! J k b.d.r.r.b.t.d.s.V.r.g.j z ",
"I.p.u.r.C.Z.r.t.d.z A.x Z.Z.J ( } q } = o o ; ;X<X6XqX[.r 9X3X> &.+ . $ - $     X > <X> o ; {.F.[ L s.S.u.h.z V.v.d.! f.Q s.r.s.",
"P.b.z.z s.m.n.G x A.C.h.v.!.N.f '.q >.X     $ $ 3 >X7X[.7XiXyX> > .   ,X1X    @ >.= <X+   X 5X].y W y.~.b.v.z d.g.v.k Q a.J.z d.",
"r.J.H a.J J i.n.r.V.x a.P.! T.< 5XR.#     $ ;X .  . + > 9X9X9X:X:X= ; yX6XX @ . >.r ;X;     ; 6X-X4 x.d.z.d.G t.r.z.m.Q z.u.l P.",
"a.J.Q g.B.t.U.G x x x C.z.l.T.4 ].2.      o :X1..     @ :XB = w :X=X=XyX<X= . + 1.:X1Xo o 3.= * W.] N r.J.t.r.G.r.J.f.H l l V.m.",
"z.v.x m.z.f.z.F s.x !.g.l M.6 W.3 3.o       * >.@   . o <Xu } X o - i ; 3X7X> . 2.6X-   o 7.,X; } T.M j.V.k b.z.d.z.K K G Y.z.k ",
"d.s.z d.! f.F t.k C.g.h.J ! f ].t &..     o * :.X     + >X{ :.o     i = oXeX:X+ $ <X    o 5.jX+   2 ` ! s.F j.H s.H s.H v.b.z g.",
"B.u.v.h.g.l.K.H f.a.Q z.E.L.( iX;.-     = 2X5.>..     3 :X{ :.*   + 5.>XOX$X@X[.r =X* . . : 2X* X v E.H.^ l.a.z.t.I.u.K z.l d.I.",
"s.s.z J.m.j.S.a.v.g.K K K.D.D.5XR.  .   $ fXW.$     . ,X>X{ :.X   o R.7Xr `.tXtX8X:X. o >.. X o s P D.H.f.! M.J.t.n.s.j.Z.x G V.",
"V.s.u.v.y.u.G S.i.y.u.K.^ T.{.3 :.+     + ,X5..     + ,Xq :.=     * 5.<Xo * <X3XwXqX> @ ;.>   X s 2 ` M.M.z x.j.u.u.z.x.s.H G.d.",
"C.g.s.g.t.I.i.u.n.i.u.J.( 4 '.e _ X .   o ; 3.@     o =Xt >.    @ 2Xp o .   . r }.uX=Xr ;.;.o   s - ] M.! M.s.i.b.n.J z.k.g.z.v.",
"G V.B.V.G y.G.t.k.n.i.j./ 4 :X:X= X o ; *X= &.@   . = :X1.t +   * ;Xi       @ } 9X}.4X3X'.2.* $ P X 1 ! x.M.J.t.t.I.s.s.b.v.G m.",
"k.v.d.B.k.u.x.Q b.s.x.K ] Q._.1.$ 2X,X6X9X= .     + >X:X5.,       , 6.*   . 3.w 3Xr > ;.0.q.;.u ; _ 1 ! M.z.S.b.u.g.g.Z.d.d.H z ",
"b.u.u.y.v.t.f.z.H.H Q c 7 6X1.;.@ O ; <X0X[.> = + w :Xr T +     + - 3.*     %.w *XX . + = 1.;.r } R.K H.t.G F b.d.h.f.V.t.r.G K ",
"I.d.u.j V.v.f.a.K s.m.D 1 -Xq.+       * 7X7X9X4X9XyX3X- * .   o 1XjX+     . = ;X;   . p U 5.'.2._.2.c.J.J j.G G.z.z.K a.t.g.z z.",
"J.B.v.k d.k.H a.a.s.H.W 1 2 ;.+ .     ; [.r :XiXtXwX@XOXOX[.; - 6X,X@   + >.e :X*     P = :.5.q.q. .c.U.b.S.k t.v.y.H K s.Z.a.z.",
"K H.G r.y.G J.m.t.z.k / -X& >.+     o ,XyX,.= ; >XqXtXrXeXrX9X>X- X   . @ 5.<X:Xo   $ p @ . = ;.;.3 K.J n.s.l d.e.k.H.Q m.K l P.",
"c.b.h.m.z.g.J.x k F l.D.5X<.6.X     o ,Xr :.o   @ ; >XyX0X8XuX7Xo X @ . + 6.5.:   o p t &..   : ,.& / j.J.s.s.Y.h.P.K k K H G.j.",
"k.k.k C.g.f.a.a.r.z.D.7 5XR.*       X *Xe :.@     + * ; :X5XrXOXr ;X6.q T > .     X P 4.5.+   X =.4 W ~ m.j z.y.h.s.s.J a.K.y.j ",
"c.J H a.K s.Q h.x V.` & ].w..     . o = :.:.o   = *X= >.* ; [.eXOXtXuX[.w ;.@       P 5.:..     # [ D.l.g.e.h.u.s.J a.K v.k.t.v.",
"x.j.g.z.b.z.V.H j.l.] 2 = 2.@     : 2X- :.=   . o -Xq &.+   q [.eXOXeXeX..2..   . s > :.=   = *.1 W E.H.r.k.d.n.s.J.! Q x.z u.I.",
"l.s.F G.k.p.V.s.m.` ] W.r 2.+     : <Xr >.X     ; ;X4.*   . . = [.).8.9.)...= X + U ;.+ . X p 1.] ~ N.B.s.k n.B.r.x.z.l.z.t.r.v.",
"J.s.G n.u.y.J V.N.` 4 5XiX:X= @ o + :X1.:.  . : ;Xq :.+   . . $ B | 8.0.8.8.<.1.;.> 6.=     $ ,.[ E.x.z.b.j k.d.j.K c.z.s.a.B.s.",
"S.i.j.k.y.G.s.~ H./ 2 >X0XeX0X[.q *Xq :.: .   : ;Xt :.*   O ,X<...C Z 0.).8.0.<.0.2.6.. .     2 ' j.C.s.d.n.y.t.b.B.! V.s.d.v.v.",
"j I.x.J.G y.J.s./ L.e [.rX+XtXoX8X7X; &..   O + -X3 >.@   o -X_.X.X.| C 8.).o.8.8.2.> + . @ *.< N.Q g.r.n.n.I.d.G K.s.r.C.v.e.A.",
"x.z.t.S.i.u.k.j.T.7 {.%X#XXXXX#X@XrX[.r + . . . = >.=     . - 2._.8.8.0.9.9.(.9./.<.2.6.>.3 >.4 l.r.e.v.n.u.b.z.t.n.t.B.j.s.a.x ",
"J.G s.u.k.u.n.x.' 7 oXXXXX#X%X#XXX@XrXOX[.= . *X> >.o   + 3.* :.o.8.0.q.9.(.9.9.o.0.q.q.2.2. .N.K r.l V.G u.G G.k.K z.H.s.Q j s.",
"!.a.j.K V.n.J K ~ ].OXS XX#XXX#X%X#XOXtXtX[.r 3Xw.5.. . + 3.r | Z | q.0.9.9.o.X.C C ..8.<.F.D D Z.l r.P.j.t.G z.x.j.H H z v.H f.",
"Z.J.N.G i.i.t.j.L  XoXXX+.OX$X+X+X+X+XoX@XoX8X[.r E .     i } _.| C 0.8.9.B A B ..| C 8.F.O. .N.Z.u.k.!.n.b.G j.k.k.u.H z.V.x m.",
"z C.Q G y.u.P.l.[ 5X$X+X|.S OX%X+X%X#X#X+XrX#XeX[.w . . > i 1.<.0.8.+.q.| B o...0.0.o.8.X.V 1 ] K l P.r.B.s.F s.l B.B.r.g.k Q !.",
"g.H.Q K.b.s.G.c 4 [.$X#X+X@X@X@X+XXX#X#XXX@X#X#XwX`.= + =X{ 2.0.8...{ ..C 9.X.0.8.8.8.X.W.g % W l.v.g.s.B.a.z.H.g.J.z j H z.K.Q ",
"s.d.l M.Q s.s.Q 7  X%X+X%X+X%X#X%X%X#X@X@X$X@XoXwX8X}.w 3X{ o.).8.8.Z V 8.<.B ..8.(.0...I v 6 W H.k.z t.z.k M.s.r.h.u.s.s.K.a.K ",
"z.t.a.K f.l.K l.].eXoX+X%X%XrX|.`.}.0X0XOX8XwXrX@X@XwXqX`.{ X.8.8.O.E ..0.8.C ..8.o.X.R P P W N.m.a.b.g.j.Q Q r.g.H s.x z.j.! S.",
"B.J j.B.m.m.E.( eXeXtXeX X:X].w $ y MXlXu 7X0XoX@X%XwXwXw ..).8.X.C ..).o.0.8.0.<.C V R g & ) =.` Q B.G.G j.Z.C.d.!.u.h.k.G G G.",
"/ z.j n.g.! ' 6 {. X[.].u 3 i dXhXgXmXHXdX5XOX+.}.@X|.@XX.<.0.<.0.o.8.9.).8.8.0.1.2.v P v & 2 8 ) ` c.c.c.G z.z.r.s.v.d.t.G i.i.",
"G.i.e.y.s.m.` % - - - t fXhXhXLXLXLXZXKXlXe 8X|.S `.S XX(.).0.0.o.(.(.(.9.8.0._.5.6.=   9 dXnXdX1 8 ] N.L.J l.z.g.r.y.S.a.s.K.n.",
"n.y.n.n.G E.=.< dXhXdXbXIXLXGXPXGXmXvXBXHXlX XOXB A }.|.8.8.0.8.S O.(.o.(._.} ;.; t gXhXhXLXLXnXkXdX< 6 ( N.' l.Z.K.G k.B.z.K H.",
"G S.b.I.t.^ h dXJXLXLXFXVXGXmXGXSXbX4.xXHXlXh OX@XwX8Xw o.9.8.8.O.(.8.X.R.} q e dXCXJXIXJXVXvXLXKXZXnXdX8 < f / ^ K.j.H z.b.! A.",
"M.j.J b.c.] aXHXPXHXBXBXHXmXGXKXCX-.gXBXHXlXlX5X3XpX3Xq o._.9.8.8.0.<.q.} ; dXmXJXGXPXPXNXHXNXNXPXNXmXJXbXCXsXy W N.^ S.k.t.z M ",
"V.e.u.F T.4 dXVXhXbXSXKXvXAXnXdX-.xXLXNXMXFXlXh 9XuXqXX...0.o.(.o.B 2.;.i hXIXSXZXBXZXNXNXnXKXVXHXcX9 dXIXGXGXsXf W M.B.l e.x A.",
"!.k.d.! ] 8 gX9 # 9 aXxXAXbX1 9 kXHXSXHXFXHXlX2.>X0XiX(.0.0.(.9.X.Z | i hXhXgXKXSXHXBXBXZXZXVXSXGXnX$.9 bXZXPXHXkXy W ~ a.Z.a.A.",
"v.Z.s.~ 7 kXCX$.#.n & 1 vXNX$.Y vXHXAXBXAXNXlX] e ].9X_.<.<.X.F.F.<.T lXhX9 9 dXnXAXBXBXAXSXIXhXSXSXbX-.vXHXNXNXZXkX=.W M.z.j Z.",
"x J.~ M kXHXZXCXCXCXY Y nXGXmXnXHXvXSXKXBXNXxX=.,.e & } _.<.X.X._.;.V lXLXbXaX0 8 sXDXBXxXbXaXa xXSXSXSXGXnXPXNXHXkXM 6 ~ Q h.J.",
"z.Z.` 8 vXGXSXSXZXVXNXmXGXmXGXHXBXZXSXnXNXLXkXW.=.Y $ = :.1.R.R.R.2.v MXGXKXSXxXaX0 nXvX9 & 2 Y BXBXBXAXCXZXSXCXcX%.m m W H.J.z ",
"y.H 1 aXJXZXSXSXSXAXNXZXGXJXVXZXSXZXZXZXHXcX*.n I U o #.5.:.4._ 2 hXvXnXGXnXJXIXKXcXVXPXcXxXbXCXNXHXKXSXSXIXgX-.$.$.n Y W ^.! a.",
"b.K 4 xXJXCXSXSXbXSXZXSXVXVXIXCXBXAXvXVXgX-.n n Y m #.9 -.3.4.-.# xXKXSXJXJXVXCXbXCXCXmXPXCXhXPXmXcXcXbXCXgX*.@.#.#.#.#.n 1 f.S.",
"j.c.kXJXIXIXKXSXAXAXKXSXKXSXSXDXAXNXvX) n n n n U U U #.3.3.4.-.8 kXKXSXbXJXCX$.$.$.%.#.$.%.%.#.$.%.$.%.$.$.$.#.$.#.#.#.b m W Q.",
"] 8 dXbXgXxXzXzXzXzXkXkXvXxXkXzXzXzX%.I I I Y Y Y $.#.U & Y -.=.sXkXBXxX$.Y $.#.#.b @.U U p @.@.p b #.b @.b b #.#.d #.#.b n 1 ^.",
"Q.% # % X ) N.M.C.N.m % m ] M A.T.] =.)  .) h m *.Y 9   X *.4.Q.) T.m h X X     X     O O O O O O O     O O     . O . X X X 1 ) "
};
