/* XPM */
static char *_f29d6671fe74ea3a42ffad6e5caa4f3AVWxe0kLFETq0Wbr[] = {
/* columns rows colors chars-per-pixel */
"64 64 17 1 ",
"  c None",
". c black",
"X c #201F0F",
"o c #2D2C15",
"O c #2F352C",
"+ c #47410B",
"@ c #555017",
"# c #4D4B25",
"$ c #605E2E",
"% c #726E30",
"& c #474F42",
"* c #4B5446",
"= c #64705D",
"- c #807D3D",
"; c #868340",
": c #B3AF56",
"> c #BDD4B0",
/* pixels */
"                   ...                                          ",
"                   .::....                                      ",
"                   :::::::+..                                   ",
"                   :::::::+::o...                               ",
"                  .::..:::+::::::....                           ",
"                  .:.-....:...:::::::::.                        ",
"                  :.--....:--....:::::.:+                       ",
"                  :.--...:.-....:...::.::.                      ",
"                 .:--....:.-....:.-..:::::                      ",
"                 .:--...::--....:-$..::::+.                     ",
"                 ..--...::--...::-$..::::::                     ",
"                 :.--...::-....::-$...:.:::..                   ",
"                 :.-...::.-....:.-.......::::                   ",
"                .::....::.-....:.-..::...::::.                  ",
"                .::::..:.--...::-...::....::::                  ",
"                .:.:::::.....;::-...::...-::::.                 ",
"                :.-....:::::.::.-.........:...::                ",
"               .:.-......::::::....::...-.:...::.               ",
"               .:-....:-....:::::..::...-.:....::.              ",
"               .:-....:-....:o..:::::...-::..-..--.             ",
"              .:.-.....-....:o-...o.::..-:...-:.---             ",
"              .:.-.....-....:$-...o.:::..:...-:...-.            ",
"              ::-....:--....:$-...;:::::.:....:..#-.            ",
"              ::-....:-....::$-...;:.:::::..-...##-             ",
"              :.-....:-....:.-....;:..::::..-...#.-             ",
"             .:.-.....-....:.-...:o.....:::.--..#.-             ",
"             .::....:.-....:-X...:o....-::::--..#..             ",
"             :--.::::.....::-X....;...-.:..----#.-.             ",
"            .:--...:::....:.-.....;...-.:....--.--              ",
"            .:-.....:::::::.....::.....:...##-----              ",
"            ..-.....:.::::::::..::...-.:...#.-----              ",
"            :.-....::-..::::::::.....-::...#...--.              ",
"            :--....:.-....::::::.....--...#.-...-.              ",
"           .:-.....:.-......::::.:;.-.....#--...-.              ",
"           .:-......--...:.-..::::::.-....#--....               ",
"           ..-....:.-....:.-...:::::--...#.-...-.               ",
"           :.-....:.-....:-.....:-----...#-...#-                ",
"          .:::....:--...:.-.....+--------.-....-                ",
"          .:::::.:.-....:.-...:--+@--------.....                ",
"          .:::::::.-....:.-...:---%+------....-.                ",
"         .:::::::::......-.....--------------.-.                ",
"         .:::::::::::..:.-...;.----------------                 ",
"         ::+::::::::::.:--...;.-+-------++----#                 ",
"         :::+:::::::::::.-...o---+---+++--+----                 ",
"         ::::+:::::::::::....o----@--+-------#.                 ",
"        .:::::::::::::::::..:$----%-+--------#.                 ",
"        .::::::::::::::::::.:$----@+--+-----##.                 ",
"        :::::::::::::::::::::$----@---+----###                  ",
"        :::::::...>>.:::::::.----+-------+###.                  ",
"       .::::...>>>>>>::+::::--------------###...                ",
"       .....>>>>>>>>>.::+:+:--------------...>>>..              ",
"       .>>>>>>>>>>>>>>::++::----+-------..>>>>>>>>..            ",
"      .>>>>>>>>>>>&>>>.::::.----------..>>>>>>>>>>>>...         ",
"      >>>>>>>>>>>&>>>>>::::.---------.>>>>>>>>>>>>>>>>>.        ",
"     .>>>>>>>>>>&>>>>>>.:::------+--.>>>>>>>>>>>>>.>>>>>.       ",
"     .>...>>>>..>>>>>>>&:::------+-.>>>>>>>>>>>>>>&.>>>>>.      ",
"    .>>&&&..>>&&>>>>>>>&.::-------$>>..>>>>>>>>>>>>&>>>>>>      ",
"    >>>>>>&&>>>>>>>>>>>&&..-------O>>>>..>>>>>>.>>>>>>>>>>&.    ",
"   .>>>>>>>>>>>>>>>>>>>&&&..------O>>>>>>.>>...&>>>>>>>>>&&&    ",
"  .>>>>>>>>>>>>>>>>>>>&&&&.=====.>>>>>>>>>>>>>>>>>>>>>>&&&&&&   ",
"  .>>>>>>>>>>>>>>>>>>&&&&&&.====.>>>>>>>>>>>>>>>>>>>>>&&&&&&&.  ",
"  >>>>>>>>>>>>>>>>>&&&&&&&&&====.>>>>>>&&&&&&&&&&&&&&&&&&&&&&&  ",
" .>>>>>>>>>>>>>>>>&&&&&&&&&&.*==>>>>&&&&&&&&&&&&&&&&&&&&&&&&&&. ",
" .............................................................. "
};
