/* XPM */
static char *c8e57c39524d43f09da7ac97ca8950c1f0Urz1SUZ9EbVoqn[] = {
/* columns rows colors chars-per-pixel */
"64 64 246 2 ",
"   c #040200",
".  c #090401",
"X  c #030C02",
"o  c #0B0B01",
"O  c #080B0A",
"+  c #120E00",
"@  c #0A1307",
"#  c #141401",
"$  c #191601",
"%  c #1C1A01",
"&  c #181A09",
"*  c #171C17",
"=  c #0C1614",
"-  c #211D09",
";  c #221D1C",
":  c #172208",
">  c #172315",
",  c #242303",
"<  c #282907",
"1  c #363608",
"2  c #2D2C1B",
"3  c #272816",
"4  c #312E17",
"5  c #333314",
"6  c #3D3B1B",
"7  c #383719",
"8  c #2F3211",
"9  c #121E2C",
"0  c #131C24",
"q  c #111C2C",
"w  c #15222D",
"e  c #19242D",
"r  c #1A2425",
"t  c #162232",
"y  c #1A2634",
"u  c #1D2935",
"i  c #1E2A39",
"p  c #1D273A",
"a  c #1F3239",
"s  c #272B29",
"d  c #2C3228",
"f  c #3B3B23",
"g  c #363727",
"h  c #222D3C",
"j  c #262B36",
"k  c #25323D",
"l  c #2A3439",
"z  c #363A37",
"x  c #352E21",
"c  c #413E15",
"v  c #423D27",
"b  c #423E32",
"n  c #3C4418",
"m  c #2A431C",
"M  c #3C4428",
"N  c #3B443B",
"B  c #3B4738",
"V  c #324A2E",
"C  c #46460D",
"Z  c #514D0A",
"A  c #484819",
"S  c #514A16",
"D  c #595618",
"F  c #4C5314",
"G  c #635E1B",
"H  c #434424",
"J  c #4B4B24",
"K  c #44442B",
"L  c #484B2B",
"P  c #4B5229",
"I  c #53542C",
"U  c #5B5C2C",
"Y  c #575625",
"T  c #464838",
"R  c #495239",
"E  c #555532",
"W  c #5B5C34",
"Q  c #5B5C3B",
"!  c #575639",
"~  c #524D2D",
"^  c #625D27",
"/  c #635E35",
"(  c #5C622A",
")  c #5C6338",
"_  c #686628",
"`  c #78752A",
"'  c #62633C",
"]  c #686835",
"[  c #736E37",
"{  c #7C7B36",
"}  c #7D7C3B",
"|  c #777437",
" . c #6F6E32",
".. c #71691B",
"X. c #252D41",
"o. c #263242",
"O. c #2A3544",
"+. c #2C3A45",
"@. c #2C364A",
"#. c #2D3A4A",
"$. c #263644",
"%. c #323D4C",
"&. c #343B45",
"*. c #343E51",
"=. c #393E56",
"-. c #2E3A52",
";. c #1E2F43",
":. c #3A4243",
">. c #34414D",
",. c #3A454D",
"<. c #384646",
"1. c #354252",
"2. c #3A4554",
"3. c #3C4954",
"4. c #3C465A",
"5. c #3E4B5A",
"6. c #364857",
"7. c #354A54",
"8. c #3D4B61",
"9. c #454D44",
"0. c #454948",
"q. c #4A5548",
"w. c #585744",
"e. c #434B54",
"r. c #424C5C",
"t. c #444957",
"y. c #44515D",
"u. c #4A535C",
"i. c #495353",
"p. c #535A5C",
"a. c #615D41",
"s. c #576656",
"d. c #5A694D",
"f. c #636444",
"g. c #6A6B44",
"h. c #6A6849",
"j. c #6D7246",
"k. c #7C7C42",
"l. c #757749",
"z. c #666957",
"x. c #677559",
"c. c #787855",
"v. c #706A45",
"b. c #444D62",
"n. c #484E64",
"m. c #455262",
"M. c #4A5564",
"N. c #4D5966",
"B. c #4C5669",
"V. c #4D5A6A",
"C. c #465469",
"Z. c #515D6C",
"A. c #535A67",
"S. c #545E73",
"D. c #55616E",
"F. c #5A6366",
"G. c #556272",
"H. c #5A6574",
"J. c #5D6A7A",
"K. c #5C6778",
"L. c #6B7766",
"P. c #747968",
"I. c #616D7B",
"U. c #656E77",
"Y. c #696F72",
"T. c #817D3D",
"R. c #837B36",
"E. c #827A2F",
"W. c #827E46",
"Q. c #817E56",
"!. c #7E823E",
"~. c #7E8148",
"^. c #7B8254",
"/. c #76846A",
"(. c #768A6E",
"). c #83813D",
"_. c #888438",
"`. c #938D3A",
"'. c #A3983F",
"]. c #858243",
"[. c #84834B",
"{. c #8A8747",
"}. c #878756",
"|. c #969759",
" X c #908E4F",
".X c #A29C4E",
"XX c #ABAC4E",
"oX c #ADAB55",
"OX c #ADAD5B",
"+X c #A5A35B",
"@X c #B1AD54",
"#X c #B2AD5B",
"$X c #B6B459",
"%X c #B0AF4E",
"&X c #888A64",
"*X c #989868",
"=X c #889676",
"-X c #93956E",
";X c #A29D6A",
":X c #95A67C",
">X c #A8A768",
",X c #B3B464",
"<X c #B3B36A",
"1X c #B9B868",
"2X c #A9A877",
"3X c #B3AE7B",
"4X c #B5B473",
"5X c #BAB878",
"6X c #B0AE69",
"7X c #C1BD7B",
"8X c #C2BB6A",
"9X c #BEC477",
"0X c #C3C579",
"qX c #687388",
"wX c #879782",
"eX c #949F84",
"rX c #97A487",
"tX c #97AA8F",
"yX c #B8B785",
"uX c #A8B89A",
"iX c #ADB18B",
"pX c #A8BAA3",
"aX c #C1BD82",
"sX c #BDC28F",
"dX c #B5CDAC",
"fX c #B7CAA9",
"gX c #BCD2AD",
"hX c #BCCCB3",
"jX c #B7C8B4",
"kX c #BCD3B3",
"lX c #BDD5B7",
"zX c #AFC2A4",
"xX c #C7C58E",
"cX c #C2D4B4",
"vX c #C2D9B3",
"bX c #C4D5BA",
"nX c #C4DABC",
"mX c #CBDCBC",
"MX c #CCD9B8",
"NX c #C1D1B2",
"BX c #CEE1BD",
"VX c #CBDBC2",
"CX c #C6DAC2",
"ZX c #CCD8C4",
"AX c #CDE2C7",
"SX c #D5E5C8",
/* pixels */
"w +.y.r.2.M.m.@.*.m.6.1.o.h u 3.C.$.t.; # : d <.<.1.b.S.3.#.6.8.7.a l u =.n.8.o.y.e.7.y 3.m.>.u.r.r.o.r.r.,.#.h X.t r.m.5.r.r.r.",
"9 h >.m.r.2.G.$.X.k h q 9 y %.5.V.k l g -X~.# d > d 0.&.l r >.#.u w 9 y r.B.b.y >.3.+.9 a 6.M.1.y.Z.e o.k p t y y t #.6.5.5.V.V.",
"u o.h %.o.6.H.#.5.m.N.#.m.5.>.>.M.t.; w.xX5X5X2X3Xk.1 1 4 x x l 9 3.Z.=.b.t.r.k l k @.X.@.@.*.X.m.Z.+.B.M.r.#.V.#.X.i @.%.O.B.V.",
"w k y h h *.%.@.B.V.V.4.D.Z.k +.t.&.b c.;X_  .+X7X8XR.4XyXQ.4 v g T T s = 0.i.&.>.>.n.t X.q p O.%.+.>.N.N.Z.6.K.m.t o.t i #.$.#.",
"9 %.5.h %.2.1.#.r.2.B.>.3.N.y y k l g iX^ <   6 v./ ..+X8X4X1X1X9X .n J ~ 3 X :.t.n.u.9 r.%.o.6.r.%.%.3.t.V.#.N.6.u 4.%.O.2.5.#.",
"u N.I.r.y.K.K.O.6.5.K.1.r.D.y j = l 7 &Xc -X4   . % ;XG Z D $X1X$X#X5X5X3X~.P @ e.A.u.&.I.H.6.C.H.Z.o.r.N.N.#.V.r.%.J.S.1.V.K.Z.",
"o.5.t.1.i 2.5.u k %.3.y >.V.u #.+.= ) ~./ ' o   . ~ 2Xc c   6 A D 5X4X6XOX9X~.) g &.M.%.t.b.$.$.r.2.9 O.2.>.u m.4.%.3.n.$.#.b.%.",
"+.r.V.3.h k #.t 9 y h y o.m.t u o.X ^.( ] )     . Q.~ c.w.      ^ [ ,  .<X1XF >Xv.2 i.=.b.V.#.;.#.o.w 9 y i p 1.5.1.C.Z.$.h O.O.",
"O.m.Z.y.m.I.H.o.$.X.u k >.r.#.3.t.:.&XS ~.<     # *Xn ^.2   .   &XY c - 1 ] ] 3X XE s t.5.K.6.G.J.D.u o.o.t O.2.5.1.b.H.1.qXJ.B.",
"#.5.y.2.r.r.Z.k h %.o.h r.m.O.M.H.T &XA ~.$ . . Y !.( j.@   . v }.^ !     ~ [ 7X+XW.v z i.5.>.8.m.y.h k o.o.#.m.r.1.m.m.#.r.m.5.",
"h 5.D.1.%.5.Z.k t w y h M.m.i ,.0.w./ v.E     . 3X .( f.      &X}.Y T   c Q.] 4X5X{./ x <.D.$.6.m.N.w y u w o.B.2.%.r.V.$.5.N.V.",
"p 1.G.>.k r.N.%.m.N.V.o.1.B.%.u.g c.v c.K   . < 2X_ ] 8     o ;X[.E b   1 ] l.D <X{.|.Q 3 F.u %.y.m.%.N.Z.r.o.V.1.o.5.H.i 1.m.r.",
"i %.V.1.o.y.y.O.3.N.G.>.r.B.#.i.f j.5 !   . . v.2XC c.%     f yXJ v.. . 1 j.L   1 7X6X4Xv.9.&.%.y.r.o.N.N.V.#.V.4.o.r.V.o.2.B.5.",
"X.1.5.%.2.r.N.k 3.>.1.%.1.1.o.N J iXiX8 2 . . }.*XI ' X .   ] 2XA a.    Y l.g   . D +X#X>XH z t.r.m.j 5.>.2.%.1.>.@.1.2.O.5.r.r.",
"y i t i k h o.e h h h i y h p r n >Xv.xXaXP D 7XS ~ ~     < 3XR./ v   3 [ ( X   - $ l.7X5X Xo l &.u u $.u h y p i p i h y +.o.o.",
"*.V.Z.G.V.H.u.%.H.H.3.y.Z.Z.1.N j. X% / ( 3X7X1XQ.7 X   . ! aXE./ v   L ^.m X   b / W.W.R.aXh.g F.3.r.J.V.1.V.Z.M.6.Z.B.G.V.G.y.",
"%.G.N.N.r.M.a $.Z.qX7.y.M.D.u.s |.] Y .   c [ 3XxX{.G F X Q.yX/ h.-   7 ) 5     3 I ;XC $ c.xXg.g s 2.qXK.#.V.M.G.6.S.C.B.r.u.l ",
"$.4.e.3.1.k w h 5.C.+.7.3.N.l B 2XS h.+     , ] c 3XxX6X| 4X>X< % o   ! f.$     ~ I 2X-   o 2X3X5 * @.b.M.$.3.5.C.1.8.8.4.>.u e ",
"9 $.#.u y u i $.5.Z.k $.u.t.* q.*XD K   .   H E < - 4 I 5X<X5X[.c.< o f.I     . j.I &X  o % Y yX&X3 ,.n.m.e ,.3.#.i o.@.h y w u ",
"i >.3.1.k 1.#.>.6.Z.+.u O.&.* w.l.) g       Q f.T       [.| $ U uX;X}.] }.5   $ A }.-X  + ! Y U /.g ; u.N.k l k @.;.6.8.>.u 3.+.",
">.H.D.D.1.K.D.$.#.5.1.7.O.u.d (.E a.. .   2 I ) o   .   l._ A & - $ ] _ >X>X6 4 S -XT . $ v }.1 H P.N l e.z <.+.r.4.S.S.G.3.qXV.",
"k 5.1.N.%.3.m.y ;.#.#.m.t.t.K &X~ a..     g Q h.  .   3 &XY w.      J Y <X4X*X$ A yXv . c ' f..   ~ /.s z %.M.,.B.%.u.4.m.+.8.5.",
"k 5.y.G.>.y.D.w t t h r.t.t.c.j.w.4       ! ! j.      g *XA !     & Q ( W.>X<X|.^ yX2 . 6 E x.  $ : f.3 * %.e.3.m.o.4.n.D.2.m.S.",
"e k 3.y.e 3.m.i %.p p n.n.z ) j.a.-     : f.Q f     X }.&XE f     & Q }.$ ^ 6X<X1XW.. - h.W x   3 f M 3 u +.r.y.N.h %.3.r.y 8.C.",
"0 w u k e +.m.y i o.9 5.t.T ' 1 w.  .   P l.) ,   .   }.) ' &     3 f.7   . c +X1X`.< . / P -   - R R ; j p r.b.M.y t j h y *.b.",
"e k i y k >.r.i >.>.p y &.g 2XE <       ' S W       % }.Y /       R z.;   . . c >X0X;XE c 1     & b T g &.t $.#.2.y h j e h 6.m.",
"w >.>.o.#.6.M.>.N.I.X.k d w.Q.Q.j.) #   Q.' z..     1 [.U K   . # ! w.o   . v A  X| }.iX_ W   . 3 R d F.Z.h X.*.$.p >.%.a +.b.b.",
"0 w t t k m.y.y >.N.=.U.9.f.I c Y rX}.j.Y - x     X l.|.H 9..   2 d.b   O . v ] Q.. $ / }.}.f : 5 z.s t.t.b.qXS.G.u 9 e y l B.5.",
"a ,.y.5.X.m.N.$.r.G.t.t.f c.W !   3 E sX*X .-     . |._ h.3     < f.T   . & ~ / c.    + U ^.c.< H R z M.B.*.m.m.V.@.3.y.,.u m.V.",
"l N.D.S.*.5.y.>.y.B.-.z K -XK -       1 ;XsX}.Q.W.[.6X1 $       K f.-     & E &X5   X & < g.&XA I L &.B.M.$.5.5.m.%.V.D.D.+.m.m.",
"e 7.3.r.1.4.6.$.r.B.O.l L ) ! $       # ) A yX4X5X<X,X X]. X% X W Q #     T I W     . 3 L E ' }.l.L z b.2.@.6.#.5.$.3.2.y.%.3.3.",
"e l u $.X.t X.9 j u O.s c.Y h.+       w.g.1 % < ;X>X<X1X,X<X|.*X/ c       M l.!     $ 4 L - X w.x.# s j $.k k t @.9 O.u k i y k ",
"o.M.r.t.%.y.5.5.u.n.B.d W / c..       Q I c.#     J >X|.<X6X6X5X_ A . . 5 / f $     2 7 h.o     z l p.u.M.r.%.b.8.b.m.m.5.>.y.6.",
"%.Z.A.A.r.N.D.D.U.Y.n.p.&XJ H       % ^.E f.      Q 8 < |. X4X+XD 3X' $ Y ~ 2   . . < E L . O   z N s.U.H.B.2.qXV.G.V.V.+.,.H.Z.",
"i 5.3.A.O.2.r.3.5.3.t.q.c.) v       7 ) g.K     $ -XJ h.    Q.[ | 7X4X3X1 E x   . ; 4 a.g   o 9.z :.e.r.r.n.=.b.8.5.*.i y +.y.m.",
"t 7.n.t.h j 6.8.r.e.0.z.< c.4 .   o c.' f.,     o c.' L   o   J |.6X X|.].j..   . g K !       R N 3.e.r.m.n.;.#.6.O.i u u i M.>.",
"y k $.@.j p @.4.#.e.g -Xl.< .     o &XU W o     6 ] ! <     % c +X_.T.| } [.W # $ 3 a.v     3 R = ,.t.o.N.Z.X.#.%.i y %.p u o.#.",
"$.>.X.n.h +.y o.o.:.K ;X5X[.- .   4 -XH E   .   W ( j.8     H U ^  .{.).!.| }.g.< 5 a.-   + < x.> u k $.5.y.2.G.G.I.>.I.M.#.%.4.",
"+.r.5.B.h y k w O.s I 5XOX5X X] . W c./ 2   . + l.C x.+   . J U _ G  ._.!.} } [._ / v.  . & K K r i i $.O.o.#.y.r.r.%.V.n.=.M.n.",
"$.m.4.S.k y.J.3.m.9.Y 1X@X@X<X5X} 3Xc c $     * -XY w.  . & E /  X[ D G ).T.} } T.{.c .     E g A.K.>.m.J.m.#.y.r.H.%.u.M.%.B.M.",
"l 5.5.Z.O.e.N.2.=.b }.1X%X%X@XoX,X,X|.S .     - ' ' 2       6 k.W.R.R.G ` } W.} T.R._ ' 5   h.M 5.V.#.6.N.m.u ,.5.N.i B.r.O.A.B.",
"a 3.5.Z.>.,.u.1.j ; ;X@X@X@X%X$X%XXX,X>X|.,   h./ a.&   o x P j._ W.T.R.T.W.W.W.] [ }.[.l.z.w.g 3.V.@.t #.k 9 y k o.w 1.4.#.r.M.",
"0 +.7.t.,.3.Z.V.j z.|...@X$X%X%X%X$X#X,X1X+X1 ^ S Q.&     ~ E k._ { W.R.].{ W.^ Y _ | W.[.[.v d u.K.1.m.N.y.e u t 9 O.*.m.9 %.2.",
"9 a h o.+.5.B.r.j a.yX_....X%X$X@X@XoXoX#X#X$X X1 1 .   ; ! / [.[ Z | } T.G ^ ^ Q.[ D ` W.h.T l 8.V.7.V.D.V.u >.%.h %.4.4.y o.X.",
"%.H.S.H.o.3.B.i.2 l.5X1X`.Z `.,X1X@X,X#XXXXX%X,X+X1 . . 4 I  .{.R.} _ _.{ Z _ [.R.W.`  .l.~ ; &.5.C.#.6.5.N.w u i p o.C.y.5.K.y.",
"O.A.M.S.o.r.Z.0., 2X>X8X`._.1X#X@X$X#XoX@X$X%X%X#X4X~ . L Y _.` W.[ G _ D _ _ T.W.R.T.W./ L ; j y.G.$.3.u.D.k o.*.O.X.V.r.>.D.M.",
"X.n.4.C.$.>.B.z n <X@X$X'.'.$X@X@X@X1X0X#X$X$XOX@X6X3X/ [ S {.{ ].| G ^ } ]._ { T.T.T.[ I f s j 2.V.$.+.i.3.>.G.K.V.o.V.7.>.y.u.",
"h 4.=.b.*.%.M.g [ 8X@X@X@X#X>X7X8X8X` Z 6XOX,X$X#X#X6XaX| Y ).} T. .[ W.k.]._ D ` W.W.I ~ d 0.l 2.V.%.5.m.m.i m.4.V.1.6.1.<.y.7.",
"j k i @.X.X.j ; _ <XOX9X9X4X4XF n M E ) ~.<XXX$X$X$X,X<XS [ ).{ ).U | ].| } } _ D ] ] K L d z +.o.o.p #.%.+.u +.h O.j j X.o.o.+.",
"l <.=.4.=.t.0.3 *X5X9X|.: n n x.^.x.zXSX) |.1X!.`.$X1X|.Z W.R._.| _ ].} { ].} {.k.] ~ E T X   = 2.2.$.>.2.2.>.3.o.%.-.@.6.*.1.#.",
"5.S.G.S.qXI.N.R ) < < F =X^.-XBXBXBXMXvXiX] ,X'._.E.E.{.S Q.} ). ...} ).].| ].k.}./ # $ # /.wX(.r > u.F.F.D.S.K.r.B.I.I.K.qXG.Z.",
"#.6.b.8.n.m.N X x.rX=X:XBXSXMXfXfXvXgXvXvX^.!.9X` G #X{.S {.} R.G | _.{ !.~.}.F + H rXeXrXcXSXkXwXtX> @ :.e.&.h 9 %.b.b.5.r.B.3.",
"q #.r.r.r.,.* /.vXMXBXvXgXdXlXlXvX:XB gXvXfX(  X_.OX5XZ | ).T.)..._ W.W.k.[ 1 ) uXuXBXBXmXlXfXlXBXAXuXpX<.= j j p j 5.r.r.r.u.n.",
"t i %.4.2.z tXmXAXkXgXgXcXlXlXlX(.m tXvXNXBX:X( ).<X>XZ T.R.{ {.| ..W.W.Y : x.vXMXcXNXfXgXkXdXgXgXfXpXAXdXdXU.0 0 e k r.3.1.V.y.",
"y <.j &.r p.VXuXtXuXBXBXgXnXjXx.V uXnXlXfXNXvXF _ sX!.Y _.{ ).{ W.D W.J R cXAXlXfXgXvXvXdXlXlXjXAX^.X (.lXCXlXjX0.r l k k $.B.m.",
"0 j 9 j 0 L.SXg X @ (.tXlXlXB > dXlXlXlXkXmXzXm F sXl.J ].).R.} R.[ ^ v.VXtXwXAXAXgXgXfXlXlXhXAXBXwXd.: (.CXlXbXVXs.> r j o.o.X.",
"u 3.N.>.,.jXVX(.L./.X V AXuXq.tXvXlXkXlXlXlXuXP 5 ^.c.v.[.} W.} W.l.I zXBXs.V (./.fXvXgXBXSXjX(.uXlXBX(.tXvXgXgXbXjX3.<.<.8.G.7.",
"o.M.J.a wXAXhXnXbXCX/.tXnXgXAXnXkXgXgXkXdXCXuXR B f 3 f h.}.[.}.~.] j.BXgXCXlXB V (.gXgX^.(.d.X /.AXgXfXvXNXgXgXlXpXx.r N C.G.C.",
"$.8.V N.CXlXkXlXlXjXAXlXgXvXgXfXvXgXcXgXkXcXzXB w.3 + x 7 f 7 J &XP =XvXgXlXdXAXBX(.cXuX: X d eXzXgXNXvXvXgXNXmXtXq.9.l e o.-.$.",
"7.5.<.pXkXdXkXkXjXlXlXlXgXfXgXvXfXNXcXgXcXCX=XB q.V . L.q.2 g 7 3 ) mXgXgXgXdXgXhXmXbXbXrX:XtXvXdXdXfXgXvXNXnXwXR <.q.i.j O.5.1.",
">.7.V CXgXfXvXgXgXkXjXkXvXgXgXgXNXNXhXMXuXx.q.9.0.q.g z P.P.P.z.> uXgXcXdXgXvXmXbXbXNXZXbXmXCXmXnXvXAXcXcXbXP.B 9.9.q.i.:.3.U.e.",
">.V (.nXcXkXgXlXlXkXnXgXkXlXvXgXbXbXjXx.d.V 9.0.0.q.i.x 0.L.F.L.R NXmXhXvXvXkXx.x.L.L.z.P.L.x.L.L.x.x.L.x.L.T 9.q.0.0.0.0.j :.p.",
"j t.jXjXdXjXjXjXdXdXgXzXjXjXdXhXjXlX(.B 9.q.9.0.i.T ! T * z L.B P.bXdXjXL.s.s.B N N N N :.N <.B B :.N N N B 9.9.T 0.0.9.9.:.z i.",
"0 = r * & > & > & : : : > = > > > > X X O X O O O O X o   X = X & > : > X X   @ = o O @ X O X @ O O @ X @ o @ X @   @ o o o . s "
};
